<svg width="59" height="81" viewBox="0 0 59 81" fill="none" xmlns="http://www.w3.org/2000/svg">
<path d="M4.35707 34.9094C4.35707 35.9211 4.32181 38.127 4.31412 42.1533C4.30934 44.6623 4.40873 46.8841 5.06353 49.5939C5.44736 51.1824 5.3855 52.2241 5.59803 53.0672C5.76558 53.7318 5.90604 54.3148 6.04626 55.3323C6.68479 59.9663 7.6142 61.9495 7.94598 62.5647C8.39341 63.3943 8.9454 64.2575 9.28676 64.8634C9.81554 65.8019 10.3744 66.6594 10.7895 67.3363C11.2935 68.1583 11.8673 69.0749 12.9681 70.3639C13.5625 71.0599 14.1202 71.704 17.1481 73.3811C18.4193 74.0852 20.0145 74.7844 21.7589 75.2178C24.1091 75.8018 26.1263 75.3673 27.6175 75.0667C30.0981 74.5667 32.651 74.5206 34.0507 74.5102C35.5966 74.4988 37.7776 74.3398 39.4755 73.9779C40.6563 73.7263 42.2894 72.852 44.1876 71.9719C45.1768 71.5133 45.7001 70.5244 46.6936 69.3221C47.744 68.0509 48.7031 66.0836 49.5177 63.6324C50.6754 60.1486 51.235 59.2452 51.8258 57.0803C52.4714 54.7145 52.9454 53.421 53.1418 52.0441C53.2505 51.2819 53.2985 50.2546 53.3849 49.2261C53.5913 46.7683 54.0471 44.3432 54.1259 43.6063C54.1873 42.6424 54.3979 41.5567 54.4801 40.4612C54.5011 40.2585 54.5432 40.1118 54.6822 39.6657" stroke="black" stroke-linecap="round"/>
<path d="M55.2325 39.6686C55.4647 39.651 56.4636 39.4997 57.4061 39.5051C57.5995 39.5062 57.7359 39.6999 57.8387 39.8457C58.3419 40.5602 58.127 44.0935 57.9543 46.4122C57.8598 47.6809 57.2481 49.3007 56.8486 50.8908C56.5724 51.99 56.0768 52.6483 55.5654 53.2412C55.1611 53.6228 54.7975 53.9215 54.5192 54.0988C54.3718 54.19 54.2122 54.2834 53.9735 54.4527" stroke="black" stroke-linecap="round"/>
<path d="M5.31809 54.4461C5.05757 54.1874 4.23287 53.5389 3.6975 53.1294C3.11027 52.6801 3.09328 51.7763 2.95898 50.8995C2.76826 49.6544 2.27873 45.8763 2.04672 43.7735C1.89231 42.3739 1.44783 41.9316 1.06746 41.0632C0.939755 40.7716 1.0165 40.3531 1.10739 40.1492C1.19827 39.9452 1.38005 39.9452 1.55723 39.9871C2.38117 40.4189 3.28604 41.0625 3.85444 41.5635C3.97903 41.6921 4.07403 41.8096 4.17191 41.9307" stroke="black" stroke-linecap="round"/>
<path d="M4.50729 33.9407C4.37925 33.706 3.98227 33.0537 3.4575 32.4173C2.91374 31.7579 2.56092 31.1412 2.48504 30.5386C2.46768 30.4008 2.72181 30.3387 2.82229 30.2075C3.02747 29.9394 2.93949 26.9833 2.90597 22.7129C2.88383 19.893 4.08563 17.8831 4.80706 16.7326C5.54708 15.5525 6.06991 13.97 6.91218 12.445C7.48155 11.4142 7.81356 10.6874 7.93332 9.88106C8.04261 9.14516 8.92741 8.67633 9.58485 8.06671C10.3104 7.39396 11.2508 7.24447 13.0045 6.85975C14.4984 6.53203 15.5343 6.66611 15.8014 6.52944C16.9384 5.94769 18.3674 3.67747 19.5971 2.93799C21.647 1.70534 24.4541 2.3176 25.2813 2.117C26.1778 1.89955 27.0165 1.77167 27.9749 1.48697C28.843 1.22909 30.2952 1.08253 33.2012 1.00182C34.4173 0.968048 35.0556 1.41222 35.8481 1.66423C36.3029 1.80885 36.6476 2.0323 36.8721 2.23748C36.984 2.33977 37.0396 2.48908 36.9463 2.67851C36.4663 3.6533 35.8345 4.05486 35.7101 4.53993C35.3706 5.86412 39.5424 3.24996 40.6008 2.89581C42.0724 2.40343 44.1229 2.29518 45.2988 2.53951C46.3538 2.75873 46.9321 3.33796 48.2798 4.09566C49.4368 4.74615 49.949 5.55838 50.4843 6.48216C50.936 7.26166 51.1921 7.95864 51.4325 8.67916C51.8093 9.8083 51.812 10.9698 52.0008 11.9006C52.2178 12.9702 52.5246 13.8842 52.8574 14.6017C53.2048 15.3508 53.6557 15.907 53.8437 16.5523C54.0487 17.2561 53.9604 18.1267 54.0516 18.9187C54.1477 19.7541 54.2537 20.6274 54.3676 21.4798C54.5484 22.8329 54.8405 23.828 54.9585 24.7966C55.0547 25.5865 54.8447 26.4001 54.4907 27.0364C54.1442 27.6592 54.0454 30.5961 53.9779 32.7062C53.943 33.7997 54.1335 35.5501 54.5614 36.8371C54.6438 37.1011 54.6861 37.2688 54.7237 37.4319C54.7613 37.5949 54.7928 37.7483 54.9054 38.2844" stroke="black" stroke-linecap="round"/>
<path d="M53.8423 23.7871C53.5897 23.9557 52.4878 24.4268 51.6082 24.6327C51.2637 24.7134 50.7849 24.6718 50.2686 24.6313C49.5218 24.5727 48.956 22.8357 48.239 21.3122C47.9879 20.7787 47.6642 20.5074 47.3633 20.4322C46.7428 20.2769 45.6038 20.613 44.8066 20.2877C43.7298 19.8483 44.4887 17.4182 44.0746 16.9255C43.6281 16.3943 42.7829 16.2873 42.1722 16.3013C41.2004 16.3234 41.6274 18.2862 41.5444 19.472C41.5252 19.7452 41.438 19.8977 41.3143 20.0044C41.1906 20.111 41.0163 20.1655 40.8423 20.1514C40.0102 20.0841 39.3937 18.0866 38.9883 16.8834C38.8818 16.5672 38.7345 16.1044 38.5859 15.838C38.4373 15.5715 38.2947 15.5145 38.0643 15.5165C36.8575 15.5268 35.9425 16.1691 35.2604 16.6627C35.1021 16.7772 34.9679 16.8515 34.8454 16.8002C34.1692 16.517 33.8811 15.7498 33.2189 15.5616C33.026 15.5068 32.7806 15.5395 32.5613 15.6308C32.3421 15.722 32.1497 15.9046 32.0187 16.0898C31.2647 17.1558 31.7404 18.9919 31.6324 19.1948C30.945 20.4863 28.7193 16.509 28.1912 16.2071C26.8395 15.4344 25.4578 16.7626 24.743 17.3664C23.9216 18.0603 24.3142 19.5657 24.1349 19.7142C23.9286 19.8849 23.6644 19.3542 23.3715 19.1563C22.919 18.8503 22.3349 19.1314 22.0135 19.3154C21.1621 19.8026 20.4857 21.4434 19.9534 22.3504C19.5729 22.9986 18.6537 23.0852 17.3573 23.0927C16.5301 23.0976 16.1311 22.344 15.2354 21.8672C14.4037 21.4244 13.8299 20.7526 13.1525 20.5658C12.6878 20.4376 12.2317 20.614 11.9277 20.7825C11.3589 21.0979 11.2405 22.1665 10.9853 22.9646C10.8767 23.3042 10.6278 23.6581 10.3937 24.0144C10.0172 24.5873 9.25008 24.0893 9.01465 24.0431C8.40118 23.9226 8.02964 25.9892 7.5621 27.2665C7.19489 28.2696 7.01655 29.4787 6.61065 30.7238C6.05186 32.438 5.65336 33.3876 5.53097 34.0641C5.49168 34.2231 5.42782 34.3749 5.35487 34.5218C5.28192 34.6686 5.2018 34.8059 5.11926 34.9474" stroke="black" stroke-linecap="round"/>
<path d="M14.5279 32.6034C15.2091 32.6426 17.1486 32.5439 17.8305 32.3354C18.4553 32.1443 18.863 31.5668 19.4655 31.3193C20.1199 31.0505 20.8689 30.7462 21.4464 30.4088C21.5987 30.3198 21.7635 30.2224 21.7493 30.133C21.6101 29.2592 19.5188 30.5188 18.4616 30.81C16.6341 31.3133 16.1391 31.615 15.8239 31.841C15.6505 31.9652 15.4726 32.1392 15.7253 32.1239C17.7577 32.0009 18.6542 31.397 19.3439 31.2926C20.0812 31.1811 22.4542 31.0485 23.838 31.0358C24.5406 31.0293 22.84 30.1011 22.3732 29.925C22.202 29.8605 22.8839 30.0162 23.1488 30.2396C23.278 30.3486 23.349 30.5 23.3125 30.6322C23.2759 30.7645 23.1175 30.8861 22.878 30.9488C22.6386 31.0115 22.3231 31.0115 21.998 30.8969" stroke="black" stroke-linecap="round"/>
<path d="M34.0801 30.3728C34.8197 30.3551 35.6604 30.2786 36.4677 30.2049C37.5006 30.1106 39.5626 30.0985 40.9473 30.2498C41.8084 30.3439 42.8718 31.1831 43.5108 31.7511C43.6362 31.8625 43.6706 32.0443 43.726 32.1979C43.7814 32.3514 43.8217 32.5013 43.2693 32.584C39.8992 33.089 38.3981 32.0105 37.6389 31.693C37.3089 31.5617 36.996 31.462 36.6903 31.3794C36.5379 31.3377 36.3912 31.2966 36.0062 31.1337" stroke="black" stroke-linecap="round"/>
<path d="M13.1805 39.1148C13.4674 39.0735 14.4323 38.8501 15.3614 38.5374C16.2104 38.2517 16.9766 38.2292 17.9132 38.1227C19.3931 37.9546 20.1063 38.0159 20.8074 37.9443C22.2744 37.7946 24.2285 37.9326 25.0688 38.3297C25.2586 38.4525 25.3851 38.5791 25.4923 38.7074C25.5995 38.8358 25.6836 38.9621 25.8853 39.1736" stroke="black" stroke-linecap="round"/>
<path d="M21.9463 36.9145C21.781 36.9477 21.1335 36.8905 19.5633 36.8555C18.9494 36.9378 18.54 37.0309 18.1947 37.0961C18.0191 37.1298 17.8426 37.1647 17.6174 37.2006" stroke="black" stroke-linecap="round"/>
<path d="M19.0634 39.3244C19.0066 39.5285 18.8234 40.0061 18.7208 40.3021C18.6693 40.4505 18.6858 40.6145 18.9386 40.7027C19.6609 40.9548 20.3812 40.7592 20.6975 40.6321C20.8536 40.5693 20.9879 40.4797 21.0853 40.3561C21.1827 40.2326 21.2357 40.07 21.2275 39.9158C21.1482 39.6208 20.9398 39.3793 20.6581 39.2068C20.5116 39.1306 20.3579 39.0775 20.1994 39.0228" stroke="black" stroke-linecap="round"/>
<path d="M36.6888 38.1093C37.143 37.9554 38.3487 37.3494 39.1905 36.9396C39.8646 36.6116 41.428 36.6616 42.6953 36.8926C43.8162 37.097 44.4454 37.4134 45.085 37.6543C45.7416 38.0681 46.5283 38.7979 47.0706 39.2596C47.1885 39.3691 47.2955 39.4886 47.5689 39.5553" stroke="black" stroke-linecap="round"/>
<path d="M41.6926 38.2061C41.6389 38.3966 41.3051 38.9926 40.8608 39.451C40.7511 39.5642 40.7265 39.7511 40.7403 39.9075C40.7542 40.0639 40.8314 40.2034 41.0116 40.2752C41.1918 40.3471 41.4727 40.3471 41.6592 40.2697C41.9882 40.1332 42.028 39.4251 41.9889 38.6844C41.9734 38.3925 41.8208 38.2882 41.6736 38.2812C41.3519 38.3719 41.0866 38.5985 40.943 38.8773C40.8847 39.0302 40.8561 39.2061 40.7922 39.8224" stroke="black" stroke-linecap="round"/>
<path d="M25.5802 50.0252C25.5802 50.3403 25.4101 51.2793 24.8438 51.9044C24.5734 52.2029 24.2062 52.3287 23.9565 52.5418C23.707 52.7549 23.5994 53.304 23.6506 53.9815C23.6718 54.2624 23.8618 54.3877 24.0178 54.4839C24.9329 55.0484 26.5434 54.5881 27.0909 54.2625C27.6172 53.9495 27.6476 53.3302 27.8752 53.1145C28.4041 52.6131 29.4482 53.0903 30.1147 53.2826C30.4632 53.3832 31.0325 53.4613 31.697 53.431C32.1439 53.4107 32.4119 53.0633 32.6519 52.815C32.7682 52.6948 32.806 52.529 32.7704 52.4051C32.7347 52.2811 32.6074 52.1895 32.5968 52.2118C32.9775 52.6847 33.484 53.3041 33.8928 54.0063C33.9945 54.1859 34.0834 54.3494 34.292 54.5322" stroke="black" stroke-linecap="round"/>
<path d="M25.2275 53.627C25.2275 53.6055 25.2275 53.4132 25.2689 53.0683C25.3929 52.764 25.7025 52.6074 26.0426 52.4714C26.1583 52.3473 26.1583 52.1111 26.1155 51.5899" stroke="black" stroke-linecap="round"/>
<path d="M19.3043 59.9176C19.5176 59.9523 20.3481 60.2397 21.0891 60.4661C21.9228 60.7209 23.0313 60.6525 23.7854 60.7679C24.8364 60.9288 25.3943 60.3123 26.0713 59.6657C26.5925 59.168 27.2756 58.9899 27.9339 58.8603C28.1227 58.8231 28.3486 58.8242 28.4338 58.8977C28.6131 59.0523 28.3978 59.9308 28.533 60.8671C28.7449 62.3334 31.9302 61.0222 33.2943 60.9436C37.5454 60.6989 38.1521 60.5507 38.6678 60.5049C39.1456 60.4625 37.4666 60.0596 36.7592 59.7734C36.1193 59.5144 33.5373 59.489 31.907 59.5583C31.745 59.5867 31.5962 59.6149 31.3342 59.6356C31.0722 59.6563 30.7016 59.6687 30.1732 60.0506" stroke="black" stroke-linecap="round"/>
<path d="M10.9404 80.4409C11.1756 80.3705 11.868 80.0715 12.4298 79.7331C12.9729 79.406 13.4691 78.9905 13.8734 78.1519C14.3432 77.1776 14.6102 75.9464 14.86 75.2617C14.9818 74.9559 15.1134 74.6682 15.2879 74.2452C15.3919 73.9572 15.5277 73.5202 15.623 73.0129" stroke="black" stroke-linecap="round"/>
<path d="M51.8461 78.104C51.636 78.0754 50.8362 77.9045 50.1477 77.7109C49.4961 77.5276 48.7543 77.1911 48.1159 76.8753C47.7878 76.7129 47.5364 76.4328 47.3693 76.2514C47.022 75.8743 48.1645 75.6724 48.284 75.3467C48.5295 74.6774 47.7323 73.9447 47.4099 73.3873C47.2826 73.088 47.14 72.8051 46.916 72.5252C46.7761 72.3719 46.5827 72.1956 46.1544 71.6483" stroke="black" stroke-linecap="round"/>
</svg>
