<svg width="65" height="77" viewBox="0 0 65 77" fill="none" xmlns="http://www.w3.org/2000/svg">
<path d="M17.9723 76.1129C17.9723 74.9717 17.9376 71.5479 17.8594 70.472C17.8122 69.8212 17.1941 68.8894 16.7039 67.9853C16.131 66.9289 15.531 66.1465 14.3238 64.5334C13.6273 63.6027 12.9953 62.6111 12.7422 61.6261C12.3125 59.954 11.1046 57.3363 10.2566 55.3751C9.63613 54.2961 8.967 52.8494 8.53504 51.5865C8.48718 51.3692 8.46024 51.1795 8.31064 50.7805" stroke="black" stroke-linecap="round"/>
<path d="M17.6062 68.1696C17.7071 68.3484 18.4726 69.1987 19.1512 69.8076C19.7298 70.3268 20.2921 70.8009 21.7365 71.6623C22.6827 72.2266 23.7075 72.8015 25.3591 72.88C29.4536 73.0745 30.3459 72.9931 31.3369 73.0681C32.1111 73.1268 32.9027 73.2882 33.8226 73.3548C35.3033 73.4618 35.9164 73.2417 36.8161 72.9369C39.0939 72.1655 40.0325 71.0711 40.8209 70.4177C41.7559 69.6429 42.6681 67.2384 43.4828 65.5129C43.8378 64.7611 44.5315 63.732 45.519 62.0692C46.6946 60.0898 46.7181 59.2659 46.9696 58.4394C47.1748 57.7651 47.2184 57.0237 47.4371 56.0963C47.8923 54.1654 48.4064 53.3246 49.0687 52.5856C49.7942 51.7762 50.5323 51.4997 51.1834 50.6492C51.9633 49.6304 52.5957 48.6655 53.3236 47.3951C53.546 47.007 53.4594 46.4435 53.3949 46.1039C53.297 45.5885 52.9136 45.3847 52.6462 45.2182C52.3706 45.0466 51.9497 45.0135 51.4798 45.0393C51.2475 45.0521 51.0402 45.1735 50.8946 45.3478C50.3039 46.0549 50.5629 46.9359 50.4432 47.758C50.341 48.4603 50.2044 49.1341 49.8403 49.8097C49.5692 50.3126 49.245 50.7201 49.0067 50.8861C48.116 51.5066 48.628 47.9558 49.5154 45.8362C50.0138 44.6457 50.5486 44.0279 50.8819 43.4185C51.7174 41.891 51.0608 38.6857 51.025 37.6627C50.9744 36.2147 50.3809 34.2146 50.1351 33.0598C49.9208 32.0536 48.8086 31.0388 48.2797 30.3952C48.0438 30.1081 47.7042 30.0056 47.2767 29.958C46.0111 29.817 45.013 30.2913 44.2284 30.1144C43.8343 30.0255 43.5882 29.6514 43.403 29.3795C43.3123 29.2464 43.3045 29.0784 43.377 28.9712C43.9903 28.0643 45.9388 28.7285 46.2127 28.6117C46.4689 28.5024 46.4048 27.4948 46.3612 26.303C46.3375 25.6561 46.0251 25.3937 45.7733 25.2099C44.9893 24.6376 42.8268 24.6638 41.7102 24.7938C40.7093 24.9103 39.6307 24.9836 38.9247 25.2545C38.1825 25.5393 37.557 25.7367 36.891 25.5617C36.0595 25.3432 35.8663 23.711 35.5537 22.7964C35.3366 22.161 34.8158 21.6835 34.2231 21.1412C33.6295 20.5982 32.7235 20.6918 32.2527 20.7576C31.3646 20.8817 30.8116 22.6205 30.1353 23.3507C28.9982 24.5783 27.8502 25.6978 27.226 26.3546C26.6905 26.918 25.6064 25.6519 24.6594 25.2056C23.8516 24.825 23.3066 24.6272 23.0513 24.6851C22.4423 24.8231 22.8193 25.8774 22.6395 26.1205C22.4397 26.3908 21.8665 26.3105 21.365 26.2274C20.4369 26.0734 20.518 24.775 20.4065 24.4732C20.1294 23.7229 17.948 23.9208 17.0353 24.3525C15.9492 24.8663 15.9901 26.2218 15.659 26.7722C15.3254 27.3268 15.0174 27.6958 14.7126 27.8542C13.9467 28.2525 13.161 27.3998 12.0634 26.5322C11.278 25.9115 9.80341 26.3289 9.00473 26.7825C8.20374 27.2375 7.96358 28.3041 7.84444 29.2042C7.6554 30.6323 8.01536 31.4752 8.39082 32.7228C8.68375 33.6961 9.16242 36.667 9.02064 38.8029C8.7679 40.6179 8.47267 42.505 8.45108 43.593C8.44374 43.9035 8.44374 43.7235 8.47686 43.5044" stroke="black" stroke-linecap="round"/>
<path d="M6.82183 50.1435C6.6563 49.786 5.38212 48.1859 4.16836 47.1216C3.68232 46.6954 2.90332 45.8139 1.96548 44.1452C0.752572 41.987 1.00437 40.0154 1.05834 39.4044C1.14968 38.3704 2.31606 37.4933 2.47607 36.6632C2.81648 34.8973 2.52113 32.4279 2.14675 30.4883C1.94178 29.4263 1.91247 28.2995 1.90678 25.9249C1.90312 24.3967 3.06188 23.2318 4.04458 20.3004C4.78756 18.0841 4.49466 16.3558 4.77682 15.8191C4.96862 15.4543 5.43956 15.4043 5.79737 15.2407C6.54528 14.8987 6.53597 12.7214 7.03564 10.7184C7.32131 9.57324 7.82247 8.86922 8.19571 7.96879C8.37235 7.54264 8.73691 7.22936 9.1136 6.9266C9.49264 6.62195 10.1044 6.53778 10.7279 6.57846C11.6913 6.64131 12.3022 7.69978 13.5547 7.90774C13.9296 7.96997 14.3345 7.93418 14.6159 7.68374C15.8214 6.61088 17.104 4.94379 18.843 3.66317C19.5801 3.12037 21.5905 2.52639 24.5181 1.83267C27.0165 1.24067 28.994 1.21763 31.6089 1.16922C33.4632 1.13489 36.387 1.024 37.9665 1.00193C39.6926 0.977828 39.9971 1.18339 40.3104 1.37313C40.4711 1.47043 40.6307 1.57731 40.3788 1.63824C39.4808 1.85555 38.6849 1.86941 38.6309 2.13255C38.6059 2.2542 38.8054 2.34767 39.0506 2.39634C40.6618 2.71612 43.0855 2.02185 45.6061 2.5305C48.5691 3.12845 49.9282 3.90034 50.4799 4.42135C50.828 4.75011 50.9826 5.17651 51.1147 5.48436C51.2607 5.82471 51.2367 6.25152 51.021 6.69762C50.5999 7.56853 49.8977 7.89352 49.7898 7.93645C48.4685 8.46181 51.9072 6.87876 53.0274 6.86633C54.7297 6.84744 56.8491 8.99692 57.8214 9.83747C59.0763 10.9222 60.225 12.8083 60.8682 13.867C61.6412 15.1391 57.1192 13.3469 55.2265 12.4823C54.7707 12.274 56.9649 14.2521 57.8306 15.0973C58.3092 15.5647 60.248 17.4153 62.1181 19.693C63.7912 21.7308 63.906 22.5429 63.955 22.8396C62.5804 22.8995 61.154 22.4439 60.1427 22.0301C59.749 21.88 59.5979 21.8515 59.2393 21.7198" stroke="black" stroke-linecap="round"/>
<path d="M59.3174 24.0409C59.2823 24.4372 58.6289 26.5516 57.874 28.0592C57.5518 28.7026 57.0072 29.0926 56.8181 29.4676C56.4688 30.1602 57.8445 30.8026 59.0256 32.103C59.7596 32.9111 60.1434 33.6885 60.2339 34.0226C60.3955 34.619 58.2019 33.351 56.8943 33.0447C56.6791 32.9944 56.4933 32.9739 56.3801 33.0399C56.1395 33.1801 56.2075 33.6364 56.2772 33.9927C56.406 34.6508 57.1546 35.0203 58.6506 35.8487C59.5394 36.3409 60.1516 37.0428 60.4033 37.4993C60.8256 38.2652 57.919 37.0476 56.7291 36.6942C56.4178 36.6018 55.9244 36.6778 55.8291 36.7855C55.5741 37.0735 56.927 37.8641 57.7163 38.7639C58.4469 39.5967 56.2933 41.0644 55.2998 41.6819C54.4985 42.1799 53.5663 41.7323 53.4102 41.6616C52.5801 41.2856 55.0166 41.7964 55.1904 41.8235C54.5402 41.9 53.2067 41.9777 51.7226 42.0144C51.1741 42.0511 51.041 42.1245 50.8677 42.2001" stroke="black" stroke-linecap="round"/>
<path d="M50.8677 42.2001C50.8677 42.9056 50.759 44.8233 50.5943 45.6838C50.5383 45.9268 50.5383 45.7767 50.6111 45.5318C50.6839 45.287 50.8295 44.9521 50.9795 44.607" stroke="black" stroke-linecap="round"/>
<path d="M27.4559 63.7215C27.4774 63.7215 28.0069 63.7215 28.9163 63.6968C29.3072 63.6721 29.5549 63.6227 29.9421 63.5531C30.3294 63.4834 30.8486 63.395 31.4977 63.3039" stroke="black" stroke-linecap="round"/>
<path d="M38.7022 61.1135C37.3964 60.2691 34.9345 59.0073 34.253 58.6427C33.2601 58.1116 32.3086 57.501 31.5702 57.263C30.5372 56.9301 29.1511 57.0084 28.4753 56.7439C27.8961 56.5172 27.0141 56.752 25.13 57.3603C24.0385 57.7126 22.9236 58.1843 21.7887 58.6147C20.8439 58.9731 20.0799 59.4712 19.6342 59.9381C19.5454 60.0311 19.68 60.2084 19.8164 60.3104C20.4785 60.8056 23.2788 60.645 25.2484 60.4545C27.3768 60.2487 30.5027 59.8104 32.5239 60.0115C33.8425 60.1427 34.9977 60.7113 36.0612 60.9105C36.5513 60.9327 37.3584 60.9341 37.8614 60.9522C38.3645 60.9702 38.539 61.005 38.5112 61.1177" stroke="black" stroke-linecap="round"/>
<path d="M32.9552 58.9226C32.5869 58.9226 29.3997 58.4553 25.7266 58.279C25.113 58.3434 24.7966 58.4722 24.5143 58.6029C24.2321 58.7336 23.9935 58.8622 23.581 59.0794" stroke="black" stroke-linecap="round"/>
<path d="M23.4585 51.0431C23.4585 51.0217 23.4585 50.6401 23.5352 50.0788C23.5631 49.875 23.7654 49.8879 23.8514 50.0143C23.9375 50.1407 23.9515 50.3935 23.8714 50.5448C23.7913 50.6961 23.6166 50.7382 23.4366 50.7324C23.2567 50.7266 23.0767 50.6716 22.9634 50.5711C22.7468 50.3791 22.7664 50.0042 22.8355 49.6712C22.9803 48.9738 24.1186 49.045 24.7447 48.7334C25.3101 48.4519 25.2823 47.7653 25.3534 47.6691C25.5121 47.4542 25.0379 48.2599 24.8679 48.5725C24.6705 48.9354 24.796 49.3517 24.9667 49.6043C25.3708 50.2022 26.1581 50.4387 26.6417 51.0966C27.1438 51.7795 27.9083 52.0409 28.8403 52.2772C30.3241 52.6535 31.1438 51.9952 31.8062 51.5339C32.4522 51.084 32.839 50.5674 33.417 50.4699C35.0679 50.1917 30.9908 50.7819 30.7923 50.8793C30.1985 51.1705 32.2219 50.6598 32.6502 50.7431C32.8127 50.8263 32.8636 50.9928 32.9154 51.15C32.9672 51.3071 33.0184 51.4498 33.0711 51.6317" stroke="black" stroke-linecap="round"/>
<path d="M35.2177 32.8236C35.753 32.8236 37.4021 32.7182 39.3106 32.4164C41.8993 32.0071 42.8529 32.6986 43.9003 33.2579C44.8464 33.7631 45.1524 34.2202 45.2759 34.4047C45.7601 35.1285 43.1482 33.9597 41.1664 33.4206C40.3279 33.2738 38.7823 33.2376 36.8616 33.2586C36.1338 33.2796 35.9072 33.3216 35.5933 33.6605" stroke="black" stroke-linecap="round"/>
<path d="M23.5922 32.6077C22.0552 32.6077 18.3947 32.676 17.2649 32.8362C14.6694 33.5363 12.9344 34.1194 12.5806 34.3466C12.3971 34.4758 12.2058 34.6333 11.8408 34.8844" stroke="black" stroke-linecap="round"/>
<path d="M23.9684 39.2266C23.6998 39.1421 22.2382 38.5481 21.2223 38.1804C20.4926 37.9162 17.6895 37.8211 15.7782 37.9426C14.8865 38.2103 14.0269 38.6198 13.6282 38.8835C13.4418 39.0004 13.2877 39.083 12.9617 39.2107" stroke="black" stroke-linecap="round"/>
<path d="M37.5003 39.0054C37.5003 38.9839 37.3172 38.8327 37.1209 38.5794C36.9705 38.3853 39.3474 38.2997 42.4095 38.3363C44.4648 38.64 45.0854 39.0481 45.4107 39.4009C45.5684 39.5862 45.7109 39.7844 45.8464 40.176" stroke="black" stroke-linecap="round"/>
<path d="M40.2443 39.8666C39.8079 39.8666 38.475 40.1005 37.9887 40.4996C38.8447 40.6178 40.0235 40.5185 40.44 40.2988C40.641 40.1786 40.8205 40.0404 41.1706 39.8548" stroke="black" stroke-linecap="round"/>
<path d="M22.7582 38.644C22.6747 38.4723 22.2458 37.9824 21.6568 37.707C21.4941 37.6464 21.3196 37.5804 20.8804 37.5393C20.4412 37.4982 19.7426 37.4839 18.707 37.4261" stroke="black" stroke-linecap="round"/>
<path d="M18.7495 38.1684C18.6804 38.3741 18.4269 39.0629 18.3934 39.8207C18.3858 39.9916 18.5556 40.0951 18.6888 40.1662C19.4356 40.5647 20.5153 40.2092 20.8187 40.0003C20.9616 39.9019 20.9963 39.7167 20.9053 39.574C20.8143 39.4313 20.5746 39.3107 20.3747 39.2352C20.1748 39.1597 20.022 39.1329 19.829 39.1054" stroke="black" stroke-linecap="round"/>
</svg>
