<svg width="58" height="85" viewBox="0 0 58 85" fill="none" xmlns="http://www.w3.org/2000/svg">
<path d="M16.6481 84.214C16.6481 83.112 16.4226 80.7148 15.8698 80.2335C15.5558 79.9601 15.3815 79.624 15.3378 79.2413C15.2361 78.35 15.8112 77.6309 16.1682 76.8639C16.2327 76.6864 16.2779 76.5301 16.3083 76.0574C16.3387 75.5848 16.3529 74.8006 16.4878 73.885" stroke="black" stroke-linecap="round"/>
<path d="M44.9668 81.9477C44.8385 81.8277 44.4831 81.3099 44.1577 80.7594C43.7054 79.994 43.8213 78.686 43.7359 77.9486C43.6404 77.1244 43.0107 76.1129 42.7259 75.3797C42.4052 74.554 42.5867 73.4281 42.5933 72.6928C42.3354 71.9639 42.0896 71.5252 41.8959 71.248C41.7885 71.1069 41.6625 70.9647 41.3431 70.7447" stroke="black" stroke-linecap="round"/>
<path d="M2.97906 28.7635C3.0456 29.105 3.24346 30.0992 3.32709 30.7962C3.41877 31.5602 3.45021 34.7333 3.5443 36.8234C3.6225 38.5605 3.83039 39.1845 3.97337 39.8386C4.11965 40.5078 4.19316 41.1508 4.38559 41.7447C4.62052 42.4698 4.90964 43.4142 5.05689 44.1841C5.18058 44.8308 5.26426 45.5029 5.35387 46.4616C5.52531 48.296 5.5979 49.0559 6.10088 50.2076C6.42516 50.9502 6.73532 51.6012 6.8345 52.35C6.9553 53.2621 6.98486 56.3192 7.20526 58.5367C7.28459 59.335 7.49536 60.0197 7.65757 60.9378C7.78523 61.6604 7.8494 62.4166 8.07894 63.385C8.2566 64.1345 8.75063 64.7202 9.30213 65.5036C10.2397 66.8354 10.7998 67.4652 11.1809 68.2212C11.6138 69.0798 12.1365 69.5566 12.7493 70.1428C13.5863 70.9435 14.3295 71.5892 14.9101 72.0715C15.5085 72.5686 16.2384 72.9393 16.996 73.3763C17.6659 73.7627 18.3438 74.0667 18.9767 74.3696C19.8043 74.7658 20.9518 74.9617 21.6478 75.1188C22.326 75.2719 23.0418 75.3772 23.7335 75.5018C24.4514 75.6311 25.3398 75.6699 26.0578 75.7598C27.2328 75.9068 28.9939 75.8703 29.6407 76.0198C30.2723 76.1659 32.9815 76.2841 34.839 76.0556C36.0193 75.9104 36.4937 75.3045 37.0429 74.9488C37.6112 74.5808 38.1899 74.2814 38.5446 73.7081C38.9177 73.1052 38.8959 72.3998 39.4211 71.8206C39.9583 71.2281 40.6292 70.9233 41.4531 70.0521C41.9885 69.4861 42.4852 68.8835 43.0123 68.3762C43.6636 67.7496 44.0875 67.1884 44.4374 66.445C44.7263 65.8312 44.9724 65.2088 45.255 64.1848C46.066 61.2462 45.9249 58.8487 46.3107 57.6386C46.5541 56.8752 46.9546 56.2307 47.1471 55.4929C47.4081 54.4923 47.2866 53.0224 47.3975 52.2615C47.5141 51.4622 47.6512 50.2099 47.3657 48.8311C47.2824 48.4113 47.2641 47.2841 47.2499 45.7623C47.2357 45.192 47.2072 45.0319 47.178 44.7933" stroke="black" stroke-linecap="round"/>
<path d="M47.1426 39.1386C47.1602 38.9353 47.4277 38.1207 47.7 37.3221C47.9685 36.5346 48.5841 35.9457 49.1143 35.569C49.71 35.1459 50.4857 35.1612 51.2596 35.0068C51.5195 34.9549 51.8767 34.9638 52.1076 35.0184C52.7564 35.1717 52.8217 36.1035 52.9052 36.9507C53.0779 38.7034 52.5927 40.0751 52.4741 40.9724C52.3597 41.8375 52.2563 42.7191 51.9499 43.9926C51.7532 44.8102 51.4611 45.4587 51.3833 46.1935C51.2899 47.0748 51.2848 48.2257 51.2218 49.4937C51.0892 52.1614 50.8364 53.3398 50.4611 54.2173C50.3295 54.525 49.7998 54.6041 49.2273 54.6007C48.8296 54.5334 48.5342 54.3848 48.2526 54.1962C48.1093 54.1049 47.965 54.0226 47.909 53.7008" stroke="black" stroke-linecap="round"/>
<path d="M48.8752 34.325C48.8423 34.0263 48.9682 32.7727 49.3291 31.6705C49.6976 30.5449 50.0831 29.5982 50.2718 28.9133C50.3687 28.5616 50.4438 27.5579 50.4914 25.0625C50.5716 20.8663 50.4933 18.1228 50.3305 17.7447C49.8465 16.6208 49.7899 14.6059 49.5734 13.3796C49.4146 12.48 48.9787 11.7883 48.3095 11.028C47.6733 10.3052 46.8034 10.2628 46.1948 9.85426C45.4415 9.34863 44.7905 8.609 43.8603 8.06373C42.9003 7.50104 41.6748 6.7988 41.0004 6.42134C39.9045 5.80798 38.8478 5.24861 37.9389 4.73647C37.154 4.29429 36.3762 3.87512 35.7728 3.55642C34.9807 3.13804 33.6667 1.80535 32.7575 1.16294C32.2128 0.778103 31.0993 0.782316 29.9386 0.996063C28.8789 1.1912 27.5612 1.67176 26.2823 2.07141C25.4226 2.34006 24.3972 2.70186 21.2026 3.23753C20.004 3.43851 19.229 3.66714 18.362 4.04013C17.3544 4.47364 16.6426 4.80361 15.8401 5.06724C15.1767 5.28513 14.6269 5.69205 14.1165 6.14915C13.7627 6.46597 15.3159 5.11026 16.1517 4.6939C16.8435 4.34928 17.5455 4.33395 18.263 4.25679C19.1351 4.16299 20.1029 3.98384 20.8511 3.9086C21.7636 3.81685 22.6629 3.64954 23.6872 3.58654C26.4056 3.41936 28.8893 3.79353 30.0276 4.23592C30.3976 4.43075 30.9626 4.76184 31.3352 4.96951C31.7078 5.17719 31.8709 5.25142 32.0742 5.3632" stroke="black" stroke-linecap="round"/>
<path d="M14.2174 6.51721C13.8896 6.70674 12.6347 7.5626 11.2527 8.44173C10.3663 9.00564 8.99397 9.60434 7.98003 10.2931C7.15321 10.8548 6.68877 11.4503 6.60473 11.753C6.57599 11.8564 6.78463 11.8637 6.95058 11.8054C7.7211 11.5345 10.2067 9.70843 11.7816 8.70169C12.1438 8.48414 12.501 8.29016 13.0583 8.17746C13.4547 8.13445 14.0817 8.12024 14.7277 8.10559" stroke="black" stroke-linecap="round"/>
<path d="M7.57787 11.2823C7.51219 11.4488 7.29642 12.097 7.16207 12.7238C7.12897 12.8782 7.21775 13.0377 7.15481 13.1206C6.80618 13.5799 5.94817 12.8542 5.27451 12.7193C4.9168 12.6476 4.57625 12.7818 4.31724 12.9698C3.7921 13.3511 3.66032 14.291 3.3564 15.163C2.76415 16.8624 2.18817 18.9881 1.97435 19.954C1.82511 20.6281 1.5951 21.2501 1.33616 21.8465C1.23262 22.5333 1.17409 23.2719 1.10209 23.9769C1.08735 24.1621 1.08735 24.3582 1 24.9382" stroke="black" stroke-linecap="round"/>
<path d="M1.48877 31.345C1.48877 30.2812 1.60801 27.7196 1.87049 26.8848C2.18107 25.8969 2.85058 25.2429 3.55136 24.529C4.28482 23.7818 4.20906 22.3988 4.44941 21.5004C4.55356 21.1111 4.93624 20.8974 5.25802 20.7104C5.43477 20.6077 5.70379 20.6301 5.90465 20.6941C6.64953 20.9317 6.96972 21.9314 7.52999 22.4676C7.79769 22.7237 8.50454 22.7495 9.35389 22.6557C10.6417 22.5134 10.8818 21.1792 11.1002 20.4549C11.2687 19.8962 11.1814 19.3499 11.3198 19.0053C11.6308 18.231 13.6914 17.6447 15.0287 17.5341C15.9292 17.4597 16.3594 18.7103 17.1747 18.9156C17.8905 19.0959 18.4942 18.0162 18.8978 17.4179C19.0715 17.0929 19.2038 16.7713 19.3354 16.5005C19.4216 16.3758 19.5471 16.2769 19.8314 15.9829" stroke="black" stroke-linecap="round"/>
<path d="M21.0292 15.2506C21.04 15.2506 21.0509 15.2506 21.1517 15.2839C21.2526 15.3171 21.4431 15.3837 21.6363 15.4529C21.8295 15.5221 22.0196 15.592 22.5727 15.752" stroke="black" stroke-linecap="round"/>
<path d="M21.2111 15.1699C21.37 15.1699 22.1143 15.3314 22.9452 15.7839C23.1326 15.886 23.2559 15.976 23.4224 15.9499C24.4238 15.7931 25.1387 12.8055 25.6403 10.9732C25.748 10.58 25.759 10.2645 25.8186 10.0776C26.3885 11.247 27.1634 15.0819 27.3774 17.0684C27.3971 17.4165 27.3971 17.7518 27.5843 18.4196" stroke="black" stroke-linecap="round"/>
<path d="M29.8392 14.2342C29.817 14.2342 29.9679 14.28 30.2858 14.4655C31.0752 14.9262 30.9449 15.8832 31.1503 16.7058C31.2114 16.9501 31.2036 17.2362 31.3105 17.3599C31.4174 17.4836 31.613 17.4413 31.7875 17.3457C32.6004 16.9002 33.0178 15.9484 33.2178 15.2636C33.3393 14.8476 33.3706 14.4621 33.6098 14.2491C33.8984 13.9921 34.3805 14.2157 34.7225 14.3881C35.0939 14.5753 35.3472 14.8641 35.5224 15.1467C35.7196 15.4648 35.7554 16.0868 35.8425 16.7386C35.8763 16.9914 36.104 17.0332 36.3032 17.0614C37.1173 17.177 37.614 16.7455 37.9067 16.6723C38.0626 16.6333 38.2525 16.755 38.401 16.8622C38.9848 17.2837 38.9415 18.5995 39.3024 19.5914C39.5475 20.2653 39.8114 20.7753 39.8456 21.0673C39.9216 21.7156 39.0434 21.8668 38.839 21.9526C38.2534 22.1986 38.8783 20.0708 38.5542 18.9833C38.482 18.7413 38.3286 18.5227 38.243 18.4748C38.1573 18.4269 38.1034 18.5724 38.2401 18.7502C38.9598 19.6858 39.6751 19.6842 39.8573 20.0192C40.3401 20.907 39.6873 21.5807 39.7148 22.0244C39.7271 22.2221 39.8546 22.348 40.0033 22.4428C40.6308 22.8432 41.1719 22.8243 41.3738 23.089C41.8475 23.7099 41.5597 24.6199 41.6515 25.0995C41.6889 25.2948 41.9269 25.3162 42.1169 25.3208C42.8622 25.3391 43.354 25.0777 43.628 25.1756C43.9182 25.2793 43.6491 25.8129 43.596 26.089C43.4751 26.7174 44.7027 26.9533 45.0618 27.5377C45.1612 27.6993 45.1056 27.9458 45.0579 28.1212C45.0102 28.2965 44.9149 28.4169 44.7999 28.4248C44.6849 28.4326 44.5532 28.3242 44.4676 28.1725C44.1022 27.5251 44.0937 26.8845 43.8789 26.673C43.6914 26.4883 43.6616 27.2497 43.7337 27.6028C43.8216 28.0326 44.0287 28.3865 44.2219 28.646C44.6394 29.2067 45.4749 29.1857 46.1068 29.7065C46.3794 29.9312 46.4248 30.3151 46.4921 30.6532C46.6454 31.4235 45.7567 32.2591 45.7329 33.1775C45.8469 33.6175 45.971 34.0403 46.0606 34.4347C46.1045 34.6172 46.1449 34.7641 46.2297 34.9496" stroke="black" stroke-linecap="round"/>
<path d="M30.2759 29.4168C30.4318 29.2595 31.0768 28.7512 31.7288 28.4163C32.4878 28.0265 33.4725 28.0352 34.5866 27.738C36.2977 27.2815 39.1332 27.6737 39.8259 27.9242C40.4547 28.1515 40.9606 28.6659 41.3124 29.3636C41.4501 29.6369 41.3771 30.1102 41.3019 30.389C41.2267 30.6678 41.0619 30.7671 40.6661 30.8182C38.8809 31.049 38.1973 30.4839 37.512 30.1921C36.8202 29.8976 35.979 29.6404 35.2288 29.3726C34.5984 29.1476 33.9236 29.1105 33.4784 29.0658C32.9496 29.0127 34.5919 28.4174 35.1852 28.2253C35.4721 28.1324 35.9903 28.2819 36.5669 28.3432C36.8889 28.5271 37.1104 28.751 37.3687 28.9553C37.5032 29.0621 37.6448 29.1752 37.9569 29.4138" stroke="black" stroke-linecap="round"/>
<path d="M11.5443 31.3827C12.1979 31.3827 13.7835 31.3184 14.5014 31.206C15.5548 31.0411 16.4572 30.9882 17.359 30.9265C17.7963 30.8974 18.1958 30.8682 18.5368 30.8328C18.7061 30.8119 18.8675 30.7848 19.2152 30.757" stroke="black" stroke-linecap="round"/>
<path d="M19.2152 30.757C19.2437 30.5584 19.3298 29.1537 18.9909 28.2433C18.6777 27.402 17.3623 27.6439 16.3932 27.5742C14.5543 27.442 13.8424 27.8624 13.1531 28.2185C12.4936 28.5592 12.1313 29.287 11.6738 29.8821C11.1728 30.5338 10.5287 30.899 9.95013 31.3626C9.55748 31.7336 9.21039 32.1045 8.95134 32.4515C8.81747 32.6463 8.67868 32.8791 8.40466 33.4845" stroke="black" stroke-linecap="round"/>
<path d="M10.093 38.3178C10.093 38.2957 10.093 37.9408 10.1631 37.364C10.2553 36.6063 11.5036 36.6595 12.4068 36.6164C14.3178 36.5252 15.0153 36.2354 15.6935 35.9069C16.3813 35.5738 16.9737 35.0408 17.4892 34.5449C18.1306 33.9278 18.9876 34.7996 19.5798 35.1117C20.148 35.5316 20.6541 36.0247 20.9568 36.323C21.0912 36.4669 21.1868 36.5956 21.2852 36.9573" stroke="black" stroke-linecap="round"/>
<path d="M31.8948 36.447C32.1095 36.447 32.8609 36.3471 33.5646 36.107C34.2987 35.8565 35.0498 35.3005 36.0042 34.9804C38.0002 34.3107 38.5684 35.5734 39.1951 35.8755C39.9065 36.2183 40.6518 36.0474 41.2813 36.2608C41.5923 36.3663 41.8074 36.6301 41.9753 36.8971C42.1401 37.1591 42.2082 37.4794 42.1886 37.701C42.1681 37.9328 41.6297 37.6641 41.3669 37.518C41.0964 37.3677 41.019 36.9675 40.6144 36.7817C39.3975 36.7751 38.9107 36.888 38.5149 36.7468C38.3314 36.6766 38.1829 36.6095 37.9121 36.103" stroke="black" stroke-linecap="round"/>
<path d="M36.3888 36.6272C36.319 36.546 35.781 36.3419 34.9248 36.3253C34.7687 36.3222 34.7341 36.4681 34.7131 36.5746C34.692 36.681 34.692 36.7921 34.7286 36.8858C34.8911 37.3025 35.598 37.3915 36.0135 37.8018C36.3075 38.0921 36.4736 38.408 36.5505 38.506C36.8681 38.9102 35.3048 37.7113 34.8929 37.1861C34.7637 37.0213 34.7381 36.7329 34.7879 36.4234C34.9042 35.7011 36.7401 35.9778 37.3431 36.1975C37.8051 36.3658 37.8523 36.873 38.0039 37.3022C38.0724 37.4962 38.0957 37.7504 38.048 38.0332C38.0021 38.3056 37.597 38.3775 37.2224 38.439C36.2652 38.5963 35.5079 37.9969 35.0805 37.558C34.7364 37.2047 34.7849 36.7165 34.8418 36.4088C34.951 35.818 35.7743 35.8161 36.199 35.7525C36.3392 35.7316 36.5279 35.7451 36.6846 35.7931C36.9832 35.8844 37.1817 36.2393 37.3392 36.6136C37.4608 36.9027 37.4507 37.1769 37.3971 37.3975C37.3717 37.5024 37.2365 37.5483 37.1162 37.5777C36.9959 37.6071 36.8656 37.6071 36.7667 37.5753C36.3172 37.4308 36.2376 36.7014 36.2455 36.4577C36.2489 36.3554 36.3684 36.3177 36.4588 36.3713C36.6925 36.5096 36.7723 36.846 36.8132 37.0539C36.8313 37.146 36.7553 37.2177 36.7187 37.2088C36.682 37.1999 36.6644 37.1099 36.7078 37.0408C36.7512 36.9717 36.8562 36.9263 36.9287 36.948C37.0012 36.9698 37.0379 37.0601 37.0101 37.0579C36.4965 37.0174 36.452 36.1512 36.365 36.0957C36.3296 36.0731 36.3022 36.227 36.3138 36.3405C36.3253 36.454 36.3742 36.5645 36.4363 36.6532C36.4984 36.7419 36.5722 36.8053 36.6726 36.8707" stroke="black" stroke-linecap="round"/>
<path d="M14.2284 36.87C14.2284 37.0121 14.1713 37.4463 14.0955 37.893C14.0696 38.0456 14.0743 38.2539 14.1101 38.3924C14.2223 38.8265 14.9037 38.7913 15.4412 38.8349C16.3512 38.9086 16.7478 38.7142 17.5089 38.3654C17.6828 38.2857 17.7647 38.2167 17.821 38.1387C18.1129 37.7342 17.8675 36.9909 17.7788 36.4811C17.7584 36.3639 17.6615 36.2953 17.5406 36.2569C16.9823 36.0797 16.2613 36.6099 15.8359 37.0063C15.6873 37.1448 15.6531 37.3739 15.6191 37.5834C15.6026 37.6851 15.6186 37.7809 15.708 37.839C15.9351 37.9863 16.3921 37.9341 16.7784 37.8681C16.9287 37.8425 16.9343 37.6703 16.9387 37.5532C16.943 37.436 16.9327 37.3377 16.8844 37.2379C16.7803 37.0225 16.4939 36.8751 16.1822 36.7717C15.9317 36.6887 15.6172 36.7027 15.3229 36.7477C15.2094 36.765 15.2005 36.8825 15.1919 36.974C15.1748 37.1554 15.2346 37.3473 15.3614 37.5225C15.4246 37.6098 15.535 37.6524 15.647 37.6797C15.7589 37.7069 15.8818 37.7069 15.9746 37.6413C16.1778 37.4978 16.2143 37.2151 16.2545 36.9789C16.3097 36.6544 16.1967 36.3392 16.0132 36.1303C15.8135 35.903 15.3864 35.9194 15.0249 35.9481C14.87 35.9603 14.7816 36.034 14.7246 36.1127C14.6112 36.2695 14.6257 36.5467 14.6845 36.8288C14.7421 37.105 15.1695 37.2223 15.5105 37.3534C15.772 37.454 16.092 37.4652 16.3932 37.3049C16.5624 37.2149 16.5066 36.8242 16.5649 36.664C16.6232 36.5038 16.7313 36.5136 16.8086 36.5575C17.1172 36.7334 17.2156 37.0468 17.3005 37.0445C17.902 37.0275 17.195 36.1704 17.1747 36.0953C17.0818 35.7524 17.2718 36.7672 17.2713 36.9497C17.271 37.0417 17.1706 37.1183 17.0112 37.1596C16.6215 37.2605 16.1608 37.1885 15.835 37.2188C15.7042 37.231 15.6699 37.3592 15.6488 37.4546C15.6278 37.5501 15.6278 37.6402 15.6748 37.6998C15.7219 37.7595 15.816 37.786 15.9075 37.7604C15.9991 37.7347 16.0852 37.6561 16.1091 37.5682C16.133 37.4803 16.0921 37.3855 15.9972 37.3121C15.5101 36.9356 14.8527 37.0645 14.556 37.1033C14.4343 37.1193 14.3926 37.2199 14.3685 37.3173C14.3443 37.5295 14.4055 37.7705 14.5434 37.9965C14.6201 38.0997 14.7106 38.1799 14.9008 38.2624" stroke="black" stroke-linecap="round"/>
<path d="M22.4222 38.3058C22.6 38.5602 23.0783 39.2146 23.3709 39.891C23.6986 40.6484 23.8157 41.4538 23.9395 42.4614C24.205 44.6217 24.2423 45.5323 24.3324 46.6033C24.4763 48.3132 24.3525 50.8841 24.2327 51.7512C24.1326 52.4754 24.0249 53.1853 23.8437 53.955C23.7983 54.1477 23.6939 54.3073 23.5015 54.4011C23.3092 54.4949 23.0075 54.5106 22.7877 54.4464C22.5678 54.3822 22.4389 54.2375 22.3413 54.0804C22.2437 53.9233 22.1812 53.7581 22.2238 53.6238C22.2664 53.4895 22.4159 53.3912 22.5683 53.3802C22.8783 53.3578 23.1857 53.7213 23.3425 53.9725C23.6265 54.4277 22.1612 53.3466 21.3446 53.2797C20.6272 53.2209 20.5551 54.6284 20.4198 55.4393C20.3886 55.6264 20.4511 55.8058 20.5768 55.9434C21.1484 56.5692 22.0492 56.3671 22.6022 56.2704C23.1227 56.1794 23.3236 55.6133 23.4897 55.2784C23.6523 54.9504 23.7503 54.4605 23.6896 53.9392C23.5893 53.0772 21.9245 53.6823 21.6173 53.8657C21.3064 54.0514 21.3078 54.6155 21.3625 55.0725C21.3856 55.2654 21.59 55.3313 21.7679 55.3713C21.9458 55.4114 22.1398 55.4114 22.3041 55.3121C23.0187 54.8805 23.0364 54.1485 23.3044 53.9932C24.067 53.5513 24.8606 54.8461 25.5595 55.256C26.2451 55.658 26.9371 55.9075 27.507 56.0085C28.2851 56.1464 27.4337 54.4615 27.4495 53.8C27.4675 53.0496 28.9282 53.2105 29.6018 52.9058C29.939 52.7532 30.441 52.6851 31.0116 52.751C31.5189 52.8095 31.7294 53.3483 31.8886 53.6612C31.9694 53.8199 31.9993 54.0017 31.9601 54.1638C31.796 54.8416 30.9283 55.0951 30.1987 55.4679C29.9631 55.5882 29.585 55.5241 29.3849 55.417C29.1848 55.3099 29.1507 55.0958 29.1848 54.9167C29.2188 54.7376 29.322 54.6 29.5208 54.5292C29.7196 54.4583 30.0108 54.4583 30.2085 54.5377C30.4061 54.6171 30.5014 54.7759 30.5063 54.9352C30.5113 55.0946 30.4232 55.2496 30.3224 55.2635C30.2216 55.2773 30.1109 55.1453 30.0538 54.9901C29.9968 54.8348 29.9968 54.6603 30.0801 54.6021C30.1633 54.5438 30.3299 54.6072 30.337 54.6935C30.344 54.7798 30.1866 54.8873 30.0581 54.8705C29.7855 54.8349 29.7532 54.3623 29.6825 54.0613C29.6154 53.7759 29.0231 54.0531 28.6368 54.2728C27.7189 54.7949 27.3514 55.748 27.3094 56.0083C27.6368 55.8947 28.305 55.635 28.8302 55.4927C28.9518 55.4536 28.7792 55.4817 28.2216 55.7697" stroke="black" stroke-linecap="round"/>
<path d="M16.9094 60.5262C17.1578 60.5853 17.8913 60.9264 18.5263 61.312C19.1144 61.6692 20.9046 61.6114 22.1452 61.504C22.8997 61.4386 23.5244 60.9017 24.1487 60.4623C24.8304 59.9825 25.4045 59.9302 25.7389 59.9148C26.4806 59.8807 27.0179 60.6419 30.0737 60.6973C31.419 60.7218 32.3042 59.9634 33.5544 59.9186C33.8255 59.9089 33.9198 60.1465 33.9731 60.3707C34.0263 60.5949 34.0263 60.881 34.0333 61.1552C34.0403 61.4295 34.0542 61.683 33.4034 61.8207C29.9943 62.5415 29.3319 62.4297 28.5314 62.7275C27.1136 63.2552 26.0291 62.5987 25.2308 62.8172C24.5266 63.01 23.7944 62.4011 22.7532 62.3359C21.6102 62.2643 20.2226 62.4629 19.37 61.9889C18.9692 61.7661 18.6364 61.5503 18.5183 61.4494C17.5923 60.6582 21.4534 62.0689 22.6761 62.3538C23.7269 62.5986 25.1663 62.5698 26.5193 62.5179C26.8999 62.5033 26.6461 62.3621 26.3201 62.2497C25.6054 62.0032 25.0031 61.8225 24.8227 61.6847C24.6217 61.5312 25.6775 61.5275 26.0438 61.5275C26.5658 61.5275 24.6989 61.4571 24.3236 61.3423C23.6703 61.1425 25.9322 61.4952 26.3861 61.6985C26.5112 61.7545 26.29 61.8978 26.1025 61.9483C25.9149 61.9987 25.7337 61.9987 25.7339 61.9675C25.7364 61.3699 27.5549 61.7376 28.6003 61.9505C29.5812 62.1502 30.7219 61.935 31.555 61.4345C31.8918 61.2244 32.2655 61.1005 32.6853 61.0546C32.8848 61.0389 33.0566 61.0389 33.2337 61.0389" stroke="black" stroke-linecap="round"/>
<path d="M23.3639 67.1692C23.3883 67.1692 24.4657 67.1692 26.1586 67.1369C26.7867 67.1047 26.9457 67.0403 27.1163 66.9253C27.287 66.8104 27.4644 66.647 27.7834 66.4255" stroke="black" stroke-linecap="round"/>
</svg>
