<svg width="66" height="91" viewBox="0 0 66 91" fill="none" xmlns="http://www.w3.org/2000/svg">
<path d="M18.3777 88.233C18.5517 88.233 19.0381 88.1731 19.7863 87.864C20.5693 87.5405 20.9831 87.3299 21.4144 87.0993C22.0034 86.7844 22.7348 86.3818 23.1346 86.1487C23.5679 85.8961 24.0295 85.6081 24.7689 85.1698C25.0351 85.0119 25.0956 84.2796 25.1055 83.2907C25.1112 82.7328 24.7839 81.3195 24.3283 79.2463C24.1572 78.4154 24.1081 78.0334 24.0766 77.7204C24.0451 77.4075 24.0327 77.1751 24.0199 76.9357" stroke="black" stroke-linecap="round"/>
<path d="M50.621 89.8508C50.621 89.6219 50.512 88.996 50.1659 88.5728C49.9467 88.305 50.8525 88.8816 51.1202 88.9934C51.2319 89.0401 51.3294 88.9341 51.357 88.8353C51.3846 88.7366 51.3483 88.6144 51.2892 88.5056C51.23 88.3968 51.1491 88.305 51.0554 88.2677C50.8711 88.1942 50.6085 88.2705 50.3415 88.2238C49.7482 88.1198 49.3425 86.4436 49.0744 85.1164C48.6619 83.0745 48.8015 82.381 48.1281 80.1621C47.589 78.2253 47.4716 77.6546 47.38 77.3781C47.3308 77.2514 47.2764 77.1524 47.2202 77.0233" stroke="black" stroke-linecap="round"/>
<path d="M14.4589 59.1204C14.4589 59.7683 14.5326 61.4434 14.701 62.3275C14.8742 63.2363 15.3822 65.0462 15.6844 65.8298C15.866 66.3007 16.106 66.7915 16.3044 67.2438C16.5691 67.8475 16.7617 68.6055 17.0345 69.2605C17.3319 69.9747 17.9862 70.8984 18.4316 71.6113C18.8148 72.2247 19.1072 72.6913 19.4261 73.1656C19.8122 73.7399 20.6987 74.4943 21.2067 74.9657C21.8106 75.526 22.6032 76.0332 24.0052 76.763C24.8573 77.2066 25.6251 77.6059 26.1679 77.939C26.6342 78.2252 27.2956 78.3192 27.9289 78.4293C28.4552 78.5208 29.01 78.6128 29.5397 78.6746C30.0533 78.7346 31.5646 78.7861 32.7543 78.823C33.0352 78.8318 34.5853 78.8603 36.8837 78.853C38.427 78.848 38.9988 78.7287 39.6336 78.6608C40.2214 78.598 42.1137 78.2727 43.9345 77.8939C45.1038 77.6506 45.7575 77.1141 46.4922 76.7627C47.1356 76.4549 48.1593 75.8234 49.125 75.3004C49.9212 74.8691 50.2669 74.2338 50.6298 73.7861C51.124 73.1765 51.3704 72.732 51.7998 71.8186C52.1073 71.1644 52.3926 70.4104 52.8042 69.5494C53.5573 67.9741 53.7113 66.7655 53.9262 65.9739C54.3677 64.3474 54.5393 63.7673 54.7851 62.4394C54.8684 61.9897 54.9434 61.4561 54.9853 60.2404C55.0272 59.0248 55.0272 57.1421 55.0419 56.0719C55.0566 55.0017 55.0861 54.8012 55.1084 53.4265C55.1307 52.0518 55.145 49.5091 55.1585 48.1041C55.1771 46.1646 55.2538 45.6289 55.3487 45.006C55.4881 44.1507 55.5281 43.7532 55.563 43.4553C55.5782 43.292 55.5881 43.1043 55.6471 42.8854" stroke="black" stroke-linecap="round"/>
<path d="M55.422 45.4524C55.4896 45.5677 55.8698 46.0469 56.2778 46.6289C56.651 47.1612 56.8482 47.4425 56.8799 47.4965C57.0413 47.772 56.5293 46.8688 56.424 46.7775C55.9872 46.3991 56.4295 47.7782 56.5332 47.9146C56.8174 48.2884 57.5195 47.0548 58.1239 46.3855C58.6574 45.7948 60.8277 45.4302 62.2837 45.3284C62.4718 45.3153 62.5366 45.4639 62.5772 45.6916C62.6803 46.2712 62.5836 46.7855 62.0787 47.7585C61.6414 48.601 60.7824 50.1229 60.2292 51.089C59.464 52.4254 58.9939 53.1306 58.6346 53.7403C57.6923 55.3392 56.6636 57.7214 56.5572 57.9822C56.393 58.3845 57.2835 58.3568 57.4975 58.4186C57.6076 58.4503 57.732 58.4351 57.8985 58.2543C58.7129 57.3699 59.0243 56.2836 59.3731 55.5732C59.4862 55.343 59.6241 55.0924 59.5982 55.0729C58.6433 54.3544 58.3748 56.7069 57.7463 57.3885C57.4782 57.6792 57.2785 57.9131 57.1656 57.973C57.0518 58.0334 57.9088 56.4035 59.0745 54.3235C59.5704 53.4384 59.8368 52.8507 60.4228 51.693C61.2963 49.9673 62.0021 48.7848 62.1942 48.3217C62.4307 47.7515 62.6059 46.9968 62.5733 46.2605C62.5285 45.9723 62.4263 45.8577 62.3319 45.7639C62.2375 45.67 62.154 45.6004 62.068 45.5287" stroke="black" stroke-linecap="round"/>
<path d="M13.5739 58.7427C13.3437 58.7845 12.7518 58.9085 11.5671 58.9259C10.9327 58.9352 10.3296 57.9506 9.92598 57.277C9.35027 56.3163 9.35208 55.0312 9.26391 54.421C9.18636 53.8843 9.1061 53.0705 9.07227 51.6754C9.00692 48.9805 9.06062 47.0541 9.11738 46.7873C9.15448 46.6344 9.20841 46.4462 9.2745 46.3004C9.34059 46.1545 9.41721 46.0567 9.70125 45.8834" stroke="black" stroke-linecap="round"/>
<path d="M11.4258 38.2925C11.497 38.4111 11.8767 38.7569 12.704 39.166C13.4058 39.5131 13.8665 41.119 14.1597 41.8881C14.4685 42.6979 14.2322 39.7009 14.1826 39.5593C14.022 39.1008 14.3467 41.755 14.4992 43.5062C14.5132 43.6676 14.6539 42.4854 14.6147 42.0651C14.2649 38.3227 14.0813 46.6442 13.969 46.8254C13.9128 46.916 13.7912 46.9527 13.6687 46.8954C13.359 46.7505 13.0849 45.8675 12.7054 44.1637C12.1434 41.6405 12.0203 39.8046 11.8713 39.5133C11.4666 38.722 11.5508 42.0863 11.4485 43.3579C11.3758 44.2615 10.8478 45.0792 10.6326 45.5309C10.4261 45.9644 8.78841 45.9855 7.8764 45.7571C7.39184 45.6358 7.82975 44.7013 7.83916 44.1422C7.85282 43.3302 6.22095 42.9631 4.94988 42.4873C4.19972 42.2065 3.91406 41.9273 3.76331 41.7543C3.36589 41.2982 3.85609 40.2168 4.19766 39.5626C4.33242 39.3045 4.51647 39.0942 4.63006 38.7957C4.80171 38.3446 4.6152 37.7555 4.56276 37.3436C4.54411 37.1971 4.75973 37.1902 4.90194 37.2268C5.17951 37.2982 5.42671 37.509 5.60159 37.5427C5.80964 37.5827 5.06563 36.7368 4.11356 35.8145C2.16552 33.9273 1.31459 33.3384 1.0053 32.8414C0.91214 32.6916 2.06389 32.7507 3.08649 32.3455C5.16758 31.5209 2.64991 29.4052 2.67194 27.4971C2.68241 26.5907 3.76289 26.2995 4.21418 26.0689C4.66313 25.8394 5.3022 25.7664 6.90417 25.7462C7.38827 25.74 7.72983 25.7963 8.05766 25.7468C8.2838 25.7127 8.39242 25.4188 8.74367 25.2949C9.31343 25.0938 9.83568 25.2747 10.0724 25.4049C10.3357 25.5498 10.4731 25.8114 10.4896 26.0406C10.4982 26.1587 10.3701 26.2707 10.2435 26.3444C9.59052 26.7244 8.42109 26.4091 7.39288 25.8679C7.0455 25.6851 6.91797 25.396 6.82084 25.1045C6.69482 24.7262 6.82069 24.3658 6.96219 24.0993C7.25419 23.7445 7.71233 23.3903 8.18921 23.1575C8.39689 23.0743 8.53486 23.0619 8.89962 23.0863" stroke="black" stroke-linecap="round"/>
<path d="M7.84206 23.4031C7.8283 23.3083 8.13632 22.7205 8.53156 22.1507C8.89194 21.6312 9.4824 21.1808 10.2218 20.8656C10.7618 20.6354 11.2681 20.6671 13.3846 20.7055C14.5349 20.7263 15.1422 21.1312 15.1963 21.1799C15.7045 21.6384 13.1509 20.0083 12.1463 18.996C11.7133 18.5597 11.3657 16.6473 11.2461 14.3435C11.1859 13.184 12.2588 12.4698 12.7847 12.0783C13.6004 11.4708 14.5421 11.3328 15.7189 11.3197C16.0818 11.3156 16.2835 11.4782 16.4587 11.6383C16.8261 11.9738 16.9848 12.3827 17.1471 12.4667C17.6944 12.7501 17.1555 9.95873 17.3771 8.47177C17.5008 7.64188 18.8586 6.95918 20.3003 6.32346C22.0764 5.54027 22.7906 5.76306 24.27 5.7688C25.3495 5.77299 25.6487 6.52565 26.0141 6.97255C26.4544 7.51092 26.7615 8.40071 26.808 10.1253C26.817 10.4619 26.6946 10.539 26.5912 10.5399C26.4878 10.5409 26.3631 10.4616 26.2684 10.2303C26.0289 9.6455 26.0496 8.85386 26.0976 8.24247C26.1168 7.9985 26.2417 7.90524 26.3429 7.84015C26.8837 7.49221 27.8502 7.64721 28.8588 7.64428C29.8291 7.64147 31.8241 8.46566 32.7533 8.97028C33.5372 9.39602 33.7018 10.3258 33.7092 10.5688C33.7128 10.6867 33.613 10.7855 33.4742 10.852C32.732 11.2078 31.7117 10.7397 31.0439 10.2895C30.9677 10.2381 31.1119 10.1973 31.2498 10.2131C31.5484 10.2475 31.8803 10.3961 32.2876 10.5143C32.5143 10.5801 32.802 10.5741 32.9477 10.2332C33.8289 8.17052 32.8807 6.7792 32.9212 6.38579C33.0003 5.61776 35.5209 4.71801 37.137 4.17611C38.6947 3.65383 40.2773 4.04532 41.0991 4.41924C42.1692 4.9061 43.3379 5.44817 43.7934 5.58035C43.9354 5.62154 44.1311 5.60069 44.201 5.54993C44.7135 5.1781 43.2892 4.07878 42.9727 3.59671C42.6776 3.14714 43.7661 2.67257 45.3361 1.55963C46.1739 0.965748 47.082 0.985221 49.2242 1.00883C51.189 1.03049 51.6374 1.51329 52.304 1.79215C53.052 2.10503 53.8057 2.92689 54.4549 3.60736C55.0177 4.19729 55.2002 4.8677 55.3251 5.81614C55.6619 8.37397 55.0921 8.91752 54.7769 9.31192C54.6978 9.41083 54.5802 9.47659 54.5425 9.44339C54.0491 9.0087 55.9309 8.0232 56.7489 7.54683C57.4444 7.14172 58.5455 7.54128 59.4049 7.99225C60.0935 8.35359 60.4565 9.70934 60.6867 11.7961C60.7939 12.7674 60.7382 14.3566 60.6401 15.791C60.4567 18.4747 59.9708 19.8134 59.681 19.9517C59.3522 20.1086 58.8772 20.1032 58.4642 20.0271C57.8289 19.9101 58.1178 18.7686 58.1904 18.3333C58.3172 17.5725 59.5183 17.743 61.8761 17.7292C62.4897 17.7256 62.7159 17.9079 62.9377 18.0546C63.4733 18.409 64.3891 20.1829 64.7593 21.2974C64.9326 21.8191 64.9318 22.9078 64.7576 23.8334C64.7073 24.1005 64.5225 24.2762 64.3334 24.4373C63.6501 25.0193 62.1324 24.4881 61.8428 24.2755C61.1093 23.7373 63.4824 26.0233 64.1181 27.0246C64.4567 27.558 64.3842 28.4411 64.3643 29.3009C64.3568 29.623 64.2552 29.707 63.9225 29.7572C63.5898 29.8074 63.0037 29.8197 62.6499 29.8136C62.296 29.8075 62.1923 29.7828 61.9942 29.6714" stroke="black" stroke-linecap="round"/>
<path d="M42.9395 27.4237C43.1024 27.4746 43.6048 27.8179 44.0859 28.1692C44.6395 28.5735 45.5126 28.9634 47.0547 29.161C49.1055 29.4237 49.6244 29.078 50.6933 28.6839C51.0552 28.5504 51.2852 28.4762 51.4083 28.4957C51.8548 28.5664 50.5768 29.082 49.6364 29.8821C49.2315 30.2266 49.0642 30.5454 48.9556 30.7758C48.8409 31.019 48.831 31.6369 48.8604 32.4078C48.8768 32.8362 49.1444 33.0843 49.3977 33.3132C49.8748 33.7445 52.5541 33.7279 53.8308 33.5978C53.8775 33.5931 53.604 33.5385 53.4438 33.5715C53.1461 33.6329 52.9626 33.9058 52.8187 34.1877C52.6448 34.5283 52.6769 35.0912 52.7013 35.6324C52.735 36.3783 53.9394 37.223 54.6012 37.8713C55.1878 38.446 55.688 39.046 56.0588 39.4843C56.137 39.5766 56.2251 39.6444 56.2217 39.5622C56.1695 38.2737 54.6799 36.5698 54.5388 35.4045C54.5129 35.1912 54.626 35.0963 54.7334 35.0166C55.2137 34.6602 56.6761 34.7237 57.6048 34.8855C58.1588 34.982 58.827 35.3876 59.5403 35.7088C60.0026 35.917 59.8336 34.5246 59.8765 33.9331C59.911 33.4568 60.0489 32.9141 60.3992 32.3636C60.734 31.8373 61.7447 31.7667 62.5254 31.7925C63.1171 31.812 63.0049 33.644 62.8004 34.7724C62.6585 35.5552 61.8474 36.4881 61.2591 37.4257C61.0796 37.7118 61.2127 37.654 61.3971 37.5771C62.2591 37.2179 62.8494 37.2416 63.1241 37.276C63.2505 37.2919 63.3355 37.3794 63.391 37.4684C63.6188 37.8335 63.3036 38.4057 62.98 39.0626C62.7049 39.6208 61.8612 40.228 60.9252 40.8351C60.2827 41.2519 59.5841 41.8693 59.2185 42.2563C58.909 42.5839 60.2197 42.0724 61.0556 41.5627C61.5609 41.2545 61.7568 40.6696 62.2113 39.8654C62.6321 39.121 62.9555 38.5784 63.0212 38.4497C63.0713 38.3516 63.1088 38.8345 63.0891 39.1751C63.0408 40.0088 61.289 41.147 60.11 41.8211C59.7713 42.0148 59.4427 42.1558 59.3008 42.2322C58.1544 42.8488 62.041 40.5369 62.8349 39.5327C62.9994 39.3246 63.0415 39.1722 63.0547 39.1517C63.4735 38.5045 61.6803 41.2849 60.9406 41.9321C60.5853 42.243 59.5599 42.2323 58.4688 42.3872C58.0761 42.4429 58.0978 42.7924 58.1199 42.9807C58.1898 43.5748 58.6163 44.0913 58.8249 44.4943C58.8768 44.5946 58.9364 44.693 58.9947 44.6987C59.136 44.7125 59.0638 44.1503 59.0544 43.336C59.0525 43.1766 59.1842 43.118 59.2973 43.0847C59.4105 43.0513 59.5476 43.0513 59.6968 43.0464C59.846 43.0414 60.0031 43.0315 60.079 43.2751C60.1549 43.5186 60.1449 44.0159 60.1262 44.171C60.1184 44.2361 60.0381 43.6899 60.0098 43.4108C59.9781 43.0977 60.0801 44.1788 60.1619 44.6677C60.1868 44.8165 60.189 45.0031 60.2528 45.1095C60.4836 45.4951 61.0499 45.6943 61.2955 46.0753C61.423 46.273 60.9694 45.5989 60.9224 45.4626C60.9074 45.419 61.0808 45.4529 61.0459 45.4091C60.8664 45.184 60.4763 45.1178 60.2173 45.0991C59.5509 45.0508 58.7706 45.7461 58.066 45.9326C56.9021 46.2406 56.514 46.2926 56.3092 46.2405C55.719 46.0905 55.7818 44.8272 55.7462 43.6437C55.7387 43.3962 55.7759 43.243 55.737 43.2344C55.2436 43.1254 55.2742 44.1999 55.1895 45.0938C55.1793 45.5149 55.1793 46.1859 55.1867 46.5905C55.1941 46.9952 55.2088 47.1131 55.1147 47.1841" stroke="black" stroke-linecap="round"/>
<path d="M15.396 36.8472C15.396 36.6458 15.2235 36.0426 14.9176 35.5892C14.5069 34.9805 13.8947 34.2911 13.4964 33.7298C13.3629 33.5417 13.2269 33.3816 12.9788 33.3112C12.4052 33.1482 11.3574 33.9319 10.5049 34.1768C10.2009 34.2642 9.90696 34.1249 9.70103 34.0858C9.15524 33.9822 9.22231 35.38 9.12763 36.0049C8.98973 36.9149 9.10196 38.0174 9.23178 38.2062C9.48784 38.5785 10.0748 38.5504 10.5972 38.6039C10.8304 38.6278 11.0255 38.756 11.1202 38.8863C11.2121 39.0128 10.8204 39.1437 10.6248 39.343C9.78629 40.1975 10.4876 42.0774 10.7793 42.5088C11.0566 42.919 11.4834 43.105 11.7361 43.7628C11.8432 44.0415 11.8318 44.445 11.7501 44.9278C11.6746 45.3733 11.2167 45.5379 11.0839 45.5762C10.6675 45.6961 11.4909 44.6831 11.6178 43.7685C11.7036 43.1506 11.6855 41.8267 11.6289 40.8462C11.5837 40.0629 11.3598 39.3015 11.2044 38.4814C11.091 37.8831 12.6936 38.3882 13.2082 38.5387C13.5515 38.6391 13.8367 38.7456 13.9784 38.9235C14.2932 39.3185 14.3388 40.1094 14.4614 41.0269C14.5823 41.9318 14.6227 42.9975 14.7852 44.7687C14.836 45.5274 14.8634 46.2916 14.8868 47.1734C14.898 47.6241 14.9078 48.0812 14.9179 48.5522" stroke="black" stroke-linecap="round"/>
<path d="M11.3496 39.1041C11.2405 38.8459 10.8407 37.8294 10.6134 37.2537C10.4053 36.7264 9.99429 36.0342 9.76352 35.5472C9.65616 35.3207 9.65002 34.9933 9.6906 34.6473C9.70902 34.4903 9.81235 34.3879 9.91276 34.3047C10.5755 33.7551 12.1072 34.1631 13.4485 34.656C13.729 34.7591 13.8445 34.7649 13.9078 34.6071C13.9711 34.4494 13.981 34.1213 14.0177 34.0491C14.4463 33.2073 15.0987 36.0098 15.109 36.2004C15.1367 36.7101 14.0011 36.5691 13.1799 36.612C12.8308 36.6208 12.3041 36.6208 11.9685 36.5899C11.6329 36.5591 11.5044 36.4973 11.2399 36.2878" stroke="black" stroke-linecap="round"/>
<path d="M14.9725 29.1178C15.1808 29.1178 15.7977 29.1691 16.107 29.2733C16.19 29.3012 16.0699 29.3789 15.9308 29.4061C15.6282 29.4653 15.2932 29.3844 15.0007 29.3102C14.8674 29.2764 14.7572 29.2849 14.7014 29.5086C14.3304 30.9966 15.2233 32.1252 15.553 32.5786C15.7233 32.8128 15.9827 32.9507 16.409 33.0289C17.1793 33.1701 17.8411 32.9871 18.1247 32.8472C18.6482 32.5891 19.1802 31.831 19.44 30.9485C19.6443 30.2549 19.4158 29.7026 19.2327 29.5426C19.1418 29.4631 19.013 29.4422 18.9098 29.4932C18.3784 29.7559 18.5546 30.8446 18.6318 31.6078C18.6619 31.905 18.8635 31.9846 19.043 32.053C19.9521 32.3999 21.0359 32.1807 21.5305 31.9388C22.2094 31.6068 22.7505 30.2885 23.3134 28.8424C23.5318 28.2812 23.4941 27.4992 23.4579 26.7662C23.4451 26.5062 23.3002 26.4904 23.1846 26.4984C23.0689 26.5064 22.9504 26.5428 22.8084 26.7158C21.9893 27.7138 21.9732 29.1028 22.006 30.6832C22.0352 32.0901 22.7568 32.6106 23.209 33.0577C23.4511 33.297 23.7327 33.4079 23.9082 33.4433C24.3153 33.5255 24.2525 32.7131 24.4485 32.6165C24.9547 32.3671 25.4902 33.4153 25.6814 33.6653C25.9134 33.9687 25.334 32.5602 25.0049 31.9408C24.793 31.5418 24.4849 31.4437 24.2394 31.4062C24.1126 31.3868 23.9781 31.3934 23.8831 31.4524C23.3162 31.8045 23.7653 33.2635 24.0206 34.1207C24.2287 34.8191 24.8305 35.2737 25.2725 35.6199C25.6754 35.9355 26.0342 36.2252 26.71 36.6598C26.9239 36.7973 27.2055 36.8892 27.4538 36.9533C27.7021 37.0174 27.921 37.0297 28.2751 36.758C30.1084 35.3517 30.165 34.1939 30.1052 34.0099C29.9049 33.3935 29.0375 33.7999 28.8723 33.666C28.7904 33.5995 28.7778 33.471 28.7629 33.3381C28.748 33.2052 28.748 33.0553 28.8618 32.9912C29.8801 32.4173 31.5635 33.466 32.1756 33.4027C33.0742 33.3097 33.6018 31.3617 33.842 30.2485C33.9743 29.6352 33.8126 29.111 33.7035 28.8401C33.4843 28.2956 32.9627 28.0856 32.5104 27.7437C32.3435 27.6175 32.0789 27.4831 32.0028 27.4389C31.5421 27.1713 33.871 28.5531 35.8613 29.2513C36.2336 29.3819 36.3946 29.3512 36.5144 29.2871C36.9927 29.0308 36.9333 28.3482 36.942 27.0804C36.9468 26.3925 36.517 25.5163 36.1537 24.901C35.8315 24.3553 34.8682 24.2239 34.3548 24.1248C33.282 23.9177 34.8166 26.601 35.1703 27.2294C35.3313 27.5154 35.5914 27.6988 35.862 27.833C36.5796 28.1888 37.7881 27.9079 38.3315 27.6744C38.9183 27.4222 39.4661 26.5426 39.9919 25.4495C40.4905 24.4132 40.3671 23.8416 40.3475 23.0151C40.3402 22.7081 40.076 22.5448 39.8327 22.4312C39.0497 22.0655 38.0092 22.3085 37.5115 22.2773C37.4029 22.2705 37.3238 22.3989 37.2662 22.5182C36.8522 23.375 37.1986 24.7451 37.5136 25.155C37.6733 25.3627 37.9288 25.4811 38.1485 25.5045C38.8614 25.5806 38.6725 23.8952 38.6807 22.7367C38.683 22.4054 38.8253 23.8713 39.1241 24.512C39.1893 24.6518 39.3215 24.7483 39.3822 24.686C39.8439 24.2117 39.2917 23.3499 39.2093 23.131C38.9 22.3082 39.7239 24.7972 39.691 25.2032C39.611 26.1911 38.1748 27.0249 37.7103 27.3081C37.5208 27.3907 37.2332 27.4952 37.0224 27.5148C36.8116 27.5344 36.6864 27.4659 36.5575 27.3953" stroke="black" stroke-linecap="round"/>
<path d="M16.8533 39.4113C16.9024 39.2353 17.6024 38.4333 18.334 37.9946C19.0912 37.5405 19.7222 37.6895 20.9298 37.6705C21.7329 37.6579 22.4909 37.4775 23.2597 37.335C24.3239 37.1378 25.1997 36.9197 26.1676 36.8474C26.483 36.8239 27.4511 36.8026 28.7359 36.9908C29.8751 37.1576 29.2521 38.3777 29.2167 38.5839C29.1237 39.126 27.7995 38.6074 26.9101 38.4548C26.3387 38.3568 23.4546 38.3887 21.6257 38.4749C21.1194 38.4988 20.6329 38.832 19.9829 39.1527C19.371 39.4545 18.7845 39.7814 18.051 40.2911C17.5854 40.6147 18.4552 41.4335 18.604 41.7065C18.6713 41.83 18.7434 41.9107 18.8922 41.8776C19.3033 41.7859 20.6455 41.1288 22.6554 40.4487C24.0709 39.9697 25.1973 39.7456 26.2662 39.4478C27.3645 39.1419 28.4149 39.0982 29.0487 39.0761C29.231 39.0698 29.1255 39.0099 28.9475 38.9456C28.523 38.7923 27.7686 38.6029 26.3787 38.4162C24.225 38.1269 22.2915 38.3969 21.2542 38.658C20.1696 38.931 19.3004 39.4547 18.4363 39.9695C18.2816 40.0616 18.1967 40.1609 18.2176 40.1836C18.6383 40.641 19.6771 39.7096 21.1313 39.3613C22.1628 39.1142 24.1093 38.7848 25.376 38.5959C26.6427 38.4071 27.179 38.4071 27.519 38.4438C27.859 38.4805 27.9864 38.554 28.1176 38.6559" stroke="black" stroke-linecap="round"/>
<path d="M18.8354 42.9813C19.1591 42.9813 20.2384 43.1078 21.1662 43.3087C21.7031 43.425 23.8948 43.409 25.4528 43.3177C26.1434 43.2772 26.6468 43.076 27.0871 42.9766C27.7994 42.8158 28.8812 42.5025 29.4114 42.254C29.6487 42.1429 29.8581 42.01 30.0628 41.9426C30.1642 41.9093 30.2799 41.9673 30.3849 42.067C30.6246 42.2943 30.6946 42.6588 30.634 42.9247C30.5154 43.445 28.4596 43.3785 27.1556 43.6568C26.2661 43.8466 25.1564 44.4874 24.4703 44.843C23.7982 45.1912 21.4538 45.2046 19.7454 44.9402C19.0126 44.8267 18.644 44.1791 18.4456 43.7271C18.4025 43.629 18.5263 43.5389 18.6188 43.4936C18.7114 43.4484 18.8183 43.4415 18.9077 43.4823C19.3327 43.6762 19.7652 44.297 20.1936 44.62C20.6049 44.9302 19.8219 43.7654 19.78 43.6221C19.6657 43.2312 20.5921 44.0319 21.0519 44.1554C21.681 44.3244 22.3062 44.278 25.3278 44.2016C27.5788 43.676 27.9491 43.542 28.23 43.4057C28.3788 43.3285 28.5403 43.2351 28.853 42.9988" stroke="black" stroke-linecap="round"/>
<path d="M41.4205 37.4479C41.6102 37.4709 42.3169 37.4365 42.7971 37.4102C43.4872 37.3725 45.0413 37.2691 46.3802 37.1351C48.4307 36.9298 49.3392 37.3071 50.203 37.5619C50.7965 37.7371 51.1923 37.9801 51.5932 38.2889C52.0306 38.6259 52.2452 39.063 52.5029 39.5757C52.5659 39.7011 52.5842 39.8196 52.5176 39.9041C52.3518 40.1144 51.145 39.843 49.4355 39.4255C47.0326 38.8387 45.0304 39.17 44.3918 39.2931C44.109 39.3476 43.8088 39.4595 43.5209 39.5299C43.0817 39.6371 42.83 38.7551 42.4569 38.4094C42.2692 38.2354 41.9759 38.2491 41.8235 38.056C41.7504 37.9633 41.7183 37.858 41.753 37.8474C42.4133 37.6449 42.915 39.2139 43.294 39.652C43.4034 39.7784 43.5522 39.9128 43.7056 39.9941C43.8589 40.0755 44.0188 40.0939 45.3785 40.1034C46.7383 40.1129 49.2931 40.1129 50.5845 40.0418C51.876 39.9707 51.8266 39.8284 51.7568 39.6967C51.4551 39.1266 50.861 38.7513 50.0544 38.4857C49.7356 38.3806 48.1491 38.403 45.6856 38.464C44.6574 38.4895 44.0859 38.6473 44.4572 38.7151C47.9265 39.3487 49.0026 39.171 49.1388 39.2693C49.4653 39.505 46.8265 39.1552 44.3752 38.9922C43.9966 38.967 43.9204 38.7991 43.8428 38.6189C43.671 38.22 43.5549 37.8475 43.5249 37.6383C43.4964 37.4391 45.0286 37.5244 47.3976 37.6935C51.1913 37.9642 51.7608 38.7878 51.8443 38.9051C51.8815 38.9573 51.6781 39.0297 51.5126 39.0247C50.8446 38.8318 50.0189 38.5562 49.1403 38.3698C48.9464 38.3533 48.7657 38.3533 48.5796 38.3533" stroke="black" stroke-linecap="round"/>
<path d="M41.4405 42.4081C41.6463 42.4494 42.2087 42.6853 43.2036 43.0641C44.6688 43.6219 46.3912 43.2426 47.1721 43.1401C47.6905 43.072 48.1213 42.9373 48.6519 42.6903C49.174 42.4474 49.3204 42.0031 49.4242 41.9324C50.0314 41.5185 50.0989 43.5615 50.177 43.7161C50.5972 44.5472 47.598 43.8729 46.4204 43.9644C44.1138 44.1436 42.837 44.1442 42.2713 44.2245C42.1452 44.2424 42.031 44.2555 41.9414 44.1913C41.4076 43.8091 41.4756 43.0149 41.518 42.8771C41.637 42.4893 42.3091 43.3661 42.8948 43.6798C43.5164 44.0128 44.8714 43.7205 46.0979 43.544C46.7495 43.4502 47.3467 43.4421 47.9819 43.4108C48.2921 43.3955 46.4708 43.3294 44.6334 43.325C42.2072 43.3191 49.3226 43.2521 48.9453 43.1754C47.6162 42.9052 45.9151 43.4717 44.7167 43.595C44.5408 43.6085 44.3601 43.6355 44.1663 43.6494C43.9726 43.6633 43.7713 43.6633 43.564 43.6633" stroke="black" stroke-linecap="round"/>
<path d="M20.4095 49.08C20.8806 49.08 22.0196 48.9204 22.6335 48.6821C23.2091 48.4587 23.7776 48.2912 24.5936 47.8943C25.1808 47.6087 25.6022 47.1847 25.8029 47.1339C26.3016 47.0077 26.4256 48.1277 26.5933 48.5674C26.8228 49.1698 24.8836 48.7748 24.0834 48.8831C23.2107 49.0012 22.7412 49.2049 22.0368 49.3108C21.4213 49.4032 20.9546 49.2449 20.8996 49.1143C20.6447 48.5093 22.4204 49.0335 23.923 49.0545C24.76 49.0662 25.1969 48.6491 25.472 48.2965C25.5384 48.2113 25.5469 48.0951 25.5014 48.0611C25.1488 47.7975 24.5324 48.4562 23.8001 48.7158C22.891 49.0063 21.9569 49.1546 21.6325 49.0831C21.5157 49.0115 21.4959 48.8685 21.4755 48.7211" stroke="black" stroke-linecap="round"/>
<path d="M41.2821 47.5092C41.5673 47.6263 42.3587 47.9526 43.2956 48.0031C45.4342 48.1186 45.7904 48.1175 45.9846 48.211C46.0773 48.2557 46.1102 48.3718 46.1184 48.4769C46.1266 48.5819 46.0967 48.6921 46.0147 48.7642C45.2943 49.3974 43.6313 48.9789 43.1473 49.0423C42.8786 49.0775 42.5126 49.1086 42.1339 49.0836C41.8728 49.0663 41.7564 48.786 41.6503 48.5722C41.5394 48.3486 41.5135 48.0872 41.5262 47.915C41.5559 47.5145 42.5543 48.3621 43.2914 48.6545C44.6079 49.1767 45.132 48.5369 45.2248 48.5219C45.8381 48.4226 43.7875 48.2226 43.3657 48.0443C42.8645 47.8324 45.0445 48.4813 45.7163 48.5776C46.9064 48.7481 43.966 48.4277 43.3336 48.2588C42.5945 48.0803 42.2494 48.0357 42.0236 47.9693C41.901 47.9271 41.7621 47.8677 41.5885 47.7506" stroke="black" stroke-linecap="round"/>
<path d="M31.8986 48.4113C31.8986 48.4264 31.8986 49.9762 31.9133 52.374C31.9193 53.3538 32.0372 53.5783 32.1416 53.7717C32.3447 54.1481 32.7584 54.3731 33.1134 54.5324C33.582 54.7428 33.4415 53.2471 33.4128 49.7466C33.4073 49.076 33.2434 49.0685 33.1179 49.0323C32.8506 48.9552 32.6226 48.7833 32.4767 48.7128C31.6686 48.3218 33.0011 51.248 33.0926 52.1275C33.1299 52.4852 33.1161 53.0343 33.0696 53.0276C32.9174 52.4436 32.7938 51.6277 32.7654 51.0907C32.7517 50.7748 32.7395 50.3708 32.6723 49.8637" stroke="black" stroke-linecap="round"/>
<path d="M29.5425 55.9265C29.2632 55.9265 28.3455 56.176 27.8524 56.6306C27.6594 56.8085 27.7008 57.3098 27.7254 57.8454C27.7414 58.1924 27.9362 58.3931 28.121 58.5389C28.4809 58.8227 29.0002 58.8 29.5369 58.8536C30.0475 58.9046 30.4725 58.8399 30.6843 58.8376C30.8959 58.8354 31.0475 59.0549 31.2038 59.175C31.5365 59.4304 32.0264 58.8949 33.1211 58.9245C33.4453 58.9333 33.5619 59.3526 33.7931 59.5728C34.2446 60.003 35.0398 59.727 35.2449 59.5884C35.8005 59.2132 35.6541 58.3954 35.5825 58.046C35.4515 57.4056 34.0489 57.4486 33.2838 57.297C32.339 57.1099 31.1984 57.3085 30.4744 57.5387C30.1721 57.6348 29.889 57.6434 29.6888 57.6061C29.6125 57.5918 29.6469 57.4541 29.5958 57.3917C29.5448 57.3292 29.4225 57.3122 29.3451 57.2505C29.2677 57.1888 29.2388 57.083 29.2669 56.9958C29.3256 56.8143 29.583 56.7756 29.7805 56.7168C29.9944 56.6531 30.0031 56.3095 30.0055 56.1151C30.0066 56.0252 29.8835 55.9736 29.7739 55.9505C29.545 55.9023 29.3179 56.0137 29.1397 56.1504C28.7594 56.4421 28.6928 56.9001 28.6887 57.0201C28.6879 57.0438 28.7762 56.9436 28.7674 56.8668C28.7586 56.79 28.672 56.7273 28.6129 56.7466C28.4694 56.7936 28.4949 57.1116 28.5268 57.3717C28.5575 57.6214 28.774 57.8017 28.9774 57.9682C29.4439 58.3501 30.0357 58.3948 30.4984 58.4894C31.0006 58.5921 31.7894 58.6493 32.5435 58.6237C32.7294 58.6174 32.476 58.2163 32.3767 58.0147C32.2935 57.8459 32.7913 57.8319 33.0909 57.8665C33.6634 57.9327 33.9013 58.5277 34.0594 58.7678C34.2231 59.0162 33.5496 58.355 33.4552 58.2757C33.5706 58.2868 33.7824 58.3891 33.9659 58.5413C34.0519 58.6207 34.1234 58.7047 34.1984 58.8211" stroke="black" stroke-linecap="round"/>
<path d="M40.5259 56.9269C40.5086 56.9269 40.1163 56.9269 39.5123 56.9796C38.9637 57.0276 38.7027 57.6493 38.2823 57.905C38.0913 58.0212 37.8549 57.992 37.7091 58.0482C37.1799 58.252 38.3195 59.4137 38.8108 59.7369C39.7719 60.3694 40.9277 59.4856 41.6146 59.2359C41.8738 59.1417 42.0658 58.9533 42.1908 58.6922C42.3741 58.3095 42.1868 57.9245 42.036 57.7531C41.7276 57.4026 41.1244 57.2871 40.0554 57.2769C39.6771 57.2732 39.4179 57.4723 39.1868 57.6449C39.0746 57.7286 39.0088 57.8478 38.9654 57.9886C38.9219 58.1295 38.912 58.2995 39.2508 58.3871C40.2484 58.645 41.0549 58.3803 41.1775 58.1704C41.3113 57.9413 41.3059 57.6487 41.2418 57.4296C41.1789 57.2144 40.76 57.282 40.4824 57.3201C40.3578 57.3372 40.2856 57.4345 40.2308 57.5351C40.1166 57.7452 40.1149 57.9987 40.1687 58.1953C40.1948 58.2908 40.33 58.3276 40.4292 58.3192C40.5284 58.3107 40.6159 58.243 40.5895 58.1927C40.5022 58.0263 40.1096 58.0795 39.8249 58.119C39.6985 58.1365 39.6289 58.2374 39.6521 58.2909C39.7182 58.4435 40.0723 58.3963 40.28 58.3419C40.3588 58.3213 40.3103 58.1787 40.2109 58.1042C39.9795 57.9307 39.3851 57.9549 38.7754 58.0086C38.5464 58.0287 38.5029 58.1697 38.4715 58.3351C38.4401 58.5005 38.4277 58.7206 38.4682 58.8599C38.5086 58.9993 38.6023 59.0511 38.8321 59.084C39.062 59.1168 39.4252 59.129 39.889 59.1112" stroke="black" stroke-linecap="round"/>
<path d="M25.2497 65.7164C25.2721 65.6125 25.4678 65.269 25.9974 64.7542C26.4059 64.357 26.916 64.1828 27.4609 63.9964C27.8846 63.8514 28.4998 63.7854 29.2985 63.6606C30.9825 63.3975 31.4455 63.3283 32.2312 63.3328C33.0559 63.3375 33.8865 63.6284 34.3914 63.7997C34.6346 63.8822 34.7754 64.0388 34.8037 64.1239C34.8151 64.1584 34.7304 64.1757 34.6547 64.1612C34.3226 64.0978 34.085 63.9254 33.7878 63.912C33.7375 63.9097 33.7563 64.0015 33.7884 64.0564C33.9214 64.2839 34.7139 64.2771 35.2286 64.2256C35.5293 64.1956 35.7376 63.8496 35.92 63.5252C36.0662 63.2652 36.5264 63.254 36.8477 63.2199C37.2445 63.1777 37.5594 63.1615 38.8698 63.1974C40.4578 63.2409 40.9737 63.6307 41.5252 63.8354C42.1766 64.0773 42.7201 64.5384 43.2215 64.9022C43.4974 65.1024 43.7317 65.2942 43.9935 65.5831C44.1933 65.8036 44.2773 66.0869 44.3383 66.3963C44.3894 66.6553 44.3115 66.8705 44.2322 66.9706C43.8136 67.4984 42.3035 67.0779 41.3881 67.0501C40.7189 67.0298 39.446 67.0229 38.7513 67.01C37.7426 66.9913 37.1959 66.8967 36.5555 66.7666C36.1687 66.6879 35.8034 66.3752 35.5405 66.1674C35.293 65.9718 34.946 65.8959 34.6655 65.8586C34.5194 65.8392 34.3916 65.7442 34.2929 65.6245C34.1944 65.5051 34.1866 65.3421 34.1151 65.2423C33.9446 65.0043 33.4851 65.1361 32.8432 65.0397C31.9437 64.9047 31.266 64.8494 31.0845 64.8445C30.4544 64.8275 29.2049 64.9895 28.6102 65.2438C27.9053 65.5453 27.1667 65.9947 26.7077 66.2717C26.4223 66.4439 26.1086 66.6079 25.8703 66.781C25.7562 66.8639 25.5819 66.8867 25.3989 66.8726C25.0878 66.8487 24.9512 66.4932 24.8383 66.181C24.8051 66.0893 24.8238 65.9701 24.851 65.8775C25.0334 65.2555 26.181 64.8101 26.6865 64.6288C27.0946 64.4824 27.582 64.4056 28.6774 64.1621C29.1825 64.0498 29.504 64.0896 29.7229 64.0647C30.4279 63.9845 28.5119 64.3368 27.9081 64.5496C27.4569 64.7086 27.066 64.9933 26.6586 65.3758C26.5786 65.4509 26.5475 65.5065 26.6049 65.5164C26.813 65.5523 27.122 65.4115 27.8055 65.2491C29.2397 64.9085 30.2555 64.7861 30.383 64.7812C30.4474 64.7788 30.5108 64.7668 30.3772 64.7618C29.9115 64.7445 29.0899 64.8323 28.2519 64.9805C27.3536 65.1394 27.1609 65.3315 27.0697 65.388C27.0069 65.4268 27.5548 65.1229 28.4357 64.8178C28.9363 64.6444 29.573 64.5178 30.6682 64.4418C31.7635 64.3658 33.305 64.3658 34.2195 64.4011C35.3786 64.4457 35.7367 64.6307 36.0873 64.7611C37.1094 65.1412 37.5608 65.0836 38.2392 65.0356C38.9281 64.9868 39.7613 65.1068 40.6608 65.3519C41.7598 65.6512 42.3685 66.062 42.4176 66.1364C42.4652 66.2086 42.1452 66.0966 41.6856 65.9265C40.7673 65.5865 39.9055 65.4256 38.995 65.3733C38.3255 65.3349 37.2315 65.3555 36.7004 65.363C36.1692 65.3704 36.2331 65.3853 37.3055 65.4239C38.3779 65.4625 40.4568 65.5243 42.5423 65.5881" stroke="black" stroke-linecap="round"/>
<path d="M33.9022 68.7921C33.8664 68.7565 33.6529 68.617 33.3216 68.5838C33.2342 68.5751 33.1568 68.6234 33.1085 68.6681C33.0603 68.7128 33.0439 68.7732 33.0551 68.8293C33.1028 69.0675 33.4402 69.1481 33.7011 69.2188C33.776 69.2391 33.8679 69.2268 33.9141 69.1858C33.9603 69.1447 33.9603 69.0627 33.9321 69.0065C33.9039 68.9503 33.8475 68.9224 33.7935 69.0726" stroke="black" stroke-linecap="round"/>
</svg>
