<svg width="56" height="87" viewBox="0 0 56 87" fill="none" xmlns="http://www.w3.org/2000/svg">
<path d="M7.8147 58.812C7.8147 59.1525 7.88174 60.1692 8.03469 60.9378C8.19922 61.7645 8.49145 62.5165 8.59163 63.2643C8.70043 64.0765 9.20029 65.0606 9.68234 65.8671C10.1321 66.6197 10.7084 67.6906 11.2626 68.705C11.7091 69.5222 12.0589 70.5112 12.4468 71.3744C12.8153 72.1944 13.3051 72.8974 13.931 73.6176C14.8325 74.655 15.5715 75.4038 16.9183 77.679C17.6876 78.9787 18.5078 79.6424 19.2228 80.2554C19.9392 80.8695 20.5529 81.4409 21.2409 81.9622C22.2668 82.7395 23.4378 83.2807 24.0936 83.7348C24.9877 84.354 26.3482 84.9345 27.0624 85.3189C27.8054 85.7188 29.353 85.7443 31.0826 85.8173C32.0902 85.8598 34.3335 85.9736 35.8678 85.773C36.9782 85.6278 37.829 84.5348 38.5046 83.7904C39.3215 82.8901 39.598 82.0546 40.1189 81.0701C40.5482 80.2587 41.0016 79.3734 41.6395 78.5881C42.2403 77.8484 43.0191 76.9877 44.2893 75.7153C45.2299 74.7731 46.0111 74.0606 46.4297 72.9818C46.8121 71.9961 47.5848 71.1865 48.1983 70.4519C48.7428 69.7998 49.298 68.1811 50.1208 66.6422C50.6903 65.577 51.246 64.5272 51.5456 63.7583C51.9664 62.6785 53.0228 61.2739 53.6992 60.2979C55.4394 57.7874 54.2297 52.9571 54.3441 51.5655C54.5262 49.3493 54.5502 46.8038 54.6156 45.0578C54.6793 43.3549 54.729 42.1195 54.7606 40.138C54.789 38.3579 54.7713 35.0047 54.7817 33.1764C54.7991 30.1266 54.7511 27.846 54.582 26.974C54.4225 26.1517 54.0576 24.7273 53.5819 23.7475C53.2349 23.0328 51.998 22.3849 50.7594 21.8577C49.7535 21.4296 48.9114 21.135 47.814 20.5951C46.6691 20.0318 45.7697 19.8054 44.872 19.5566C44.2668 19.3888 43.5127 19.224 41.4117 19.1479C36.794 19.1221 33.5436 19.2009 33.078 19.3371C32.8391 19.3945 32.5949 19.4283 31.9632 19.608" stroke="black" stroke-linecap="round"/>
<path d="M31.9633 19.6077C31.5731 19.5656 30.4854 19.3622 29.5045 19.1419C28.0725 18.8202 25.6369 18.8693 23.2449 18.9482C21.3658 19.0103 20.1754 19.5299 18.9913 19.6576C17.3081 19.8392 15.3061 21.3383 13.3323 22.0904C10.9061 23.0149 8.25598 24.3756 7.41317 24.9655C6.38936 25.6822 5.98516 26.5919 5.40005 27.3656C4.63689 28.3747 4.0366 28.9246 3.67309 29.6876C3.28741 30.4971 3.20348 31.4564 3.0943 32.2043C2.97503 33.0213 2.40861 34.4306 1.93014 35.8502C1.79263 36.2914 1.71912 36.6664 1.68751 37.2062C1.67676 37.5612 1.67676 38.0808 1.67676 38.6163" stroke="black" stroke-linecap="round"/>
<path d="M22.9333 1.21582C22.6777 1.27442 21.8009 1.73939 20.7548 2.32338C19.7348 2.89283 18.8375 3.21473 18.1466 3.63578C17.383 4.10111 16.6767 4.63727 14.723 5.70942C13.7708 6.23197 12.5624 7.11654 10.4904 8.56311C7.51363 10.6413 6.76178 11.3871 6.06515 12.341C5.43049 13.21 4.75111 14.449 3.81427 16.0741C3.00338 17.4807 2.65842 18.596 2.35381 19.7022C2.10355 20.611 2.1153 21.4454 2.03998 22.6169C1.98297 23.5036 1.83743 24.3261 1.66681 25.3093C1.48853 26.3365 1.27895 27.151 1.12936 29.2348C0.732114 34.7682 1.36232 35.5916 1.51626 36.3649C1.58428 36.7635 1.65282 37.1589 1.70396 37.5994C1.72135 37.8501 1.72135 38.1558 1.89396 38.5616" stroke="black" stroke-linecap="round"/>
<path d="M23.9861 1C24.2894 1.04688 25.3704 1.12986 27.5867 1.23329C32.8011 1.47662 33.8476 1.487 34.7664 1.63721C35.5575 1.76654 37.2546 2.6045 38.8871 3.36917C39.7057 3.75258 40.4941 3.9265 41.2847 4.13942C42.127 4.36628 42.9712 4.58054 44.4888 5.41746C45.8595 6.17339 47.287 7.03727 48.2522 7.97542C48.9396 8.64345 49.1662 9.39383 49.6056 10.067C50.0866 10.804 50.5826 11.6086 51.0573 12.3267C51.5042 13.0028 51.92 13.7735 52.5774 15.1042C52.9977 15.9551 53.262 16.9598 53.4816 17.9441C53.651 18.7036 53.7635 20.3586 53.9534 21.5604C54.0705 22.3015 54.2663 23.0144 54.3445 24.0699C54.3605 24.4658 54.3774 25.0127 54.3935 25.4267C54.4095 25.8408 54.4243 26.1054 54.4907 26.6196" stroke="black" stroke-linecap="round"/>
<path d="M31.3793 17.4058C31.3793 16.1506 31.4965 13.2392 31.4328 10.8786C31.3773 8.8243 29.9409 7.89512 29.306 6.77229C29.1854 6.52383 29.109 6.32106 28.9869 6.07655C28.8648 5.83203 28.6993 5.55191 28.1821 5.06299" stroke="black" stroke-linecap="round"/>
<path d="M11.6561 18.4741C11.18 18.6312 10.12 19.1582 8.76318 20.2837C7.74518 21.1282 6.60356 22.1698 5.60586 22.8618C4.7375 23.464 3.94229 23.8724 3.15367 24.294C2.95626 24.3985 2.76264 24.4995 2.57206 24.5749C2.38148 24.6502 2.19981 24.6969 1.92456 24.7449" stroke="black" stroke-linecap="round"/>
<path d="M27.1706 47.2323C26.9064 47.1444 26.1075 46.7883 25.1333 46.4388C23.8976 45.9955 22.7993 45.5172 21.99 45.3602C20.6405 45.0985 18.3258 45.2122 14.5587 45.1687C13.1681 45.1526 12.402 45.4139 11.642 45.6336C11.454 45.6849 11.2688 45.7186 11.0808 45.7528C10.8928 45.7869 10.7077 45.8204 10.3684 45.855" stroke="black" stroke-linecap="round"/>
<path d="M22.741 47.0611C22.1511 47.0611 20.7175 47.0189 19.9044 46.9016C19.0747 46.782 18.1513 46.712 17.2814 46.577C16.3985 46.4401 15.451 46.2911 14.4952 46.1166C13.2837 46.0346 12.4094 45.9485 11.9882 45.8623C11.7549 45.8274 11.482 45.8105 11.2009 45.8329" stroke="black" stroke-linecap="round"/>
<path d="M39.5283 45.4572C39.7556 45.399 40.4636 45.0461 41.1323 44.5719C41.8365 44.0725 42.7176 43.8406 43.5743 43.679C44.3653 43.5298 45.2939 43.3263 46.4773 43.1635C48.5545 42.8777 49.3964 42.7382 50.171 42.4885C50.5421 42.4115 50.9087 42.3214 51.2681 42.1952C51.4513 42.1242 51.636 42.0389 51.869 41.8657" stroke="black" stroke-linecap="round"/>
<path d="M41.5776 46.3989C41.9114 46.3989 43.3328 46.0337 44.5873 45.4569C45.3666 45.0986 46.2011 44.9956 46.9515 44.7906C47.7719 44.5665 48.6755 44.1342 49.4181 43.8635C50.212 43.498 50.8389 43.1564 51.1358 42.9061C51.2836 42.7727 51.4257 42.6264 51.7667 42.2988" stroke="black" stroke-linecap="round"/>
<path d="M24.9776 52.8396C24.7919 52.866 24.1266 53.026 23.5541 53.1585C23.0241 53.2812 22.5215 53.4894 22.0841 53.7722C21.6279 54.0671 20.997 54.1863 20.3944 54.2975C19.2954 54.5003 17.8543 54.2453 17.2835 53.9779C16.8277 53.6189 16.3445 53.2798 15.8309 52.8394C15.6983 52.719 15.5659 52.5985 15.2483 52.3657" stroke="black" stroke-linecap="round"/>
<path d="M24.3967 52.5995C24.3557 52.4954 24.124 51.9619 23.7675 51.4765C23.3119 50.8561 22.4627 50.6725 21.9105 50.5587C21.3486 50.4428 20.7561 50.3336 18.3603 50.3025C17.4065 50.2902 16.6846 50.6812 16.0572 50.9856C15.5577 51.2779 15.2155 51.5462 15.0083 51.7136C14.905 51.7995 14.8055 51.8872 14.5713 52.1171" stroke="black" stroke-linecap="round"/>
<path d="M22.1794 51.4523C22.0967 51.5936 21.7755 52.039 21.4207 52.475C21.2277 52.7122 20.9734 52.8717 20.729 52.9825C20.4871 53.0923 19.988 53.0874 19.3944 53.0722C18.7215 53.0549 18.2787 52.386 17.8447 51.9238C17.7647 51.804 17.7208 51.6808 17.6982 51.5526C17.6755 51.4245 17.6755 51.295 17.6755 51.1616" stroke="black" stroke-linecap="round"/>
<path d="M38.8269 51.7784C38.8981 51.6249 39.3239 51.0366 39.8794 50.4784C40.3245 50.0311 40.8148 49.6322 41.2882 49.2429C41.7 48.9041 42.2389 48.5274 42.9434 48.0996C43.7685 47.5988 44.5528 47.5673 45.2244 47.5104C46.1295 47.4338 47.3675 47.6042 48.0367 47.9147C48.1962 47.9872 48.3321 48.0463 48.4615 48.1064C48.5909 48.1666 48.7096 48.2261 49.1251 48.3849" stroke="black" stroke-linecap="round"/>
<path d="M38.8521 52.2531C39.0399 52.2531 39.637 52.2825 40.8724 52.3421C44.6732 52.5254 45.2364 52.2253 46.1507 51.9856C46.8775 51.7951 47.4153 51.184 47.7964 50.7435C48.1673 50.3148 48.6753 50.0674 49.2132 49.6344C49.3966 49.4129 49.5262 49.1787 49.6433 48.9313C49.7023 48.8085 49.7604 48.6914 49.8203 48.5098" stroke="black" stroke-linecap="round"/>
<path d="M42.0149 49.8093C42.1249 49.945 42.5638 50.3456 43.277 50.4906C44.0348 50.6447 44.7484 50.3785 45.1337 50.1503C45.6341 49.7421 45.9914 49.2474 46.1641 48.6894C46.187 48.5278 46.187 48.3487 46.0915 48.0615" stroke="black" stroke-linecap="round"/>
<path d="M16.7393 68.6988C16.3422 68.6988 14.467 68.0958 13.4798 67.5415C12.9728 67.2569 12.5444 66.6665 12.0152 66.0852C11.548 65.5721 10.9068 64.9589 10.3168 64.1768C9.59354 63.043 8.7274 61.7882 8.46567 60.9688C8.41764 60.7911 8.3762 60.6547 8.3335 60.5142" stroke="black" stroke-linecap="round"/>
<path d="M23.616 74.2321C24.0137 74.2321 25.0616 74.1783 25.9605 74.1128C27.7215 73.9845 28.3099 74.1638 28.8941 74.2432C29.4814 74.323 30.0192 74.4297 30.5761 74.5939C31.1018 74.7489 31.673 74.8218 32.6528 74.8243C33.0354 74.8253 33.2971 74.6029 33.5738 74.4971C33.8822 74.3792 36.2842 74.2936 39.7519 74.2872C40.9797 74.2929 41.1275 74.3167 41.2688 74.3407C41.41 74.3648 41.5403 74.3884 41.9252 74.5203" stroke="black" stroke-linecap="round"/>
<path d="M23.8413 74.6787C24.0178 74.9871 24.5387 75.7114 24.9487 76.0564C25.3912 76.4287 26.0464 76.627 26.5298 77.0081C27.2113 77.5451 27.6594 78.0611 28.444 78.31C28.9688 78.4765 30.8251 78.422 33.6334 78.4309C37.0236 78.4415 37.6057 78.3828 38.1704 78.2322C38.8828 78.0421 39.1122 76.9663 39.9151 76.2667C40.5635 75.8476 41.1742 75.5424 41.5808 75.3116C41.7589 75.2163 41.8796 75.1654 42.032 75.113" stroke="black" stroke-linecap="round"/>
<path d="M26.6328 76.69C26.8833 76.722 27.9325 76.6272 29.6916 76.5725C32.4932 76.4854 33.1193 76.5874 34.129 76.6389C35.1369 76.6903 37.0435 76.7934 38.005 76.8874C38.3026 76.9569 38.5965 77.02 38.875 77.073C39.0117 77.1023 39.1388 77.1363 39.53 77.2669" stroke="black" stroke-linecap="round"/>
<path d="M7.56503 57.8836C7.48478 58.133 7.20229 58.7528 6.75709 59.237C6.52624 59.4881 6.06995 59.4848 5.65819 59.4489C5.06553 59.3972 4.73659 58.7152 3.97803 56.6391C3.64232 55.7204 3.36301 55.1607 3.23862 54.6407C3.11154 54.1095 3.13935 53.5305 3.07925 52.8229C3.02518 52.1862 2.97107 51.1505 2.90116 50.1255C2.81901 48.921 2.36048 47.8991 2.23434 46.6064C2.05502 44.769 1.66269 44.1084 1.37783 43.374C1.25135 43.0479 1.20925 42.524 1.24169 41.9149C1.55979 41.2567 2.23156 40.4283 2.73279 39.9367C2.84185 39.9176 2.95331 39.9871 3.1347 40.1563" stroke="black" stroke-linecap="round"/>
<path d="M3.13473 40.1566C3.13473 39.8028 3.07033 38.8583 2.97398 38.2927C2.95038 38.1541 2.90865 38.0252 2.84616 38.0277C2.641 38.0362 2.59628 38.805 2.54689 39.4497C2.53832 39.5616 2.24132 38.7074 2.00238 38.0684C1.93744 37.8948 1.85724 38.0901 1.83248 38.2828C1.70801 39.2518 1.82214 40.1603 1.9681 40.3155C2.34268 39.6355 2.46673 38.4768 2.47556 38.1106C2.48439 37.9061 2.50206 37.6635 2.52027 37.4136" stroke="black" stroke-linecap="round"/>
<path d="M4.30493 46.5767C4.31963 46.7566 4.43137 47.5016 4.55342 48.4202C4.65789 49.2065 4.78292 49.9675 4.84127 53.8815C4.85978 55.1232 5.51059 55.5488 5.91837 55.9006C6.32289 56.2495 6.50098 56.9146 6.57267 58.0774C6.54742 58.3395 6.48467 58.4871 6.41643 58.6223C6.34819 58.7575 6.27636 58.8757 6.13681 59.0575" stroke="black" stroke-linecap="round"/>
<path d="M6.55332 59.6243C6.69775 59.7768 7.19204 60.3439 7.54589 60.8072C7.62896 60.916 7.60787 61.0845 7.56603 61.2151C7.52418 61.3457 7.42825 61.4523 7.30394 61.531C6.70733 61.9084 5.8632 61.5869 5.31004 61.3263C4.71524 61.046 4.11059 60.8882 3.73317 60.7973C3.55106 60.0195 3.57187 58.36 3.86135 57.6701C3.97137 57.6379 4.10446 57.6896 4.24158 57.7429" stroke="black" stroke-linecap="round"/>
<path d="M26.2144 64.0195C26.1898 64.552 26.2306 65.8089 26.2567 66.4648C26.2817 67.0902 26.3749 67.5947 26.5401 68.0238C26.6346 68.2691 26.8046 68.4658 27.1022 68.5894C28.0283 68.974 28.6081 68.4685 29.1333 68.3661C29.8373 68.2288 30.2311 68.7388 30.6563 69.04C31.0466 69.3165 31.7161 69.3702 32.7985 69.4767C34.8786 69.6813 35.5262 69.2852 36.0323 68.9377C36.5688 68.5693 37.0691 68.3378 37.5617 68.1373C37.7973 68.0414 38.0398 67.9647 38.2102 67.9561C38.2736 67.9529 38.2476 68.1068 38.1834 68.1863C37.8981 68.5391 37.3104 68.5386 36.8522 68.6997C36.3564 68.8741 35.9975 69.1874 35.895 69.3039C35.8653 69.3376 36.006 69.3644 36.1137 69.3465C36.615 69.2633 37.243 68.7775 37.6554 68.5964C38.1409 68.3832 36.4199 69.1573 35.9553 69.408C35.838 69.4613 35.726 69.5023 35.6164 69.5438C35.5068 69.5854 35.4029 69.6263 35.0106 69.6996" stroke="black" stroke-linecap="round"/>
<path d="M28.698 69.1048C28.698 69.0892 28.7847 69.0107 28.9759 68.9042C29.3843 68.6766 29.7964 69.1223 29.9149 69.233C29.9241 69.2441 29.83 69.1638 29.7253 69.1127C29.6207 69.0617 29.5084 69.0423 29.2254 69.0223" stroke="black" stroke-linecap="round"/>
<path d="M39.1122 66.87C39.1122 66.5875 39.0614 65.8773 38.9436 65.3232C38.836 64.8173 38.6166 64.3712 38.4647 63.892C38.2185 63.4491 37.9618 63.0628 37.821 62.3811C37.8036 62.0155 37.8036 61.3951 37.8291 60.7559" stroke="black" stroke-linecap="round"/>
<path d="M36.1547 54.0588C36.1038 53.873 35.9251 53.3193 35.7894 52.65C35.6395 51.9099 35.8302 51.2496 36.0112 50.9483C36.1006 50.8169 36.1848 50.7292 36.2793 50.658C36.3739 50.5869 36.4763 50.5349 36.6441 50.4814" stroke="black" stroke-linecap="round"/>
<path d="M21.5464 73.5415C21.6946 73.6568 22.139 74.0798 22.5272 74.3955C22.6269 74.469 22.7322 74.5413 22.8709 74.618C23.0096 74.6947 23.1785 74.7737 23.514 74.9214" stroke="black" stroke-linecap="round"/>
<path d="M21.0769 68.8224C21.0769 68.8054 21.0769 68.6274 21.1379 68.2837C21.2889 67.4321 22.6355 66.8014 23.3934 66.4093C23.6554 66.2756 23.9063 66.1497 24.1694 66.0312C24.3082 65.9669 24.4575 65.8941 24.7595 65.7524" stroke="black" stroke-linecap="round"/>
<path d="M29.3257 80.2536C29.4705 80.2536 29.9358 80.2023 30.6619 80.1461C31.1234 80.1104 31.572 80.059 32.3464 80.0262C34.4083 79.9389 35.1366 80.2432 35.4671 80.3755C35.9246 80.5747 36.8557 80.948 37.4916 81.2078C37.603 81.2565 37.7385 81.3105 37.8781 81.3662" stroke="black" stroke-linecap="round"/>
</svg>
