<svg width="64" height="80" viewBox="0 0 64 80" fill="none" xmlns="http://www.w3.org/2000/svg">
<path d="M53.2182 59.1529C53.3576 58.9862 53.7412 58.6272 53.9535 58.5277C54.4347 58.3023 55.0423 59.1008 55.5179 59.5326C55.9646 59.9382 56.6106 60.1661 57.1976 60.5324C57.7664 60.8874 58.2221 61.4857 58.7294 61.9574C58.8344 62.055 58.9408 62.1198 59.0473 62.0773C59.6674 61.8306 59.5396 60.8889 59.5017 60.3892C59.4264 59.3957 57.8748 59.7564 57.1996 59.5873C55.9423 59.2724 55.2009 59.0331 55.0044 58.9675C54.0457 58.6475 58.0565 60.3494 59.0022 60.6169C59.6764 60.8077 59.6777 59.2162 59.8776 58.7769C60.0326 58.4365 59.3331 59.5023 58.9189 59.7035C58.8256 59.7488 58.7313 59.5835 58.6871 59.3843C58.4795 58.4502 58.9404 57.3086 59.0785 54.8634C59.1479 53.6341 59.1063 51.5827 59.1135 50.9892C59.1174 50.6579 59.1558 52.8507 59.2186 54.1385C59.3437 56.6997 59.4363 57.4925 59.556 58.12C59.6647 58.6894 59.9382 59.0459 60.0595 59.2009C60.1572 59.3257 60.5908 57.8288 61.066 54.5667C61.3639 52.5213 61.2275 49.6226 61.2546 47.9615C61.2875 45.9475 61.4334 45.3468 61.4966 44.1585C61.547 43.2114 61.5181 41.5612 61.4873 40.8972C61.4566 40.2332 61.3951 40.6043 61.3162 41.0002C61.0405 42.3834 60.8379 43.2562 60.5735 45.0204C60.4415 45.9005 60.4092 46.8652 60.1649 48.2366C59.9565 49.4068 59.7515 50.2181 59.6588 50.4747C59.6137 50.5998 59.5603 50.71 59.5343 50.3597C59.4481 49.1973 59.7194 47.4223 60.0392 45.8385C60.2372 44.8578 60.1672 44.3023 60.1964 43.7748C60.242 42.9526 60.3628 41.4836 60.6951 39.5575C61.0195 37.6767 61.2744 36.5852 61.3079 36.2715C61.3414 35.9572 61.3745 34.1863 61.4282 33.4571C61.493 32.5779 61.5235 37.7586 61.5533 39.3545C61.5832 40.9505 61.5832 40.6182 61.7296 39.3709C61.8761 38.1236 62.169 35.9714 62.3199 34.2243C62.7097 29.7111 62.4034 28.9393 62.3545 28.264C62.2829 27.2769 62.1761 24.9211 62.0286 23.3499C61.9638 22.659 61.6175 22.2217 61.5182 22.1788C61.2622 22.0685 61.6844 23.332 61.9207 24.9967C62.256 27.3588 61.9209 29.1309 61.7375 29.8242C61.5482 30.5398 61.3116 30.9913 61.1476 31.0664C60.9025 31.1787 60.7574 30.3042 60.6524 28.2415C60.5695 26.6125 60.6167 23.7946 60.6014 22.2658C60.5861 20.737 60.5554 20.5809 60.5274 20.5968C60.0198 20.8853 60.7136 21.7105 60.8328 21.8785C61.3805 22.651 60.6777 18.9789 59.9822 17.5026C59.4545 16.3828 59.051 15.6831 58.8467 15.1923C58.6317 14.6759 58.4676 14.1228 58.2594 13.5834C58.045 13.0282 57.6966 12.6629 57.4642 12.5287C56.0963 11.7385 58.7771 17.0632 59.0132 17.7632C59.2104 18.3481 59.6875 19.2834 59.9061 19.7995C60.0747 20.1976 59.1456 17.6426 58.1941 15.9151C57.5645 14.7719 57.1884 13.4146 56.462 11.6736C56.1435 10.9102 55.4568 10.0638 54.2654 8.97766C53.688 8.45123 53.2607 8.12492 52.7921 7.69906C52.2788 7.23265 51.36 6.58816 50.2669 6.08476C49.2505 5.61666 47.6878 5.0885 46.3158 4.44164C44.7123 3.68561 43.764 3.63026 43.0996 3.43045C42.3394 3.20182 41.5454 2.91704 40.8965 2.52205C40.0292 1.99409 38.8105 1.44217 38.7035 1.27779C38.6561 1.20491 38.769 1.09955 38.8967 1.05217C39.7908 0.720362 41.136 1.81499 41.9128 2.07541C42.7403 2.35289 44.054 2.59264 45.0195 2.90232C45.9945 3.21504 46.5065 3.54767 47.2221 3.89606C48.4443 4.49112 51.5947 5.6728 52.6858 6.23026C53.4122 6.60138 54.0929 7.60812 55.2862 9.83239C55.8872 10.9526 57.2318 12.7121 57.762 13.3379C57.9457 13.5547 56.1133 11.7773 54.0122 9.67109C52.1107 7.765 51.5063 7.57913 50.6763 7.0429C49.9643 6.58287 48.2359 5.9237 46.2584 5.13905C44.5023 4.44229 42.7996 4.04951 42.0824 3.88535C40.5564 3.53603 39.0755 2.99949 36.7342 1.90803C35.6207 1.38894 34.4694 1.26319 32.7011 0.974265C31.1459 0.720159 29.5146 0.907963 28.2435 1.09398C26.9951 1.27668 25.2703 1.45563 24.2384 1.58355C23.4061 1.68673 22.6169 2.08731 21.1222 2.20779C18.8129 2.39393 17.6398 3.15086 16.6312 3.58706C15.7117 3.98474 15.1551 4.77511 13.6502 5.91583C13.1642 6.28421 12.7014 6.83748 12.0413 7.49148C11.5059 8.02198 9.97767 8.83908 8.1544 10.1196C6.67257 11.1602 6.13852 12.409 5.69343 13.4859C5.05931 15.0202 4.93075 16.6037 5.20192 17.6733C5.29822 18.0531 5.35761 18.8239 5.31955 19.7866C5.30531 20.1468 5.20538 20.2393 5.06009 20.2307C4.22183 20.1811 3.81889 19.3332 3.64407 18.835C3.38747 18.1039 4.03144 17.3219 5.00111 15.8005C5.63499 14.8059 5.93474 14.1675 6.34346 13.6074C6.81727 12.9582 7.69945 11.622 8.39752 10.6509C8.72125 10.2005 9.11713 9.72777 9.52729 9.22006C9.69628 9.01086 9.93919 8.8899 10.1569 8.72452C10.9549 8.1182 11.1424 6.05448 12.1279 5.24329C13.2361 4.3311 14.8755 4.51613 16.7265 3.87957C18.789 3.1703 20.1355 2.39407 20.6195 2.25464C22.2076 1.79707 23.0651 1.57998 23.8903 1.42619C24.8089 1.25499 25.6292 1.20333 25.8587 1.20865C25.8779 1.20909 25.6105 1.27981 23.8067 1.97651C22.003 2.67321 18.6483 4.01289 16.3505 5.01628C12.8645 6.53852 11.6149 7.34346 11.3256 7.48021C10.4948 7.87292 9.50223 8.94049 8.94457 9.5614C8.22265 10.3652 11.7516 6.03281 12.3822 5.51224C12.8767 5.10397 13.5912 4.74996 14.2181 4.29382C14.4722 4.10897 14.7286 3.99351 14.8097 3.97212C16.3389 3.56857 11.2506 5.79243 10.2722 6.62548C9.88433 6.95569 9.70201 7.25245 9.45275 7.50015C9.09699 7.85367 7.97669 9.32357 6.50913 11.4106C5.9361 12.2256 5.77561 12.5887 5.29322 13.7016C4.0072 16.6685 3.14873 18.724 3.01191 18.9802C2.54161 19.8608 1.96734 21.0208 1.99967 21.1699C2.05422 21.4214 2.92755 20.7004 3.61602 20.2219C3.80902 20.0877 3.72734 20.2418 3.62384 20.3681C3.19159 20.8959 2.8094 21.4916 2.30387 22.7373C1.9431 23.6263 2.22035 24.1906 2.19427 28.508C2.18499 30.0438 1.87839 30.6622 1.84631 31.0262C1.81304 31.4037 1.76303 33.2283 1.76303 35.9937C1.76303 38.4941 1.92648 39.3655 1.81597 40.0412C1.69965 40.7524 1.17835 41.2429 1.19876 42.136C1.20393 42.362 1.33698 42.5243 1.44453 42.6272C1.81324 42.9798 2.30207 42.6825 2.47652 42.6338C3.13676 42.4493 2.54135 44.6411 2.30176 46.6607C1.80477 50.8498 1.29958 52.1593 1.24706 52.4136C1.12944 52.9831 1.91111 53.5897 2.26588 54.0088C2.34663 54.1043 2.43133 54.1953 2.51364 54.1802C2.7275 54.1408 3.22336 52.9517 3.9862 51.327C4.46011 50.3176 4.75301 48.5785 5.07045 45.917C5.37264 43.3832 4.9491 41.4193 4.50194 40.1538C4.29202 39.5597 4.08452 39.0747 3.94709 38.9187C3.80966 38.7626 3.7404 38.9532 3.75211 40.9364C3.76383 42.9196 3.85862 46.6898 3.85593 48.7649C3.85289 51.1083 3.50224 51.596 3.27852 51.8164C3.11286 51.9796 3.63344 49.4468 4.40547 46.0608C4.73404 44.6197 4.81577 43.7159 4.87302 42.6911C4.93027 41.6663 4.93027 40.5414 4.8119 38.8301C4.69353 37.1187 4.45679 34.8549 4.30985 33.2962C4.16291 31.7374 4.11294 30.9523 3.9984 30.7735C3.4064 29.8492 3.40537 34.0736 3.33969 34.9663C3.26868 35.9314 3.14264 30.1556 3.12181 27.9148C3.09615 25.1537 3.38244 23.8203 3.53862 22.5459C3.64858 21.6486 3.81227 21.0296 5.51836 17.6888C5.90256 16.9365 6.0363 16.6963 6.0077 16.7863C5.83688 17.3245 5.05946 18.7341 4.0573 20.8276C3.53717 21.9142 3.22388 23.1529 2.89366 24.8925C2.56343 26.6322 2.28467 28.8615 2.14106 30.9714C1.99745 33.0812 1.99745 35.004 2.01815 36.1272C2.12291 37.9728 2.23327 39.1475 2.40724 40.4301C2.47087 40.9101 2.48441 41.043 2.53232 41.296" stroke="black" stroke-linecap="round"/>
<path d="M4.02089 60.2707C4.00346 60.2878 3.99448 60.1197 4.06366 59.7487C4.22691 58.8734 5.34693 58.5525 5.996 58.3368C6.16543 58.2805 6.40565 58.2995 6.55354 58.3745C6.83203 58.5158 6.85925 58.9287 6.97915 59.1956C7.20189 59.6914 8.01734 59.6115 8.42806 59.9439C8.63086 60.1081 8.78219 60.4043 9.04171 60.6508C9.27013 60.8678 9.77022 60.8853 10.3454 60.8298C10.7924 60.7867 11.0286 60.3706 11.2061 59.9872C11.6112 59.1125 11.3556 58.382 11.2959 58.1615C11.2674 58.0564 11.4122 57.9531 11.5312 57.8873C11.7658 57.7577 12.2035 57.7647 12.6926 57.822C13.3799 57.9025 13.6152 58.7465 13.8098 59.1969C14.0515 59.7565 12.7561 59.7523 12.5605 59.9329C12.3286 60.1469 12.3997 60.536 12.2408 60.8208C11.646 61.8865 9.68375 61.9065 8.70114 62.0129C8.51295 62.0333 8.30621 62.0337 8.15211 61.9655C7.48148 61.6687 7.54822 60.6399 7.35747 60.1946C7.25443 59.9541 6.75186 60.1067 6.37272 60.2345C5.76749 60.4384 5.62103 61.2265 5.37636 61.2966C5.25351 61.3318 5.11472 61.261 4.99121 61.1627C4.38059 60.6769 4.64007 59.7441 4.73979 59.5182C5.11238 58.6744 7.16552 59.494 7.91727 60.0246C8.76131 60.6204 9.41141 60.676 11.5591 60.6907C12.0131 60.6937 12.129 60.6148 12.239 60.5103C12.5653 59.9545 12.5934 59.3817 12.7587 58.9471C12.9239 58.8148 13.2543 58.8617 13.8485 59.0118" stroke="black" stroke-linecap="round"/>
<path d="M10.1705 34.7507C10.1705 35.6154 10.2972 37.9184 10.4111 38.6843C10.5116 39.3604 10.7727 41.0138 10.9061 42.1172C11.038 43.2078 10.8817 45.053 10.7405 45.7337C10.6656 46.0948 10.6249 47.5563 10.6396 49.6854C10.6531 51.6418 10.9196 52.3251 11.0736 53.0724C11.2536 53.946 11.9979 55.4949 12.6494 56.9499C13.0808 57.9132 13.3995 58.7611 13.9008 59.6347C14.6179 60.8847 15.6665 62.5739 16.0934 63.2292C16.4507 63.7777 17.0047 64.2536 17.5854 64.8366C19.0977 66.3551 19.8128 66.8734 20.4855 67.275C21.5949 67.9372 22.7434 68.4072 23.8084 68.8052C24.6166 69.1072 26.1098 69.331 27.2654 69.5828C28.0381 69.7512 28.5973 69.8217 29.384 69.9451C31.0997 70.2143 31.6975 70.4305 33.3814 70.4439C34.1568 70.3468 35.0756 70.0973 35.7877 69.8789C35.9619 69.8494 36.19 69.8401 36.4249 69.772" stroke="black" stroke-linecap="round"/>
<path d="M36.5971 67.7929C36.4204 67.7646 35.7865 67.8521 35.2304 68.1426C34.4554 68.5474 33.2545 68.8594 32.5145 68.9719C32.3505 68.9862 32.1947 68.9862 31.4639 68.9945C30.7332 69.0029 29.4323 69.0195 28.1934 69.1235" stroke="black" stroke-linecap="round"/>
<path d="M28.3259 69.3824C28.3259 69.4029 30.5203 69.4135 33.9091 69.3964C35.2317 69.3453 35.5195 69.2202 35.8099 69.0403C35.9445 68.9504 36.0531 68.8632 36.1948 68.7734" stroke="black" stroke-linecap="round"/>
<path d="M38.5668 68.1546C38.8429 68.1546 40.2735 68.0273 41.2041 67.9547C41.9523 67.8632 42.3224 67.7355 42.6892 67.6212C42.9232 67.5209 43.2544 67.3347 43.857 66.9481" stroke="black" stroke-linecap="round"/>
<path d="M43.857 67.8065C43.4192 67.9609 42.2633 68.3572 41.6355 68.5419C41.2271 68.6759 40.8721 68.7754 40.6225 68.8201C40.4966 68.8425 40.3724 68.8645 40.1497 68.8871" stroke="black" stroke-linecap="round"/>
<path d="M43.7881 68.0499C43.7881 68.2471 43.8105 69.6394 43.6865 70.5885C43.5433 71.6842 43.8092 73.9046 44.3895 74.9953C44.8999 75.9545 45.7069 76.1974 46.3839 76.8258C46.9894 77.3878 47.2192 77.7008 47.3674 77.9311C47.5114 78.1549 48.0113 78.138 48.5092 78.1028C48.836 78.0797 49.0066 77.8228 49.1253 77.5853C49.2612 77.313 49.0924 77.0115 48.931 76.8218C48.6092 76.4436 47.9418 76.1482 47.2358 75.4391C46.4835 74.6836 46.526 73.7102 46.4578 72.9796C46.3092 71.3888 46.1852 70.5385 46.0908 69.809C45.9225 68.5081 45.365 67.6578 45.1383 67.5538C45.2557 68.6249 45.7128 70.4541 46.504 73.029C46.6765 73.542 46.7293 73.6642 46.7837 73.7175" stroke="black" stroke-linecap="round"/>
<path d="M15.4853 77.4762C15.5682 77.2578 15.9135 76.8323 16.4742 76.4258C17.1302 75.9501 17.6557 75.6925 18.431 75.4495C18.7735 75.3421 19.0089 75.1385 19.142 74.859C19.4067 74.3031 19.0811 73.3895 18.3386 71.8248C17.6189 70.3079 18.0911 68.8479 18.3882 68.3374C18.6573 67.8751 19.0493 67.6639 19.2472 67.5693C19.4438 67.4753 19.8268 69.2508 20.2101 71.7609C20.4263 73.1766 20.5382 73.9492 20.6823 74.5736C20.7432 74.8372 20.9512 75.0652 21.075 75.3229C21.3292 75.8522 19.1761 76.6325 18.133 77.271C17.2787 77.794 17.081 78.7074 16.8084 79.1897C16.2166 78.863 15.5965 78.2631 15.471 78.0264C15.4154 77.9013 15.3761 77.766 15.3013 77.5922" stroke="black" stroke-linecap="round"/>
<path d="M53.1049 37.3666C53.1049 36.9292 53.0271 35.8272 52.6791 34.7645C52.4627 34.1034 52.2936 32.8389 52.1528 31.9132C52.0573 31.285 51.6399 30.3594 51.4256 29.5319C51.2665 28.9173 51.0964 28.2428 50.8721 27.66C50.6395 27.0558 50.1128 26.5976 49.604 26.3634C49.3731 26.2572 49.1788 26.1045 48.8677 26.038C48.4058 25.9393 47.9892 26.0809 47.7547 26.2299C47.5215 26.378 47.3584 26.615 47.1626 26.7861C46.9749 26.9501 46.61 26.9361 46.2294 26.904C45.5322 26.8453 45.0812 25.9551 44.6894 24.883C44.5237 24.4297 44.5495 24.084 44.4154 23.9013C44.2739 23.7087 43.8465 23.7863 43.444 23.8586C42.7013 23.992 42.4911 24.9797 41.9882 25.2704C41.7601 25.4022 41.4113 25.2265 41.0728 25.0642C40.2532 24.6714 40.0903 23.6792 39.9823 23.5576C39.3885 22.8882 38.8834 25.5613 38.6187 26.1308C38.2886 26.8411 36.8754 26.2677 35.4242 25.9271C34.7317 25.7645 32.8593 25.7951 30.9788 25.9266C28.7192 26.0845 28.1769 26.0357 27.8419 25.9214C26.7608 25.5527 26.6689 22.9406 25.8354 21.7922C25.4674 21.2852 25.2326 20.8413 25.0552 20.666C24.6228 20.2385 24.3699 22.251 23.9666 23.0481C23.376 24.2151 23.1716 24.7883 22.5909 25.2354C21.5899 26.0061 20.8142 24.8348 20.3576 24.6617C19.6979 25.2046 18.9838 26.1387 18.6412 26.7106C18.5064 26.9433 18.4508 27.0589 18.3931 27.0856" stroke="black" stroke-linecap="round"/>
<path d="M15.4168 30.0746C15.6267 29.7884 16.4075 29.1894 17.1846 28.9163C18.1702 28.57 19.4739 28.7607 23.1758 28.7885C24.4637 28.7982 25.0984 29.1949 25.5136 29.4374C25.8069 29.6086 25.9486 29.8224 26.0232 30.131C26.0699 30.3245 26.067 30.6059 26.022 30.8146C25.9771 31.0234 25.873 31.1543 25.7331 31.2549C25.0908 31.7168 24.1656 31.591 22.6036 31.6815C20.1932 31.821 18.0461 31.6193 17.0686 31.4737C15.9842 31.3121 15.1689 30.9464 14.754 30.6526C14.6748 30.5965 14.7893 30.4408 14.8779 30.355C15.2549 29.9901 15.9201 30.0746 16.9224 29.9767C17.359 29.9567 17.6767 29.9372 17.9687 29.9008C18.1332 29.8837 18.3309 29.8697 18.5346 29.8553" stroke="black" stroke-linecap="round"/>
<path d="M35.6429 28.8275C36.0274 28.8275 37.8171 28.7942 38.7236 28.625C39.2524 28.5263 39.7327 28.1636 40.5196 27.9442C41.0654 27.7921 41.9855 27.6961 43.0354 27.5654C44.3952 27.3963 46.4507 27.6894 47.448 27.9732C48.2853 28.2115 48.6913 28.9576 48.8672 29.5141C48.9267 29.7021 48.8845 29.9772 48.8186 30.1851C48.6975 30.5675 48.2353 30.8176 47.7405 31.0416C46.2418 31.72 43.9264 31.1379 42.8385 30.8212C41.9001 30.548 41.4438 30.0923 41.1404 29.7846C40.7701 29.4089 42.4142 29.9634 43.8286 30.196C46.5985 30.6517 47.1714 30.1274 47.7731 29.9578C48.3783 29.7872 48.726 29.5352 48.7956 29.5285C48.2897 30.0721 47.7945 30.414 47.2438 30.6562C47.0998 30.6931 46.9499 30.7069 46.7955 30.6943" stroke="black" stroke-linecap="round"/>
<path d="M36.7853 36.0973C37.4493 35.859 38.8502 35.2578 39.3152 35.0253C39.8424 34.7616 40.4283 34.5135 41.3302 34.3863C43.4062 34.0934 44.0647 34.5955 44.7951 34.7749C45.4045 34.9245 45.9265 35.2095 46.7481 35.5456C47.4193 35.8201 47.7578 36.3774 47.9954 36.8341C48.1103 37.0548 48.1067 37.3272 48.0258 37.514C47.6081 38.4788 45.6453 35.9243 44.9031 35.7199C43.5946 35.3596 42.7368 35.3877 41.9528 35.3664C40.1518 35.3175 39.1532 35.7965 38.5955 36.1552C38.1231 36.4591 37.7635 36.7916 37.4618 36.8319C37.3165 36.8513 37.182 36.7854 37.0907 36.7026C36.9994 36.6198 36.9541 36.5009 36.9698 36.3886C36.9856 36.2763 37.0637 36.1742 37.1738 36.1103C37.2838 36.0465 37.4235 36.0241 37.5673 36.001" stroke="black" stroke-linecap="round"/>
<path d="M41.8675 36.435C41.85 36.435 41.5516 36.435 41.0684 36.5119C40.7081 36.5692 40.6258 37.0322 40.5175 37.3677C40.37 37.8246 40.531 38.2212 40.6885 38.4052C41.0875 38.8712 41.9873 39.0957 43.033 39.0884C43.4672 39.0853 43.6672 38.6736 43.8031 38.4364C43.932 38.2114 43.9551 37.7842 43.9169 37.2887C43.9011 37.0847 43.8022 36.989 43.7064 36.9099C43.2989 36.5738 42.5498 36.6472 41.9633 36.7031C41.7283 36.7255 41.6434 36.8707 41.5814 37.0061C41.4542 37.2838 41.4571 37.6686 41.5186 38.0051C41.5437 38.1426 41.7031 38.164 41.8441 38.1743C42.14 38.1957 42.4692 37.9874 42.7897 37.6331C43.4095 36.948 43.4098 36.2504 43.3566 35.9174C43.3324 35.7661 43.1969 35.6812 43.0753 35.6336C42.9537 35.586 42.8201 35.586 42.74 35.6529C42.3201 36.0039 42.773 36.7135 42.9364 36.9265C43.016 37.0302 43.1248 37.0949 43.2134 37.0637C43.302 37.0324 43.3763 36.8954 43.395 36.7659C43.4137 36.6365 43.3746 36.5186 43.2955 36.4199C43.2164 36.3213 43.0984 36.2453 42.9867 36.2507C42.5116 36.6748 42.0639 37.5033 42.0243 38.2376C42.074 38.3825 42.1853 38.4603 42.5325 38.3471" stroke="black" stroke-linecap="round"/>
<path d="M26.8604 36.3562C26.6916 36.3117 26.1357 35.9882 25.6547 35.6443C25.1463 35.2807 24.5969 34.9399 24.0451 34.6828C23.3634 34.3652 22.6977 34.3129 21.3288 34.3075C20.2629 34.3034 19.3732 34.5994 18.4681 34.857C17.6571 35.0877 17.0937 35.4805 16.6096 35.9124C16.01 36.4472 15.7495 36.8342 15.6484 37.1184C15.403 37.8079 16.6542 37.951 17.2714 38.054C17.4111 38.0773 17.5351 38.0805 17.6568 38.0074C18.2849 37.6302 18.6458 36.8489 19.1963 36.5782C19.3192 36.5177 19.4466 36.4774 19.4381 36.4467C19.3271 36.0497 18.3996 36.7309 17.3711 37.0938C16.7795 37.3025 16.461 37.7803 16.2335 37.9062C16.1641 37.9446 16.1499 37.7457 16.1793 37.6083C16.333 36.8905 17.8881 36.3862 19.3467 35.8991C20.8093 35.4108 23.1057 35.3426 23.7922 35.3007C24.9737 35.2286 25.8158 35.5648 26.4416 35.847C26.8262 36.0203 27.104 36.2713 27.1812 36.3622C28.0117 37.3403 23.5044 35.0872 22.421 35.0054C20.4381 34.8558 19.538 35.1861 18.7881 35.448C18.2899 35.6219 17.8947 35.8404 17.6896 36.0121C17.6017 36.109 17.5466 36.2259 17.4847 36.3537C17.4227 36.4814 17.3556 36.6165 17.2177 36.6109" stroke="black" stroke-linecap="round"/>
<path d="M21.3495 36.2784C21.332 36.2784 21.1436 36.2784 20.7955 36.3188C20.0294 36.4077 19.6924 37.2027 19.6404 37.4615C19.5369 37.9769 20.0494 38.4048 20.5268 38.8417C21.5379 39.767 23.8925 38.9781 24.7348 38.714C25.0708 38.6086 25.3356 38.3827 25.5857 38.1624C25.7073 38.0552 25.6854 37.8425 25.6226 37.6862C25.3782 37.0775 24.5215 36.9477 23.6279 36.8493C21.6322 36.6294 21.0163 37.1521 20.8457 37.3217C20.7755 37.3916 20.8749 37.5183 21.0028 37.6012C21.5902 37.9815 23.1679 37.8523 24.1663 37.5231C24.3135 37.4745 24.37 37.3264 24.4213 37.1643C24.4727 37.0022 24.4839 36.7732 24.3834 36.63C23.7441 35.7191 21.9093 36.4659 21.4312 36.7534C21.1856 36.9011 21.1315 37.4368 21.2208 38.0284C21.2897 38.4841 21.9202 38.4992 22.2939 38.5409C23.345 38.4082 24.2465 37.9349 24.6124 37.5533C24.7132 37.4825 24.8299 37.4547 24.9841 37.426" stroke="black" stroke-linecap="round"/>
<path d="M29.5381 49.3507C29.3584 49.2668 28.8519 48.929 27.8025 48.2695C27.465 48.0575 27.2707 47.903 27.0533 47.8021C26.9428 47.7508 26.8063 47.7678 26.696 47.8216C26.2338 48.0473 25.9889 48.7224 25.8391 49.3233C25.8003 49.4789 25.8275 49.6704 25.8819 49.8215C26.0831 50.3801 26.8071 50.5701 27.2604 50.8701C27.6892 51.1539 27.8149 51.6113 27.9897 51.7695C28.3375 52.0844 28.886 51.6902 29.199 51.4947C29.6996 51.182 29.2955 50.1407 29.38 49.6713C29.4699 49.1718 29.0708 50.5667 28.8899 50.7407C28.6915 50.9315 28.1432 50.9053 27.5406 50.8747C27.1474 50.8547 26.9219 50.622 26.7471 50.4072C26.6588 50.2987 26.6173 50.1574 26.6075 50.0265C26.5977 49.8956 26.6325 49.7708 26.7025 49.6727C26.7724 49.5746 26.8764 49.5071 26.9719 49.5211C27.1513 49.6329 27.3599 49.9119 27.6034 50.2138C27.7246 50.3375 27.8412 50.4014 27.9613 50.4671" stroke="black" stroke-linecap="round"/>
<path d="M31.8082 50.7497C31.8425 50.7497 32.2796 50.7497 32.9152 50.6609C33.1465 50.6286 33.1313 50.3948 33.0864 50.2114C32.9935 49.8314 32.809 49.5306 32.8388 49.2959C32.9911 48.0975 35.6544 49.0642 36.1402 49.3904C36.3965 49.5625 36.3919 50.0512 36.3326 50.4917C36.2314 51.2437 35.029 51.3593 34.4858 51.662C34.0614 51.8985 33.7117 52.1257 33.4786 52.1094C33.2414 52.0929 33.1937 51.691 33.0123 51.5545C32.5817 51.2304 31.6963 51.7489 31.0972 51.7371C30.9895 51.7349 30.9605 51.5525 30.9372 51.4257C30.914 51.299 30.914 51.1771 30.991 51.0841C31.6014 50.3475 33.1517 50.8906 33.4193 50.8685C33.7448 50.8415 33.9254 50.4916 33.9671 50.367C33.9769 50.3377 33.8231 50.4227 33.7674 50.5297C33.7118 50.6366 33.723 50.7745 33.7949 50.8745C33.9991 51.0321 34.4021 51.1055 34.7645 51.0756C34.8603 51.032 34.7772 50.9303 34.6915 50.8256" stroke="black" stroke-linecap="round"/>
<path d="M22.5301 57.9972C22.8433 57.9972 24.081 57.8297 24.7566 57.4315C25.0637 57.2505 25.2314 56.93 25.4288 56.7498C25.8664 56.3503 26.834 57.0221 27.439 56.8671C28.1282 56.6905 28.4989 56.1003 29.1309 56.084C29.8681 56.0649 30.2194 56.7356 31.353 56.7232C32.3369 56.7125 33.2923 56.0536 34.0202 55.8286C34.6851 55.6232 35.1718 55.2756 35.7157 55.2556C36.3541 55.2322 36.7251 55.8592 37.2207 56.1985C37.728 56.5459 38.6866 56.8927 39.8281 57.1843C40.2187 57.2841 40.5057 57.4087 40.712 57.5672C41.0982 57.864 40.8737 58.4106 40.7993 58.6009C40.568 59.1932 39.1845 57.8082 38.1328 57.1174C37.2561 56.5416 36.752 55.9813 35.9711 55.747C34.3334 55.2557 33.1669 56.2419 32.2821 56.4203C32.0981 56.4481 31.9648 56.4617 31.7789 56.4687C31.593 56.4756 31.3584 56.4756 31.1168 56.4756" stroke="black" stroke-linecap="round"/>
<path d="M23.3206 58.7189C23.4908 58.7189 24.2401 58.8739 25.0512 59.1435C25.9005 59.4259 26.3961 59.5941 27.1554 59.8621C28.4267 60.3108 29.0926 59.2887 30.2999 59.1503C34.2539 58.6971 34.8416 58.8226 35.4838 58.6095C36.3946 58.3073 36.9474 58.8362 37.4627 59.087C37.5827 59.1455 37.6405 59.2769 37.6302 59.3839C37.5511 60.2027 35.4402 59.6164 34.9226 59.5912C34.7686 59.5837 35.0578 59.986 35.075 60.2532C35.0834 60.3842 35.0361 60.5066 34.9208 60.625C34.3966 61.1639 33.4925 61.1045 32.7721 61.1804C32.5665 61.2021 32.8376 61.6002 32.8719 61.8311C32.9506 62.3602 31.3392 62.8531 30.1553 63.184C29.554 63.352 28.9394 63.2948 28.2902 63.033C28.0056 62.9182 27.9314 62.4781 27.8768 62.0868C27.8377 61.8058 28.6277 61.6984 29.5827 61.5084C29.9543 61.4344 29.9197 60.9382 29.8757 60.6937C29.8317 60.4492 29.7342 60.3517 29.6177 60.2725C29.5011 60.1933 29.3683 60.1352 29.2385 60.1409C28.6887 60.1648 28.0927 60.5273 27.4669 60.4117C26.6691 60.1396 25.9153 59.7354 25.3219 59.5566C25.1229 59.4999 24.8513 59.4112 24.3851 59.0293" stroke="black" stroke-linecap="round"/>
<path d="M43.2617 44.1727C43.3576 44.2448 43.8299 44.5701 44.0945 44.8581C44.0648 44.8748 43.9132 44.8162 43.7997 44.7266C43.6863 44.6371 43.6156 44.5185 43.4485 44.2076" stroke="black" stroke-linecap="round"/>
<path d="M44.947 45.9368C45.1342 45.9953 45.7075 46.2035 46.2073 46.317C46.8032 46.4524 47.4082 46.438 47.6461 46.5951C47.7866 46.6879 47.74 47.0211 47.6886 47.2267C47.6371 47.4323 47.5241 47.5548 47.334 47.6235C46.4739 47.6477 46.0217 47.41 45.7145 47.1918C45.5868 47.0748 45.5163 46.945 45.4437 46.5929" stroke="black" stroke-linecap="round"/>
<path d="M18.9893 43.5421C19.138 43.5645 19.6302 43.6773 20.0213 43.5307C20.1148 43.4957 20.235 43.6054 20.3328 43.7025C20.4305 43.7996 20.5086 43.9114 20.4938 44.0034C20.479 44.0955 20.3688 44.1644 20.2559 44.169C20.143 44.1737 20.0308 44.1119 19.9108 44.0687C19.7908 44.0255 19.6664 44.0028 19.3817 43.886" stroke="black" stroke-linecap="round"/>
<path d="M14.5254 44.1986C14.6731 44.2419 15.0431 44.3744 15.2554 44.4984C15.4611 44.6187 15.4499 45.0268 15.3696 45.3387C15.2894 45.4303 15.1289 45.3865 15.0153 45.2799C14.9018 45.1732 14.84 45.0049 14.7075 44.5028" stroke="black" stroke-linecap="round"/>
<path d="M15.6013 46.1735C15.8048 46.1735 16.4041 46.2731 16.8937 46.4752C17.386 46.6784 17.6709 46.9795 17.8142 47.0085C17.6721 46.9585 17.3669 46.7294 17.0766 46.3798C16.9437 46.2129 16.8401 46.0673 16.6413 45.6683" stroke="black" stroke-linecap="round"/>
<path d="M2.90938 51.7729C2.90938 53.0494 2.27291 56.4397 1.6187 57.7096C1.48286 57.9733 1.37492 58.2539 1.67319 58.6502C3.24774 60.7421 4.96623 60.8634 6.4007 61.5296C7.12358 61.7214 7.87708 61.7897 8.60538 61.759C8.94007 61.7282 9.2039 61.6666 9.68243 61.23" stroke="black" stroke-linecap="round"/>
<path d="M54.3647 39.6304C54.3647 39.6893 54.3647 43.276 54.308 48.8152C54.2701 52.5269 52.6753 55.7588 51.829 57.564C50.7852 59.7908 49.6685 62.3963 47.7271 64.859C46.4806 66.1847 45.655 66.839 44.8873 67.3876C44.4727 67.6565 44.0072 67.906 43.02 68.2201" stroke="black" stroke-linecap="round"/>
<path d="M17.8844 27.1012C17.1872 27.1012 15.442 27.3147 14.551 28.0239C13.0293 29.235 13.9643 32.8395 13.658 33.2946C11.1655 34.7439 7.18584 37.7615 5.17043 39.5837C4.43314 40.2637 4.27541 40.4471 3.83051 41.0619" stroke="black" stroke-linecap="round"/>
</svg>
