<svg width="60" height="84" viewBox="0 0 60 84" fill="none" xmlns="http://www.w3.org/2000/svg">
<path d="M3.19122 83.043C3.42645 82.9625 4.15765 82.6258 5.99159 81.87C7.29608 81.3324 9.34285 80.1468 12.2389 78.154C14.2551 76.7666 16.0967 74.6769 17.2103 73.6602C17.3833 73.4432 17.5002 73.2213 17.7433 72.8525C17.9865 72.4836 18.3524 71.9744 18.574 71.5768" stroke="black" stroke-linecap="round"/>
<path d="M18.574 71.3161C19.3083 65.1447 19.7085 61.7897 19.7324 61.6054C19.7953 61.1212 19.5748 62.8279 19.4741 64.1417C19.3444 65.3563 19.2037 66.2103 19.1129 66.7844C19.1052 66.7704 19.1052 66.5716 19.0043 66.009" stroke="black" stroke-linecap="round"/>
<path d="M10.4276 47.4618C10.4276 47.6167 10.5432 48.3502 10.8658 49.0942C11.275 50.0376 11.6985 50.838 12.5496 52.2804C13.0864 53.1903 13.6863 54.0626 14.0747 54.6611C14.5888 55.4534 15.3434 56.4103 15.63 57.0036C15.9333 57.6316 16.3591 58.3085 16.7949 58.8634C17.2526 59.4463 17.9629 59.9133 18.65 60.556C19.2522 61.1192 19.7506 61.5745 20.6231 62.1034C21.8525 62.8488 23.1911 63.2504 24.0061 63.5908C24.9371 63.9796 25.9189 64.1539 31.3396 64.2004C33.0332 64.215 33.972 63.9656 36.4844 63.2333C37.5202 62.8414 38.1937 62.5534 38.9976 62.1921C39.3062 62.0587 39.7651 61.8603 40.6155 61.5209" stroke="black" stroke-linecap="round"/>
<path d="M19.2006 62.7047C19.2006 62.7296 19.2006 63.9916 19.2115 65.968C19.2443 66.8625 19.285 67.2073 19.3199 67.874C19.3366 68.3683 19.3513 69.1792 19.1913 70.4302" stroke="black" stroke-linecap="round"/>
<path d="M3.94963 72.5073C3.93124 72.7161 3.67366 73.7572 3.2315 74.8099C2.95755 75.4621 2.8118 76.3794 2.5812 77.2098C2.38711 77.9087 2.43204 79.041 2.72268 79.8293C2.97899 80.5244 5.08119 80.2123 6.15603 79.9033C6.82092 79.7121 7.58454 78.3775 8.28877 77.3496C8.46376 77.0942 8.61925 76.7097 8.6854 76.6149C9.2168 75.853 7.7007 79.1091 6.91502 80.2582C6.08452 81.4729 4.72657 81.8836 3.88409 82.1693C3.64828 82.2493 3.36766 82.2969 3.26867 82.4217C3.16968 82.5464 3.25651 82.7328 3.37061 82.8742C3.48471 83.0157 3.62343 83.1066 3.85937 83.1608C5.96692 83.6449 8.216 80.4033 8.45407 80.3245C9.14048 80.0973 8.91356 81.8568 9.53086 82.4859C9.75981 82.6207 10.0561 82.732 10.4633 82.802C10.8704 82.8721 11.3796 82.8974 12.0373 82.6827" stroke="black" stroke-linecap="round"/>
<path d="M14.19 30.2804C14.2913 30.1074 14.8759 29.5761 15.7618 29.0405C16.3751 28.6696 17.0975 28.2438 17.8473 28.0392C19.3367 27.6325 21.4996 28.0587 22.132 28.3132C22.7874 28.577 23.0158 29.4933 23.0325 30.0901C22.7927 30.2615 20.4893 30.3201 17.1986 30.3892C16.0453 30.4584 15.9411 30.5967 15.9106 30.8711" stroke="black" stroke-linecap="round"/>
<path d="M21.0462 30.933C20.7141 30.933 19.441 30.7953 18.539 30.6318C18.079 30.5485 17.6289 30.704 17.3602 30.9817C16.7333 31.6297 17.6618 32.4651 18.142 32.9578C18.643 33.4718 19.6256 33.3312 20.8964 33.2804C21.1467 33.027 21.1768 32.3362 21.1332 31.4806C21.0895 31.1416 21.0023 30.9962 20.7211 30.5553" stroke="black" stroke-linecap="round"/>
<path d="M20.6307 31.237C20.3783 31.2255 19.7599 31.1804 19.4292 31.1938C19.2706 31.2002 19.1466 31.322 19.1264 31.4519C19.1061 31.5818 19.1975 31.7459 19.3139 31.876C19.4303 32.006 19.569 32.0972 19.6975 32.0892C19.8259 32.0813 19.9399 31.9716 19.9178 31.8734C19.8956 31.7752 19.7338 31.6919 19.5704 31.6489C19.4071 31.606 19.2471 31.606 19.2378 31.6788C19.2286 31.7516 19.3749 31.8973 19.6327 31.9724C19.8905 32.0474 20.2554 32.0474 20.4038 31.9756C20.5523 31.9038 20.4732 31.7601 20.0035 31.8679" stroke="black" stroke-linecap="round"/>
<path d="M21.3433 29.1171C21.3433 29.1412 20.5265 29.1536 19.1534 29.2152C18.3262 29.4 17.8923 29.5778 17.5851 29.7063C17.4328 29.7839 17.2877 29.8866 17.1382 30.1467" stroke="black" stroke-linecap="round"/>
<path d="M37.8183 30.3937C37.4824 30.4732 36.6605 30.8307 36.0396 31.3207C35.8645 31.4589 35.7579 31.7176 35.6946 31.9186C35.6314 32.1196 35.6461 32.2878 35.7784 32.4992C35.9107 32.7107 36.1602 32.9603 36.4085 33.0962C36.6568 33.2321 36.8965 33.2466 37.0909 33.1646C37.483 32.9991 37.6203 32.5269 37.6481 32.1657C37.6611 31.9962 37.5412 31.8571 37.4154 31.7776C37.2895 31.6982 37.1279 31.6833 37.0058 31.7525C36.8838 31.8217 36.8061 31.9756 36.7661 32.1899C36.7261 32.4042 36.7261 32.6743 36.8392 32.8134C36.9523 32.9526 37.1785 32.9526 37.317 32.8505C37.4554 32.7485 37.4994 32.5444 37.4887 32.3654C37.478 32.1864 37.4114 32.0386 37.2962 31.9991C37.181 31.9596 37.0192 32.0327 36.9026 32.1471C36.6711 32.3743 36.6032 32.7486 36.6228 33.0364C36.6317 33.1673 36.8751 33.1927 36.7092 33.2154C36.5432 33.238 36.021 33.238 35.8578 33.287C35.7095 33.3316 36.5456 33.5534 37.1074 33.5111C37.9128 33.4506 35.5283 32.0681 35.1281 31.4876C35.9421 30.8807 36.6971 30.7259 37.2112 30.7523C37.3835 30.8298 37.376 31.0374 37.3682 31.2512" stroke="black" stroke-linecap="round"/>
<path d="M23.3741 42.9397C23.9197 42.9616 25.5121 43.122 26.6161 43.2337C27.8955 43.3632 28.8868 43.2463 29.1446 43.3142C29.9114 43.5163 29.2499 44.6434 29.1064 44.919C28.7879 45.5309 27.5871 45.2526 26.8376 45.3887C25.4033 45.6491 23.4989 45.4487 23.2304 45.1905C22.9921 44.8492 22.8449 44.4828 22.7944 44.0938C22.7773 43.8748 22.7773 43.6118 23.0887 43.5508" stroke="black" stroke-linecap="round"/>
<path d="M25.9639 41.3671C25.9639 41.3214 25.9639 41.0767 25.8922 40.7875C25.8683 40.6915 25.677 40.811 25.6031 41.1011C25.5292 41.3913 25.5292 41.8774 25.5602 42.2444C25.5911 42.6115 25.6531 42.8448 25.9057 43.4177" stroke="black" stroke-linecap="round"/>
<path d="M25.9465 40.9139C25.9465 41.0975 26.0036 41.6221 26.1427 41.8099C26.1927 41.8774 26.3305 41.6849 26.385 41.4577C26.4394 41.2305 26.4394 40.9224 26.3272 40.7335C26.215 40.5445 25.9907 40.484 25.377 40.4576" stroke="black" stroke-linecap="round"/>
<path d="M31.9663 39.8113C31.9663 40.1961 32.0766 41.2161 32.2698 41.6957C32.4529 41.0939 32.3259 40.4209 32.2 40.1425C32.2013 40.0073 32.3347 39.8845 32.5353 39.9537" stroke="black" stroke-linecap="round"/>
<path d="M32.7427 43.3242C32.4555 43.362 31.7219 43.4545 31.4697 43.6831C31.2126 43.9162 31.295 44.3374 31.3738 44.6464C31.4131 44.8004 31.5066 44.9314 31.6269 45.0221C31.7472 45.1129 31.9058 45.1549 32.0563 45.1181C32.3737 45.0404 32.5122 44.6871 32.6325 44.4564C32.6881 44.3498 32.8897 44.395 32.8282 44.4017C32.7667 44.4083 32.4762 44.4083 32.3129 44.4877C32.1497 44.5671 32.1225 44.7258 32.0732 44.7283C32.0238 44.7308 31.9531 44.5723 31.7973 44.5588" stroke="black" stroke-linecap="round"/>
<path d="M19.7813 53.0302C21.0094 53.0302 24.1184 52.8831 25.5576 52.2902C26.5189 51.8943 26.8513 51.1951 27.7626 50.37C28.3656 49.8241 29.4652 49.8815 30.2677 49.7265C30.4405 49.6931 30.6056 49.6172 30.7787 49.6007C31.6203 49.5206 32.4961 51.0294 33.2242 51.5102C34.0403 52.0492 34.7066 52.2888 35.7535 52.43C36.9589 52.5925 37.9025 52.4893 38.1767 52.6421C38.31 52.7163 38.326 52.9225 38.3089 53.0914C38.2919 53.2604 38.2145 53.4211 38.1078 53.5479C37.2577 54.5578 34.3189 53.7586 32.6313 53.405C29.2442 52.6953 26.3062 53.1537 25.2199 53.4592C24.1276 53.7664 23.2324 54.1117 22.2427 54.6133C21.8643 54.805 21.3721 54.83 20.8448 54.7491C20.4544 54.5064 20.2214 54.1856 20.1161 53.8673C20.0803 53.7031 20.0803 53.5333 20.0803 53.3584" stroke="black" stroke-linecap="round"/>
<path d="M27.3117 55.8572C27.4431 56.0933 28.0028 56.7659 28.7435 57.1305C29.0404 57.1832 29.4831 57.1979 29.7916 57.1666C30.1001 57.1352 30.2609 57.0574 30.4265 56.9772" stroke="black" stroke-linecap="round"/>
<path d="M37.0289 53.1218C36.842 53.1371 35.7727 52.7041 34.7944 52.0553C33.2542 51.034 32.4957 50.8199 31.6132 50.5315C29.6824 49.9006 28.6204 50.898 27.8291 51.1881C26.7893 51.5693 25.7143 51.8369 24.6363 52.1603C24.0919 52.3236 23.5883 52.7212 23.1232 53.0473C22.9162 53.1925 22.7909 53.3275 23.3088 53.2613C26.4541 52.8593 27.1509 52.3773 27.8742 52.2099C29.0651 51.9343 30.4547 51.9723 31.3453 51.9078C32.9076 51.7947 34.4035 52.4901 35.3784 52.8642C35.7208 52.9956 36.0913 53.0238 36.2797 53.1436C37.2799 53.7802 32.9242 53.3731 32.014 53.2597C30.3899 53.0574 27.444 53.5741 26.237 53.9801C24.9973 54.3971 24.2174 54.4101 23.6423 54.3619C23.4174 54.343 24.6051 53.8698 25.9659 53.61C27.1213 53.3894 29.8564 53.2796 32.3753 52.978C32.7595 52.932 31.141 52.5276 30.416 52.378C29.691 52.2283 29.8606 52.1985 30.2489 52.1831C30.6372 52.1678 31.2391 52.1678 31.0307 52.155C30.8224 52.1422 29.7855 52.1167 29.3678 52.0901C29.1759 52.0779 30.24 52.0093 31.276 51.944C32.359 51.8757 29.0079 51.3222 28.0846 51.6162C26.9655 51.9724 25.1758 53.1913 24.5539 53.5891C22.5599 54.8645 30.7318 51.9592 31.722 51.2853C31.8962 51.1668 32.0459 51.1036 32.414 51.2707C34.2949 52.4798 35.9221 53.3304 37.2579 53.6969C37.636 53.7393 38.154 53.7611 38.6876 53.7837" stroke="black" stroke-linecap="round"/>
<path d="M42.3918 59.3076C42.4856 58.9212 43.2141 57.2777 43.9949 55.7149C44.3854 54.9331 44.8548 54.3126 45.2898 53.616C45.7072 52.9476 45.7027 50.3154 46.3046 46.6995C46.6906 45.4387 46.897 44.2713 47.0062 42.3344C47.0247 41.0111 47.0247 38.5445 47.0247 36.0031" stroke="black" stroke-linecap="round"/>
<path d="M47.0247 36.003C46.8144 35.952 46.1638 35.702 45.4142 35.037C44.6682 34.3751 44.0654 33.3123 43.2365 31.6279C42.7213 30.5811 42.551 29.7559 42.1604 28.4219C42.0658 28.0986 41.9898 27.8927 41.7646 27.7433C40.7526 27.0721 39.6647 27.0358 38.39 26.646C36.9253 26.1981 35.9841 25.9054 34.1945 25.8637C33.5305 25.8482 32.7972 25.8116 32.0394 25.7026C31.6443 25.6458 31.6112 25.1182 31.525 24.8499C30.9431 23.0371 37.1692 24.6112 37.928 24.8486C38.5926 25.0566 39.2356 25.3694 39.7395 25.4942C39.9643 25.5498 40.1332 25.5597 40.2215 25.031C40.4863 23.4463 40.1719 22.2018 39.827 22.0167C39.4311 21.8041 38.9846 21.9717 38.7325 22.1363C38.4648 22.3111 38.5538 22.7509 38.5185 23.0118C38.5027 23.1293 38.296 23.1448 38.1044 23.0885C37.16 22.811 36.5514 22.1318 35.9204 21.6655C34.847 20.8721 34.2043 20.0724 33.1934 19.533C32.9439 19.3999 32.6966 19.4265 32.5932 19.497C32.1393 19.8068 32.6974 20.5902 32.6585 20.9845C32.5883 21.6956 31.6412 21.7182 31.3411 21.7574C31.0455 21.796 30.7759 21.5368 30.3998 21.6172C29.2273 21.8682 28.5728 22.8119 27.6278 23.4011C26.874 23.871 26.2714 24.3127 25.7349 24.8602C25.2175 25.3882 25.0697 26.1228 24.4108 26.5571C22.6516 27.7167 19.9947 26.6459 19.2768 26.5999C18.5244 26.5516 17.9713 26.759 17.0089 26.9813C15.9438 27.2272 15.315 27.8424 14.7904 28.3987C14.2037 29.0208 13.6767 29.1182 13.374 29.3875C12.7961 29.9016 13.0616 30.876 12.9898 31.3407C12.9189 31.7996 12.9435 34.6893 12.9268 38.7893C12.9188 40.774 13.0274 43.0565 12.9236 44.6457C12.8573 45.6608 12.1589 46.5375 11.5466 47.1785C11.422 47.3089 11.2268 47.3113 11.0603 47.4995C9.90045 48.8105 10.0593 51.0203 10.0791 52.0395C10.0836 52.2695 10.1947 52.4044 10.295 52.4148C10.9218 52.4795 11.0323 50.3783 11.3099 49.2019C11.3665 48.9618 11.4518 48.7012 11.5015 48.6976C12.8076 48.6015 13.0957 52.443 13.9102 53.6044C14.7071 54.7408 14.9549 55.5275 15.3209 56.3198C15.8595 57.486 18.1332 59.6141 19.3375 60.7062C19.9471 61.259 20.5456 61.6623 21.0865 62.1108C21.6258 62.558 22.2324 62.9144 24.3342 63.5372C25.0859 63.76 25.6041 63.7043 27.0726 63.7322C30.5949 63.7991 33.0975 63.7398 33.5219 63.6541C34.8624 63.3836 36.3652 62.9526 37.812 62.4881C38.2946 62.2935 38.6505 62.1548 38.9593 62.0509C39.1151 61.9948 39.2689 61.9319 39.5092 61.75" stroke="black" stroke-linecap="round"/>
<path d="M6.10295 66.903C5.94546 67.2853 5.5855 68.4643 5.41086 69.1883C5.33094 69.5197 5.16623 69.8857 4.95013 70.2536C4.54937 70.9359 3.31243 70.8951 2.63525 70.7929C2.23157 70.7319 2.33557 70.0521 2.37919 69.5822C2.524 68.0225 3.96398 66.4354 4.39293 65.1139C5.79756 60.7866 4.66328 59.7453 5.00567 57.4263C5.16751 56.3301 5.26569 55.6189 5.63834 54.4942C5.78919 54.0389 5.89825 53.3881 5.73416 52.5209C5.36971 50.5951 3.4618 49.6552 2.54742 47.3853C2.19312 46.5058 1.97789 45.9582 1.81315 44.6513C1.42464 41.5693 1.46053 39.2684 1.53022 38.7076C1.73885 37.0286 0.853157 35.5477 0.889844 33.8733C0.91313 32.8104 1.8014 31.0647 2.63742 28.8572C3.84826 25.6601 3.10333 23.1967 3.0962 22.1324C3.08966 21.1568 3.93509 19.2094 4.18302 17.522C4.4801 15.5 4.65355 14.4438 5.18282 13.326C6.05809 11.4776 8.54523 9.66621 9.40031 8.9694C10.0974 8.40132 10.9103 8.20015 11.8558 7.78057C12.5814 7.45855 13.118 6.93617 14.3538 6.35867C15.6507 5.75259 16.8005 5.0116 17.4112 4.59274C17.7265 4.37645 18.1728 4.19374 18.4816 4.06017C18.9488 3.85805 17.1838 4.62979 16.3557 5.14964C15.6967 5.56334 15.0365 5.88 14.1583 6.40162C13.7644 6.63556 13.4284 6.79992 13.198 6.75565C12.2534 6.57415 14.5583 4.06874 16.2803 2.16422C16.9486 1.42505 17.7043 1.27538 19.639 1.05001C20.4603 0.954343 21.6393 1.01622 22.0831 1.06802C22.5269 1.11981 22.2047 1.22339 21.8737 1.30138C21.5427 1.37936 21.2128 1.4286 20.8366 1.46459C20.4603 1.50058 20.0478 1.52183 20.9459 1.53277C21.8441 1.54372 24.0654 1.54372 25.3387 1.5332C26.612 1.52267 26.87 1.50163 29.151 1.47986C31.432 1.45809 35.728 1.43623 38.072 1.45765C40.679 1.48149 41.1803 1.7246 41.738 2.03472C42.5028 2.45999 43.0919 3.07204 43.831 4.36858C45.3787 7.08353 46.3418 9.2643 46.7412 9.8837C47.7357 11.4263 48.4684 12.923 48.8635 14.0495C49.6585 16.3162 50.9996 18.4548 51.5569 19.4605C52.0808 20.4059 52.412 21.4035 52.5452 22.1479C52.8234 23.7034 52.4678 26.276 52.1702 26.9593C52.0072 27.3335 51.7985 27.6936 51.5422 27.951C51.4186 28.0751 51.219 28.0776 51.0621 28.1667C49.4836 29.0636 50.8649 34.0171 51.222 35.1307C51.3178 35.4294 51.8269 35.4172 52.1668 35.5859C52.8349 35.9176 52.7293 37.9288 52.4514 39.8215C52.3312 40.6397 52.7411 41.6276 52.3893 42.5987C52.1588 43.235 51.5502 43.5044 51.3175 43.7366C51.2023 43.8516 51.1596 44.0191 51.1291 45.5307C51.0986 47.0424 51.0986 49.9081 51.1579 51.8829C51.2902 56.284 51.5609 57.476 51.6577 58.9037C51.7779 60.6748 51.6519 61.97 51.6187 62.9333C51.4854 66.8106 51.7564 67.5348 52.2374 68.6108C52.8945 70.0803 53.5793 70.515 54.1857 71.1134C54.7555 71.6757 55.3748 72.5499 55.9641 73.3032C56.5291 74.0253 57.3915 73.8886 57.683 73.9124C58.7873 74.0026 54.5979 73.9818 54.1351 73.6547C53.3046 73.0675 56.551 74.5139 58.3562 74.6129C58.9858 74.6474 59.0063 74.9099 59.0204 75.0994C59.0345 75.2889 59.0345 75.464 58.9457 75.633C58.7498 76.006 58.3433 76.1725 57.9502 76.2492C56.8084 76.4722 55.833 75.9168 53.3457 74.1613C51.6341 72.9532 49.9911 71.8433 48.9079 71.3449C48.014 70.9335 47.8233 73.2768 47.6271 74.5364C47.5139 75.2626 46.3382 75.1289 45.6299 75.0925C45.3195 75.0766 45.1263 74.9101 44.9748 74.7668C44.6213 73.7612 44.5136 72.4738 44.2251 72.106C44.0443 71.9122 43.7936 71.704 43.1985 71.3434" stroke="black" stroke-linecap="round"/>
<path d="M32.2369 29.1338C32.4729 29.2174 33.7296 29.4234 34.7112 29.2768C35.3684 29.1787 35.9398 28.7284 37.1643 28.7072C38.0364 28.6921 38.546 29.4853 39.1215 29.8742C39.7249 30.2821 41.2605 30.6899 42.4431 31.2222C42.6252 31.3042 42.6408 31.5268 42.6019 31.6644C42.3319 32.6202 40.1456 31.8404 39.421 31.6175C38.8797 31.4509 38.3688 31.6316 38.1999 31.8192C37.9101 32.141 38.4952 32.6658 38.5033 32.9804C38.5271 33.9003 36.5154 34.1983 35.6765 34.1533C34.6202 34.0968 35.2956 32.3441 35.3135 31.6738C35.318 31.5076 35.4999 31.3929 35.4566 31.2925C35.3342 31.0086 33.8422 31.0494 32.1777 30.7286C31.5703 30.6116 31.761 29.7663 31.8989 29.4039C32.0367 29.0414 32.1969 28.9774 32.4318 28.9445C32.6668 28.9116 32.9716 28.9116 33.4894 29.2044" stroke="black" stroke-linecap="round"/>
</svg>
