<svg width="51" height="76" viewBox="0 0 51 76" fill="none" xmlns="http://www.w3.org/2000/svg">
<path d="M6.98224 30.7069C6.98224 31.6096 7.02724 33.7588 7.07943 34.4681C7.13062 35.1637 7.08096 36.1241 7.07117 38.4191C7.06753 39.2724 7.16929 39.7552 7.28706 40.5896C7.37445 41.2088 7.54897 42.7836 7.7576 45.1175C7.94102 47.1694 8.46459 48.7031 8.82851 49.729C9.21938 50.8308 9.29049 51.2957 9.53992 51.9385C9.70631 52.3674 10.2862 53.6658 10.9944 55.5078C11.6936 57.3265 12.9974 57.8909 13.4349 58.4327C13.8531 58.9505 14.8613 59.4359 15.7976 60.0587C16.5528 60.561 17.0892 61.3541 17.7785 61.6618C18.252 61.8732 19.1476 61.8434 20.1129 62.124C20.7896 62.3207 21.6953 62.7187 22.7421 63.1244C23.2355 63.3156 24.3155 63.317 25.8657 63.2973C27.2453 63.2797 28.8163 62.7868 29.7068 62.5718C31.1062 62.234 31.9942 61.8845 32.5292 61.8246C32.8058 61.7769 33.0461 61.7099 33.2451 61.6291C33.3427 61.586 33.4336 61.5386 33.5805 61.413" stroke="black" stroke-linecap="round"/>
<path d="M35.8206 61.2968C35.9892 61.2411 36.4802 60.8903 37.8578 59.6803C38.4062 59.1986 38.6229 58.6695 38.8227 57.9719C38.9748 57.4409 38.9713 56.883 39.1055 56.3067C39.2352 55.75 39.4643 55.3231 39.8386 54.4986C40.0767 53.9744 40.2832 53.5206 40.3461 52.8134C40.407 52.1284 40.6699 51.4305 40.8821 50.9434C41.0066 50.6577 41.3022 50.5627 41.6052 50.4404C41.7476 50.3829 41.8382 50.2738 41.9125 49.0789C41.9868 47.884 42.0348 45.5911 42.0844 44.2685C42.1657 42.1014 42.5139 41.3855 42.5606 40.8809C42.6095 40.3517 43.0304 39.9928 43.0172 39.3542C43.0048 38.7568 42.4929 38.0015 42.5507 37.1809C42.6108 36.3266 42.5353 35.2868 42.2389 34.035C41.7456 31.9515 41.7041 29.9497 41.6133 29.2239C41.547 28.6934 41.0426 28.2948 40.9749 27.6162C40.9169 27.034 40.9127 26.3499 40.852 25.3748C40.8176 24.8212 40.1832 24.0505 39.0609 21.7623C38.6146 20.8524 38.6201 20.2943 38.3694 19.9312C38.0737 19.5028 37.2873 19.3466 36.8584 19.2354C36.275 19.0842 36.5038 20.4827 36.3988 21.0548C36.2909 21.6425 35.9669 22.3553 35.6549 23.0801C35.437 23.5862 35.4246 24.0968 35.3163 24.6136C35.2102 25.1197 34.8851 25.4287 34.6621 25.543C34.5532 25.5988 34.4244 25.5819 34.2977 25.475C33.6528 24.9313 33.7165 24.0693 33.549 23.3622C33.1761 21.7877 32.9902 20.6441 32.9213 19.8181C32.8739 19.2499 32.5332 18.757 32.1799 18.4409C31.7572 18.0628 31.4794 17.6174 31.1487 17.3296C30.4758 16.7442 30.6396 19.6235 30.4496 20.4022C29.898 22.6635 29.5736 23.1543 29.4463 23.6774C29.2756 24.3792 29.3198 24.8992 29.1911 25.2821C29.1626 25.3667 29.0108 25.3574 28.8783 25.2823C28.2355 24.9175 27.4955 23.2609 26.9678 22.2754C26.9104 22.1682 26.8272 22.0872 26.75 22.0865C26.0562 22.0808 25.6721 24.0843 25.3632 24.8421C25.1643 25.33 25.0689 25.7567 24.9219 25.9341C24.8429 26.0295 24.6509 26.0176 24.5296 25.9527C23.3401 25.3165 23.0636 22.4758 22.4509 21.7258C22.2715 21.5062 22.0602 21.4152 21.7751 21.3738C21.4091 21.3207 21.0462 21.392 20.777 21.4746C20.2452 21.6379 20.0253 22.8811 19.9861 23.5962C19.9619 24.037 20.5633 24.4768 20.6442 24.9179C20.7376 25.4266 19.5441 25.1876 18.9986 25.3657C18.8588 25.4114 18.6897 25.4534 18.5837 25.5394C18.203 25.8483 18.1206 26.3365 17.6704 26.5379C17.5268 26.6021 17.3188 26.5605 17.1621 26.522C16.8788 26.4525 16.6793 26.0856 16.5078 25.6214C16.0522 24.3882 16.4422 22.6564 16.6271 22.0619C16.8948 21.2013 16.8209 20.1753 16.8005 19.366C16.7807 18.5803 16.2246 18.0146 16.0864 17.4721C16.0063 17.1576 16.0305 16.8671 15.9223 16.7185C15.873 16.6509 15.7508 16.6879 15.611 16.7969C14.9507 17.3118 14.6786 17.9485 14.1614 18.5295C13.9001 18.8231 13.6918 19.066 13.5496 19.238C13.4812 19.3206 13.3682 19.3423 13.3046 19.3045C12.877 19.051 13.2681 18.0692 13.3882 17.5539C13.4376 17.3418 13.4413 17.2251 13.1578 17.337C11.5029 17.9903 11.0378 18.3686 10.433 18.877C9.40779 19.7387 9.3332 20.2643 8.20798 21.9355C7.35017 23.2096 7.14168 23.6411 6.94424 24.2273C6.56321 25.3586 6.05173 25.6857 5.81725 26.1157C5.57689 26.5566 5.32419 27.174 5.17215 27.9183C5.25086 29.6198 5.51263 30.0863 5.64372 30.2812C5.70262 30.3791 5.74606 30.475 5.86767 30.7854" stroke="black" stroke-linecap="round"/>
<path d="M3.00525 46.0119C2.70468 45.2179 2.03541 43.5747 1.81243 43.1395C1.5788 42.6836 1.26963 42.2888 1.07883 41.8474C0.983169 41.626 0.991725 40.2589 1.01605 38.2709C1.03246 36.9294 1.23038 36.4738 1.48718 35.9206C1.6621 35.5438 1.83228 35.2388 1.98576 35.0691C2.39271 34.6189 3.30121 34.5055 3.66925 34.3667C3.75081 34.336 3.70878 34.1709 3.66131 34.0516C3.45368 33.5298 2.74043 33.0418 2.26265 32.4425C1.94726 32.0468 1.94863 31.4322 1.6418 27.8126C1.5033 26.1788 1.57895 23.8314 1.65445 22.219C1.72995 20.6067 1.88094 19.7956 2.25448 18.6469C3.11515 16.0001 3.87069 14.348 3.98219 13.9931C4.18141 13.3591 4.61348 13.0248 4.87235 12.5515C5.28708 11.7933 5.84223 10.8214 6.12502 10.3444C6.47644 9.7515 6.83488 8.88722 8.35982 6.74326C9.04989 5.77307 9.70263 5.27898 10.2945 4.937C11.347 4.32885 13.3052 3.86881 14.4993 3.72242C15.2728 3.6276 16.4182 3.11883 16.9958 2.9184C17.5768 2.71679 18.4752 2.28135 19.2125 2.12047C20.4252 1.85583 21.9224 1.33978 22.9158 1.14933C24.7706 0.793712 26.2097 1.16615 26.623 1.31076C27.8401 1.73662 28.2512 1.98261 28.989 2.24696C30.5545 2.80789 31.181 2.43046 31.8416 2.73317C32.4551 3.01424 33.0271 3.25852 33.7994 3.69208C34.5649 4.12177 35.1178 4.69457 35.6868 5.03224C36.9084 5.75709 37.7539 6.93832 38.1175 7.40658C38.4763 7.86859 39.2314 8.43 39.7887 8.87683C40.3715 9.34416 40.5545 10.0889 40.7918 10.5368C41.3136 11.5216 42.2477 12.8006 42.7272 13.4282C43.0753 13.8838 43.2854 14.3231 43.9874 15.8586C45.0341 18.1483 45.0618 18.6893 45.1716 19.2153C45.2378 19.5318 45.4847 20.8675 45.9956 22.6752C46.313 23.7982 46.5428 24.4344 46.6779 24.9664C46.7933 25.4209 46.6752 25.9553 46.7872 26.5288C46.8685 26.9448 46.9364 28.1748 46.9366 29.8566C46.9368 31.5258 46.2791 32.0325 46.1535 32.5727C46.1248 32.6959 46.0849 32.8071 46.1244 32.9127C46.164 33.0183 46.2821 33.1145 46.4278 33.1386C47.1032 33.2506 47.6885 32.7706 48.1492 32.6416C48.2855 32.6034 48.4662 32.627 48.5802 32.6769C49.0196 32.8693 48.8862 34.5937 48.7225 36.1908C48.6585 36.8148 48.2966 38.6607 48.194 40.2637C48.1501 40.9492 47.6601 41.7578 47.5256 42.3814C47.3233 43.319 46.8802 44.109 46.1366 45.4476C45.8049 46.0448 45.7063 46.5727 45.6239 47.4014C45.4333 49.3199 45.1616 50.1512 45.0919 50.8951C44.99 51.9835 44.7851 53.1528 44.5908 54.467C44.2437 56.8145 44.5648 58.5865 44.5993 58.8731C44.7302 59.9585 44.9273 61.5719 45.3067 62.1914C45.7485 62.9128 45.6021 63.8165 45.6421 64.3319C45.7006 65.0863 46.0179 66.0325 46.2309 66.515C46.5857 67.3186 46.9824 67.7774 47.1999 68.1738C47.6052 68.9123 48.1493 69.9599 48.5121 70.5909C48.5925 70.7401 48.6413 70.8422 48.6816 70.9432C48.7219 71.0441 48.7522 71.1409 48.7834 71.2406" stroke="black" stroke-linecap="round"/>
<path d="M49.5893 70.8193C49.5893 71.0298 49.6858 71.6356 49.8837 72.2104C50.0332 72.6445 50.1031 73.0528 50.2513 73.8475C50.2999 74.1084 50.2939 74.4183 50.1865 74.5804C50.0791 74.7426 49.8525 74.7504 49.6853 74.7332C49.1521 74.6781 48.6366 73.9713 48.0118 72.6415C47.2453 71.0099 47.2644 70.4255 46.9514 69.9114C46.4296 69.0542 45.8311 68.7438 45.5014 68.337C45.421 68.2378 45.3305 68.1685 45.22 68.1253C45.1094 68.0821 44.9749 68.0726 44.867 68.1117C44.7591 68.1508 44.6818 68.2387 44.642 68.4301C44.4463 69.3716 44.9997 69.9326 45.3846 70.3642C45.4832 70.4748 45.5903 70.5604 45.6518 70.6574C45.7132 70.7544 45.7317 70.8547 45.6992 70.9363C45.414 71.6538 43.5387 71.0371 42.8197 70.5504C41.7433 69.8217 41.112 69.6619 40.4306 69.5286C39.8943 69.4237 39.4752 68.9447 38.9795 68.6599C38.3872 68.3197 37.932 67.7904 37.6901 67.2006C37.2264 66.0702 36.9819 64.7147 36.7729 64.2274C36.6746 63.7771 36.6364 63.1248 36.5407 62.608C36.516 62.5014 36.4981 62.3996 36.4559 62.2694" stroke="black" stroke-linecap="round"/>
<path d="M16.0232 47.5024C16.1057 47.5868 16.5905 48.0127 17.0111 48.3578C17.3843 48.6641 17.9232 48.8234 19.223 48.8581C20.1392 48.8824 20.9111 48.3213 21.4097 48.0826C21.9794 47.81 22.4999 47.691 23.367 47.5484C24.7834 47.3156 25.3177 47.6082 25.821 47.6928C26.3885 47.7881 26.9081 47.9705 27.5246 48.0414C28.376 48.1394 29.539 48.0877 30.4081 48.1252C30.865 48.2064 31.2504 48.3008 31.4796 48.3797C31.5873 48.4213 31.6778 48.466 32.0474 48.6185" stroke="black" stroke-linecap="round"/>
<path d="M28.6545 49.2534C28.68 49.3865 28.9169 49.9561 29.1727 50.417C29.2847 50.6188 29.3252 51.0384 29.2775 51.5832C29.2078 52.3797 28.5737 52.7864 28.3985 53.3444C28.2465 53.8288 28.1559 54.287 27.922 54.7366C27.8152 54.9419 27.8068 55.2216 27.743 55.4876C27.6134 56.0274 26.2995 55.5937 25.6624 55.4098C24.5592 55.0913 23.917 54.8645 23.4779 54.7869C23.0111 54.7044 22.4968 54.4482 22.0232 54.2121C21.6284 54.0152 21.373 53.5959 21.0831 53.2213C20.8169 52.8773 20.6894 52.4503 20.6847 51.4045C20.6813 50.6278 21.2139 49.8648 21.4121 49.2695C21.4497 49.1237 21.4868 48.9471 21.5059 48.7705C21.525 48.594 21.525 48.4228 21.525 48.2465" stroke="black" stroke-linecap="round"/>
<path d="M25.0192 48.3632C24.7771 48.6893 24.2243 49.5052 24.0709 50.0276C24.0516 50.183 24.0421 50.3689 24.0325 50.6367C24.0228 50.9045 24.0133 51.2486 24.0035 51.6032" stroke="black" stroke-linecap="round"/>
<path d="M21.3685 38.8946C21.3007 39.1109 21.0219 39.6208 20.7252 40.0939C20.4469 40.5376 20.4399 41.038 20.3138 41.4538C20.2837 41.5529 20.3089 41.6567 20.3858 41.7189C20.9641 42.1868 22.1843 41.903 23.195 41.876C23.3889 41.8709 23.3686 41.6068 23.2985 41.4025C23.0241 40.6028 22.6281 40.2841 22.2647 39.9036C22.1802 39.8151 22.0734 39.7849 21.9795 39.81C21.7941 39.9319 21.6812 40.1414 21.6481 40.3637C21.6337 40.4763 21.6242 40.5885 21.6144 40.704" stroke="black" stroke-linecap="round"/>
<path d="M28.2075 39.0542C28.0929 39.0953 27.5324 39.5484 27.0155 39.9614C26.8364 40.1045 26.7177 40.2547 26.6831 40.4612C26.6476 40.6728 26.6695 40.8815 26.7591 41.0516C26.9727 41.4569 27.7394 41.2543 28.384 41.4423C29.0025 41.6227 29.2327 41.8826 29.4129 41.8665C29.5927 41.8505 29.6062 41.262 29.5733 40.6027C29.4744 40.2277 29.3309 40.026 29.1703 39.8658C29.0852 39.7903 28.993 39.7267 28.844 39.4602" stroke="black" stroke-linecap="round"/>
<path d="M29.8561 30.178C29.9804 30.2061 30.3763 30.3381 30.7882 30.5247C31.2593 30.7382 32.51 30.8479 33.5073 30.8009C34.9583 30.7326 35.7747 31.0352 36.2463 31.195C36.7913 31.3797 37.4181 31.6123 37.7955 31.8062C38.1977 32.0128 38.6451 32.1052 38.9406 32.0955C39.7835 32.0676 37.5319 31.1185 37.0047 30.7318C36.8624 30.6274 36.7318 30.5262 36.6901 30.4272C36.6484 30.3282 36.7009 30.2325 36.6716 30.1414C36.5027 29.6168 35.5851 29.7156 35.0722 29.5885C34.5873 29.4857 34.1753 29.4407 33.6595 29.4038C33.2698 29.3882 32.6201 29.3787 31.9508 29.3689" stroke="black" stroke-linecap="round"/>
<path d="M12.8502 30.2549C13.0097 30.2549 13.5227 30.3012 14.0755 30.4155C14.8883 30.5836 15.6887 30.8875 16.5506 30.9917C18.3216 31.2057 18.794 30.8052 19.0854 30.6705C19.6443 30.412 17.1486 31.2545 15.2084 31.91C14.6882 32.0526 14.3595 32.102 13.7005 32.1371C13.2363 32.149 12.5086 32.149 11.7589 32.149" stroke="black" stroke-linecap="round"/>
<path d="M11.2047 28.7332L11.4215 28.8361" stroke="black" stroke-linecap="round"/>
<path d="M8.85349 25.4605C9.09209 25.3558 9.82778 24.9544 10.3323 24.7129C11.0477 24.3705 11.7285 24.027 12.7019 23.7927C13.5318 23.5929 14.3885 23.6086 15.0194 23.542C15.8498 23.4542 16.706 23.3877 18.0408 23.3872C18.8462 23.3869 19.287 23.7334 19.7406 24.051C20.175 24.3552 20.6591 24.7042 20.9917 24.9943C21.0429 25.0389 20.8553 25.1253 19.8996 25.1653C18.944 25.2052 17.161 25.2192 15.957 25.2216C13.4945 25.2265 13.0712 25.2976 11.4872 25.3496C10.7617 25.3734 10.434 25.4753 10.3785 25.5148C10.4238 25.5367 10.6182 25.5625 10.9402 25.5757C11.2623 25.589 11.706 25.589 12.3181 25.5468" stroke="black" stroke-linecap="round"/>
<path d="M30.1974 23.4356C30.4192 23.424 31.2911 23.2894 31.9625 23.2122C32.4049 23.1614 32.8005 23.0922 33.6894 23.0576C35.832 22.9741 37.5658 23.0849 38.0915 23.2092C38.696 23.352 39.1951 23.6859 39.4986 23.918C40.2823 24.5175 37.0063 23.9677 36.558 23.95C36.4489 23.9442 36.3462 23.9326 36.1897 23.9267C36.0332 23.9207 35.826 23.9207 35.5317 23.8927" stroke="black" stroke-linecap="round"/>
<path d="M3.55267 24.1091C3.55267 24.0944 3.55267 24.0797 3.55267 23.5688C3.55267 23.0579 3.55267 22.0513 3.56529 21.4794C3.5779 20.9075 3.60314 20.8008 3.62913 20.6909" stroke="black" stroke-linecap="round"/>
</svg>
