<svg width="56" height="71" viewBox="0 0 56 71" fill="none" xmlns="http://www.w3.org/2000/svg">
<path d="M6.51682 33.0492C6.33112 33.0394 5.75749 32.7993 5.15733 32.5626C4.47609 32.294 3.65751 32.0613 2.94848 31.8275C2.64804 31.7284 2.35449 31.615 2.04268 31.5815C1.8849 31.5646 1.72538 31.6517 1.58743 31.8823C1.24008 32.4629 1.14814 33.2626 1.03685 34.3372C0.84654 36.1747 1.42387 38.8501 2.06759 41.397C2.62687 43.6099 2.51633 44.476 2.75089 45.2999C2.87416 45.7328 3.09554 46.1133 3.38823 46.433C4.03835 47.1431 5.61805 47.1433 6.5753 46.8629C7.23399 46.6699 7.23489 45.5497 7.30898 44.8715C7.37961 44.57 7.52428 44.2831 7.73148 44.0268C7.83761 43.9047 7.94573 43.7987 8.0138 43.5649" stroke="black" stroke-linecap="round"/>
<path d="M49.4336 32.0188C49.7144 32.1057 50.4609 32.5209 50.9985 32.8821C51.6053 33.2898 52.1713 32.103 52.783 31.5535C53.6512 30.7736 54.4097 30.3146 55.0039 30.0342C55.1267 29.9762 55.2639 30.1208 55.3279 30.5184C55.6646 32.6111 55.0998 33.8599 55.0115 34.6938C54.9758 35.031 54.9669 35.4348 54.8713 36.3836C54.6766 38.3154 54.1971 40.8668 53.9001 42.9579C53.7197 44.2275 53.6763 45.0033 53.5653 45.7541C53.5405 45.9223 53.501 46.0685 53.1257 46.1504C51.0889 46.5946 49.2548 45.1899 48.2461 44.3797C47.7266 43.9624 48.8883 43.2444 49.1733 41.4815C49.4732 39.6265 50.1754 38.1861 50.8758 36.3466C51.1187 35.7087 51.3539 35.3557 51.5795 35.294C52.5601 35.0257 52.0964 39.3784 51.9335 41.096C51.8057 42.4436 51.9155 37.4339 52.047 36.712C52.0776 36.544 52.1053 36.3894 52.0584 36.3578C51.6576 36.6606 51.3054 37.2012 51.0144 37.7769C50.8633 38.0946 50.7053 38.4638 50.5424 38.8869" stroke="black" stroke-linecap="round"/>
<path d="M8.71718 44.2136C8.71718 44.6847 8.63334 45.9817 8.63736 47.4651C8.64006 48.4625 9.26936 49.088 9.62418 49.8701C10.1866 51.1098 10.1643 52.8304 10.2611 53.8679C10.3996 55.3506 11.055 55.8828 11.3645 56.4634C11.7746 57.2326 12.6587 57.9237 13.3609 58.7681C13.997 59.5328 14.5781 60.0752 15.0947 60.5136C15.7364 61.0582 18.7801 61.8089 20.4908 62.5392C21.465 62.9551 23.0995 63.0065 24.0666 62.9381C25.8387 62.8129 28.8871 62.8964 29.7645 63.0839C30.277 63.1934 30.7399 63.173 32.0095 63.1994C35.1429 63.2646 37.4405 63.0372 38.1558 62.5253C40.7027 60.7023 42.0774 60.0998 42.6006 59.5595C43.252 58.8867 43.6507 57.9087 43.903 57.1051C44.1749 56.2393 44.4845 55.4008 44.6486 54.6232C44.7927 53.9399 44.8051 53.1652 46.7666 48.1738C47.5893 46.0803 47.686 45.1489 47.8025 44.4313C47.9542 43.4964 48.5316 41.8525 48.8617 40.5381C49.1817 39.2635 49.5014 36.7151 49.734 34.9928C49.7983 34.5168 49.8908 34.1598 49.9383 33.7593C49.9869 33.3484 50.0284 30.7932 50.0389 27.1476C50.0442 25.2727 50.1608 24.488 50.3453 22.599C50.8186 17.7512 50.2662 16.8156 50.0643 16.1054C49.8425 15.3251 49.0177 14.2197 48.5224 12.9502C48.3553 12.5218 48.1415 12.1373 47.8192 11.739C47.1627 10.9275 46.1492 10.8926 45.0487 9.85973C44.2104 9.07292 42.8743 8.45529 41.9282 7.8197C39.5356 6.2123 38.3469 5.24729 37.3703 5.04141C36.623 4.88385 35.8926 3.74591 34.6687 3.39828C33.6419 3.10664 32.4436 2.94743 31.374 2.41462C29.6157 1.53879 28.2316 0.996283 26.7888 1.00002C24.2975 1.00647 21.168 2.96155 20.4998 3.19491C19.6064 3.50694 18.3619 3.48482 16.853 4.1832C15.8904 4.6287 15.3301 5.15339 14.0092 5.90275C13.266 6.32436 12.6394 6.6774 11.8771 7.37102C11.6054 7.6183 11.3565 8.05186 10.6735 9.51115C9.99037 10.9705 8.9148 13.4755 8.2953 14.8827C7.35606 17.0161 6.9249 19.0792 6.77882 20.4304C6.68471 21.3009 6.38317 22.2369 6.07744 23.0659C5.67737 24.1507 5.43436 25.2289 5.31819 26.177C5.03711 28.4711 5.32581 32.3178 5.56188 33.16C5.81805 33.6822 6.08029 34.0936 6.31143 34.2531C6.43895 34.2905 6.58723 34.2395 6.74 34.1871" stroke="black" stroke-linecap="round"/>
<path d="M6.01879 27.2287C6.01879 26.5266 6.06071 24.5903 6.17704 23.7555C6.40319 22.1324 6.3383 20.5397 6.03202 19.9047C5.84363 19.5142 5.60905 19.1901 5.47552 19.0675C5.07128 18.6963 5.34597 20.6191 5.60494 22.2448C5.69001 22.6254 5.76307 22.912 5.81472 23.1365C5.86636 23.361 5.89437 23.5148 6.04135 24.0335" stroke="black" stroke-linecap="round"/>
<path d="M9.83665 12.9154C8.85895 12.9154 6.68804 13.2049 6.12922 13.6479C6.00345 13.7476 5.91392 13.8753 5.98122 13.9375C6.63474 14.541 7.90992 13.7236 8.77928 13.6983C9.19402 13.6863 9.7288 13.6484 10.2491 13.7207C10.4345 13.8074 10.4602 13.9954 10.4734 14.2707C10.4866 14.546 10.4866 14.9029 10.4866 15.2706" stroke="black" stroke-linecap="round"/>
<path d="M8.06364 30.6542C8.03485 30.4402 7.86239 29.8261 7.58381 29.381C7.54069 29.3121 7.41313 29.4954 7.358 29.6429C7.24468 29.9461 7.26707 30.5361 7.34278 31.1697C7.37137 31.409 7.5699 31.4388 7.73213 31.4348C8.06702 31.4266 8.47417 31.1786 8.86962 30.8814C9.15861 30.6643 9.17005 30.0746 9.08612 29.4745C9.00219 29.2617 8.83432 29.2351 8.55128 29.2213C8.26824 29.2076 7.87511 29.2076 7.47007 29.2076" stroke="black" stroke-linecap="round"/>
<path d="M7.36443 39.439C7.36443 39.3947 7.33269 39.1876 7.2425 38.8451C7.01377 37.9767 5.68684 37.4473 4.92461 37.2014C4.29155 36.9971 3.98772 36.2768 3.59911 35.7161C3.40636 35.438 3.31252 34.9138 3.13593 34.3551C3.06113 34.1184 3.07589 33.9601 3.2892 33.8807C3.89352 33.6557 4.56378 33.85 4.94645 33.9866C5.87489 34.318 6.46217 35.7941 6.6683 36.7159C6.82389 37.4116 7.22093 38.4903 7.64585 39.8227C8.34907 42.0277 7.62519 45.054 7.14104 46.0585C6.43391 46.85 6.01977 47.1434 5.74125 47.2921C5.59768 47.3531 5.4496 47.3846 5.22283 47.4171" stroke="black" stroke-linecap="round"/>
<path d="M17.5245 50.4378C17.7525 50.54 18.5238 50.7931 19.1869 51.0706C19.839 51.3436 20.4637 51.607 21.2188 51.7649C21.6469 51.8544 22.5378 51.9548 23.6189 51.9263C24.4759 51.9038 24.8701 50.9843 25.4189 50.432C25.9624 49.885 26.82 49.684 27.4928 49.5594C28.2273 49.4233 29.1141 49.9137 30.2777 50.1661C31.2682 50.3809 32.0455 50.6144 33.0444 50.6999C35.116 50.8771 35.844 50.3309 36.2968 50.023C36.3584 49.9811 36.3936 50.1931 36.3776 50.3493C36.3616 50.5055 36.3048 50.6593 36.1764 50.7753C35.5095 51.3781 33.1868 51.1375 31.7732 50.9693C31.3976 50.9246 30.5028 50.8283 29.3981 50.9391C28.8508 50.994 28.8896 51.723 28.4527 51.8814C26.8216 52.4724 25.4737 51.6215 24.994 51.6502C24.789 51.6624 24.6817 51.8071 24.7373 51.8011C25.5505 51.7139 26.6292 51.0425 28.1206 50.9851C28.7968 51.3557 29.2897 51.8686 29.806 52.2654C29.9448 52.3412 30.0943 52.3933 30.5118 52.5266" stroke="black" stroke-linecap="round"/>
<path d="M24.0259 45.0737C23.8377 44.9989 23.2086 44.5332 22.8385 43.9043C22.5086 43.3437 22.2664 42.7899 21.7225 42.4508C21.4568 42.2851 21.1095 42.3773 20.8325 42.5099C20.2345 42.7961 20.3962 43.8836 20.4648 44.5175C20.4919 44.7683 20.6705 44.8427 20.8181 44.8852C20.9657 44.9277 21.1197 44.9277 21.2652 44.8834C21.9436 44.6771 22.4292 43.636 22.8097 43.023C22.9776 42.7525 23.2094 42.4649 23.4421 42.3075C23.5212 42.254 23.5869 42.4501 23.5925 42.6046C23.6156 43.2366 23.3751 43.8408 23.3926 44.2474C23.4278 45.0676 24.0082 42.9035 24.5763 42.5284C24.7491 42.4144 25.0336 42.4631 25.2134 42.5243C25.8454 42.7393 26.1188 43.4963 26.7572 43.8255C27.5151 44.2164 29.3372 44.2865 30.6167 44.1636C31.4425 44.0843 31.821 43.3071 32.3832 42.9683C32.5468 42.8698 32.7926 42.928 32.8071 42.928C33.4204 42.928 31.6312 43.2213 31.4835 43.4352C31.413 43.5372 31.5432 43.7059 31.663 43.8107C32.1527 44.2389 32.7409 44.1901 32.9445 44.4149C33.0137 44.5634 33.0137 44.782 33.0663 44.8348C33.1189 44.8876 33.2241 44.7679 33.3325 44.6446" stroke="black" stroke-linecap="round"/>
<path d="M22.247 39.2965C22.2213 39.1488 22.3064 38.4302 22.4321 37.7466C22.596 36.8551 22.9472 35.7872 22.9517 34.9875C22.8958 34.8094 22.7695 34.6833 22.6743 34.5478C22.5792 34.4123 22.5191 34.2712 22.2464 33.9158" stroke="black" stroke-linecap="round"/>
<path d="M34.5879 33.2825C34.7082 33.3387 35.4109 33.6495 36.1133 34.0693C37.2435 34.745 37.9878 34.6963 38.6818 34.7968C39.4254 34.8648 40.0729 34.8994 40.6349 34.8779C40.8746 34.8565 41.0221 34.8136 41.2964 34.5592" stroke="black" stroke-linecap="round"/>
<path d="M37.0678 29.5923C37.0458 29.5923 36.8592 29.5923 36.5232 29.6376C36.1953 29.6818 35.9952 30.0283 35.8544 30.3629C35.7122 30.7009 35.7233 31.1144 35.7858 31.4826C35.8141 31.6495 35.9733 31.737 36.1805 31.7871C37.0805 32.0045 37.6114 31.4954 37.9712 31.2209C38.1287 31.1008 38.149 30.9234 38.1144 30.789C38.0798 30.6547 37.9675 30.5442 37.8254 30.473C37.6832 30.4018 37.5146 30.3732 36.9354 30.3105" stroke="black" stroke-linecap="round"/>
<path d="M33.0416 28.8378C33.382 28.7744 34.3296 28.611 34.9597 28.4993C36.1236 28.2928 37.9657 28.4628 38.6427 28.6071C39.3045 28.7481 39.9916 29.1366 40.6518 29.4801C40.809 29.566 40.9497 29.6365 41.1029 29.7196C41.2562 29.8026 41.4178 29.8961 41.9048 30.2078" stroke="black" stroke-linecap="round"/>
<path d="M19.5231 33.8505C18.9837 33.8505 17.6019 34.0315 16.8323 34.302C15.6155 34.4885 14.1456 34.4648 13.834 34.3699C13.6699 34.3273 13.4936 34.2959 13.274 34.2298" stroke="black" stroke-linecap="round"/>
<path d="M18.8482 30.777C18.8263 30.777 18.4998 30.777 17.9388 30.8595C17.6823 30.8972 17.5261 31.1069 17.4261 31.2708C17.326 31.4347 17.2978 31.5926 17.3532 31.7108C17.6031 32.2443 18.4533 32.0746 18.8845 32.0177C19.0709 31.9931 19.1622 31.847 19.22 31.5806C19.2778 31.3142 19.2919 30.8988 19.2423 30.6245C19.1926 30.3503 19.0788 30.2298 18.928 30.1678C18.7772 30.1057 18.5929 30.1057 18.403 30.1057" stroke="black" stroke-linecap="round"/>
<path d="M22.222 29.1833C21.9998 29.1304 21.1185 28.8036 20.2569 28.5672C19.5221 28.3655 18.7714 28.4229 18.0962 28.3438C17.424 28.2651 16.4991 28.2407 15.6671 28.4254C14.7925 28.6196 13.8955 29.0355 13.249 29.336C13.0876 29.411 12.9651 29.5501 12.9839 29.6389C13.0027 29.7276 13.1784 29.7834 13.374 29.7858C14.3034 29.7968 15.3158 29.075 16.0095 28.7811C17.3466 28.6201 19.1614 28.6888 19.7279 28.8363C20.0429 28.8865 20.4137 28.8865 20.7957 28.8865" stroke="black" stroke-linecap="round"/>
<path d="M11.5936 25.9935C11.8435 25.9582 12.6355 25.7303 13.3436 25.3666C14.1763 24.9389 14.7957 24.0933 15.4856 23.4382C16.2445 22.7176 18.377 22.7992 19.8437 22.9829C20.6873 23.0885 21.3198 23.298 21.9657 23.6147C22.1313 23.6959 22.2731 23.8086 22.4097 23.907C22.5463 24.0053 22.6675 24.0969 22.3819 24.1442C20.5392 24.4488 19.7537 24.3462 18.7436 24.7415C17.8329 25.0978 16.6735 25.5097 15.5475 25.7064C14.7295 25.8436 14.1041 26.0529 13.5245 26.3806C13.3898 26.4705 13.2635 26.5665 13.2865 27.0132" stroke="black" stroke-linecap="round"/>
<path d="M13.0253 26.384C13.1529 26.3168 13.7321 25.9959 14.3403 25.5894C15.1262 25.0642 16.1259 24.7529 17.0343 24.3519C17.42 24.1419 17.7403 24.005 18.0629 23.9518C18.2386 23.9338 18.4386 23.9338 18.6446 23.8999" stroke="black" stroke-linecap="round"/>
<path d="M33.0446 23.4417C34.4785 23.4417 38.2395 23.6587 39.2086 23.8718C39.9228 24.0289 40.5432 24.3946 41.1294 24.7988C41.3873 24.9766 42.1779 24.9274 43.1019 25.0101C43.4376 25.0401 43.4669 25.258 43.466 25.4313C43.4651 25.6045 43.424 25.7806 43.3247 25.8995C42.5751 26.7977 39.0632 25.8097 37.5217 25.4328C36.7396 25.2416 36.2762 24.7365 35.6286 24.3745C35.4504 24.283 35.2682 24.1864 35.0375 24.1367C34.8069 24.0869 34.5332 24.0869 34.2513 24.0869" stroke="black" stroke-linecap="round"/>
<path d="M21.8356 18.8659C22.0849 18.8482 23.0572 18.6499 23.9162 18.3997C24.5465 18.2162 26.7988 18.1012 28.2828 18.2497C28.4568 18.315 28.6454 18.3951 28.8126 18.4785C28.9798 18.5619 29.1198 18.6461 29.5307 18.946" stroke="black" stroke-linecap="round"/>
<path d="M19.1569 13.1706C19.3623 13.142 20.0366 12.9919 20.7104 12.683C21.4371 12.3499 22.0853 12.0227 23.2371 11.9362C23.497 11.9166 23.6499 11.8859 25.1154 11.8712C26.5809 11.8564 29.3543 11.8564 30.9022 11.8826C33.1941 11.9213 34.0285 12.4193 34.7534 12.7629C35.5385 13.135 36.3202 13.4123 36.907 13.7053C37.0468 13.7755 37.182 13.8439 37.3358 13.8862C37.4897 13.9284 37.6582 13.9425 37.8317 13.9571" stroke="black" stroke-linecap="round"/>
<path d="M44.5705 68.5767C44.5112 68.3358 43.9076 67.2007 42.9053 66.0197C42.4728 65.3571 42.1286 64.2228 42.0676 61.5644C42.1093 60.9882 42.1928 60.7024 42.2787 60.408" stroke="black" stroke-linecap="round"/>
<path d="M16.5356 70.2909C16.5356 69.2175 16.7378 66.1942 17.1292 65.0864C17.5103 64.2957 17.5958 63.6916 17.5675 63.1989C17.5391 62.9822 17.4825 62.8331 17.1975 62.5062" stroke="black" stroke-linecap="round"/>
<path d="M48.4412 26.752C48.4412 26.7959 48.4412 25.7847 48.362 24.2322C48.3353 23.7083 48.1246 23.7417 47.9653 23.8085C47.6347 23.9472 47.3124 24.1159 46.9839 24.0987C46.8268 24.0905 46.7151 23.935 46.6542 23.754C46.3868 22.9582 46.54 21.3021 46.671 19.9704C46.7241 19.4306 46.7717 18.9896 46.9441 18.7135C47.3047 18.1362 48.4273 18.1005 49.3038 18.1745C49.4799 18.2246 49.6384 18.3034 49.7935 18.3999C49.9487 18.4963 50.0958 18.6082 50.2901 18.7234" stroke="black" stroke-linecap="round"/>
</svg>
